<svg xmlns="http://www.w3.org/2000/svg" width="197.293" height="197.324" viewBox="0 0 197.293 197.324">
  <g id="Layer_x0020_1" transform="translate(-638.925 -632.89)">
    <path id="Path_7334" data-name="Path 7334" d="M896.438,632.89H888.85V830.214h7.588c54.4,0,98.66-44.516,98.66-99.221C995.1,676.9,950.837,632.89,896.438,632.89Zm74.195,60.155H945.57c-3.264-14.757-8.393-27.595-14.885-37.584a83.7,83.7,0,0,1,39.952,37.584Zm-66.6-43.063c10.564,5.115,20.557,20.56,26.032,43.063H904.03Zm0,58.242h28.848a171.59,171.59,0,0,1-.018,45.536H904.03Zm0,104.773V768.941h26.01C924.525,791.713,914.47,807.647,904.03,813Zm26.52-5.4c6.619-10.226,11.818-23.457,15.1-38.662h25.263A84.158,84.158,0,0,1,930.55,807.6Zm17.613-53.838a188.279,188.279,0,0,0,1.4-22.768,183.576,183.576,0,0,0-1.435-22.768H976.7a82.161,82.161,0,0,1,3.224,22.768,84.368,84.368,0,0,1-3.147,22.768H948.167Z" transform="translate(-158.88)" fill="#fff"/>
    <path id="Path_7335" data-name="Path 7335" d="M647.75,723.507a7.787,7.787,0,0,0,2.044.284,7.6,7.6,0,0,0,7.308-5.559,82.594,82.594,0,0,1,3.2-9.311,7.591,7.591,0,1,0-14.036-5.789,98.5,98.5,0,0,0-3.792,11.031A7.594,7.594,0,0,0,647.75,723.507Zm19.333-32.859a7.571,7.571,0,0,0,5.861-2.761,83.082,83.082,0,0,1,6.707-7.206A7.588,7.588,0,1,0,669.177,669.7a98.223,98.223,0,0,0-7.938,8.528,7.588,7.588,0,0,0,5.847,12.419Zm36.152,77-45.751,14.885a5.059,5.059,0,0,0-1.013,9.162l11.187,6.634-26.017,26.018a5.061,5.061,0,0,0,0,7.155l3.872,3.872a5.058,5.058,0,0,0,7.155,0l26.251-26.251,6.477,11.246a5.06,5.06,0,0,0,9.187-.936l15.016-45.39a5.057,5.057,0,0,0-6.364-6.4ZM646.77,755.458c.2,0,.408-.011.612-.026a7.589,7.589,0,0,0,6.962-8.171c-.12-1.526-.2-3.06-.237-4.608a7.592,7.592,0,0,0-15.18.353q.066,2.754.288,5.464a7.586,7.586,0,0,0,7.555,6.987ZM713.329,652.9a7.6,7.6,0,0,0-9.727-4.543,99.359,99.359,0,0,0-10.692,4.615,7.586,7.586,0,1,0,6.823,13.552,84.288,84.288,0,0,1,9.053-3.9,7.594,7.594,0,0,0,4.543-9.723Z" transform="translate(0 -9.544)" fill="#fff"/>
  </g>
</svg>
