<svg xmlns="http://www.w3.org/2000/svg" width="169.676" height="150.485" viewBox="0 0 169.676 150.485">
  <g id="Layer_x0020_1" transform="translate(-659.95 -537.17)">
    <g id="_2233646558768" transform="translate(659.95 537.17)">
      <path id="Path_7336" data-name="Path 7336" d="M841.731,605.993a14.808,14.808,0,0,1-7.362-1.963l-25.233-14.5v15.716l25.745,14.791a9.342,9.342,0,0,0,9.314,0l27.01-15.518a9.353,9.353,0,0,0,4.689-8.107v-7.787l-26.81,15.4a14.769,14.769,0,0,1-7.356,1.963Zm45.815-43.808-41.557-23.878a8.541,8.541,0,0,0-8.517,0l-41.56,23.878a4.673,4.673,0,0,0,0,8.1L839.4,595.274a4.68,4.68,0,0,0,4.654,0l43.488-24.986A4.673,4.673,0,0,0,887.546,562.185Z" transform="translate(-754.702 -537.17)" fill="#fff"/>
      <path id="Path_7337" data-name="Path 7337" d="M821.543,547.59H774.806l23.019,13.223a14.614,14.614,0,0,1,3.583,2.935h12.054v72.718H676.108V563.748h16.443a14.628,14.628,0,0,1,3.584-2.935l23.019-13.223H668.03a8.078,8.078,0,0,0-8.08,8.08v101a8.079,8.079,0,0,0,8.08,8.08h60.263l-3.028,18.179H710.451a6.059,6.059,0,0,0,0,12.118h68.677a6.059,6.059,0,0,0,0-12.118H764.314l-3.031-18.179h60.263a8.078,8.078,0,0,0,8.08-8.08v-101a8.079,8.079,0,0,0-8.08-8.08Zm-76.758,111.1a6.059,6.059,0,1,1,6.059-6.059A6.059,6.059,0,0,1,744.785,658.685ZM696.306,587.2v21.367l-3.339,4.354a3.312,3.312,0,0,0,0,4.034l4.372,5.7a3.316,3.316,0,0,0,5.259,0l4.372-5.7a3.313,3.313,0,0,0,0-4.034l-2.58-3.365V591.843l-8.08-4.642Z" transform="translate(-659.95 -544.559)" fill="#fff"/>
    </g>
  </g>
</svg>
