<svg xmlns="http://www.w3.org/2000/svg" xmlns:xlink="http://www.w3.org/1999/xlink" width="2831.215" height="2850.503" viewBox="0 0 2831.215 2850.503">
  <defs>
    <linearGradient id="linear-gradient" x1="0.926" y1="0.561" x2="0.059" y2="0.849" gradientUnits="objectBoundingBox">
      <stop offset="0" stop-color="#ed5564"/>
      <stop offset="1" stop-color="#8116af"/>
    </linearGradient>
    <linearGradient id="linear-gradient-2" x1="-0.388" y1="0.92" x2="1.026" y2="0.608" xlink:href="#linear-gradient"/>
  </defs>
  <g id="Group_68" data-name="Group 68" transform="translate(49.9 1562.002)">
    <path id="Subtraction_6" data-name="Subtraction 6" d="M1010.434,2086.467c-17.3,0-34.791-.457-52-1.357-17.083-.894-34.347-2.25-51.314-4.029-16.848-1.767-33.862-4-50.568-6.635-16.594-2.618-33.336-5.7-49.759-9.174-16.318-3.448-32.766-7.367-48.885-11.649-16.013-4.254-32.146-8.983-47.949-14.058-15.707-5.044-31.5-10.563-46.949-16.4-15.365-5.808-30.8-12.093-45.886-18.68-15.011-6.555-30.07-13.584-44.758-20.892-14.635-7.281-29.293-15.032-43.568-23.038-28.431-15.946-56.461-33.527-83.31-52.255-26.718-18.636-52.889-38.842-77.787-60.056-24.837-21.163-48.979-43.817-71.755-67.333s-44.718-48.442-65.215-74.084c-20.545-25.7-40.116-52.724-58.168-80.312-18.139-27.721-35.167-56.66-50.612-86.015-15.556-29.565-29.871-60.247-42.549-91.193-6.379-15.572-12.466-31.511-18.092-47.375-5.657-15.952-11-32.26-15.886-48.473-4.913-16.309-9.494-32.964-13.616-49.505-4.148-16.645-7.944-33.626-11.283-50.473-3.361-16.958-6.351-34.242-8.886-51.373-2.552-17.248-4.714-34.814-6.426-52.21-1.723-17.523-3.036-35.348-3.9-52.98C.442,1079.148,0,1061.086,0,1043.233s.442-35.915,1.315-53.685c.866-17.631,2.178-35.456,3.9-52.98,1.711-17.4,3.873-34.961,6.426-52.209,2.535-17.13,5.525-34.415,8.886-51.374,3.339-16.848,7.135-33.83,11.283-50.472,4.123-16.543,8.7-33.2,13.616-49.505,4.885-16.216,10.23-32.524,15.886-48.473,5.626-15.863,11.713-31.8,18.092-47.375,12.678-30.947,26.993-61.629,42.549-91.194,15.446-29.355,32.474-58.294,50.612-86.014,18.05-27.585,37.621-54.606,58.168-80.312,20.5-25.642,42.438-50.567,65.215-74.084s46.919-46.171,71.755-67.332c24.9-21.213,51.067-41.418,77.787-60.056,26.849-18.728,54.879-36.309,83.31-52.255,14.279-8.008,28.937-15.76,43.568-23.038,14.69-7.308,29.749-14.337,44.758-20.892C632.2,75.4,647.643,69.114,663.013,63.3c15.447-5.839,31.243-11.358,46.949-16.4,15.794-5.072,31.926-9.8,47.949-14.058,16.124-4.283,32.572-8.2,48.885-11.649,16.427-3.47,33.168-6.557,49.759-9.174,16.708-2.636,33.722-4.868,50.568-6.634C924.1,3.607,941.36,2.251,958.438,1.358c17.209-.9,34.7-1.357,52-1.357s34.788.457,52,1.357c17.078.894,34.342,2.249,51.314,4.029,16.846,1.766,33.86,4,50.568,6.634,16.59,2.617,33.331,5.7,49.758,9.174,16.314,3.447,32.761,7.366,48.885,11.649,16.023,4.256,32.155,8.986,47.949,14.058,15.707,5.044,31.5,10.562,46.949,16.4,15.372,5.811,30.81,12.1,45.886,18.68,15.009,6.554,30.068,13.583,44.758,20.892,14.633,7.28,29.291,15.031,43.568,23.038,28.431,15.946,56.461,33.527,83.311,52.255,26.721,18.638,52.892,38.844,77.787,60.056,24.836,21.162,48.978,43.815,71.755,67.332s44.719,48.442,65.215,74.084c20.547,25.705,40.117,52.726,58.168,80.312,18.138,27.72,35.167,56.659,50.612,86.014,15.556,29.565,29.871,60.247,42.549,91.194,6.377,15.566,12.464,31.506,18.092,47.375,5.656,15.948,11,32.257,15.886,48.473,4.912,16.306,9.493,32.962,13.616,49.505,4.147,16.642,7.943,33.623,11.283,50.472,3.361,16.959,6.351,34.244,8.886,51.374,2.553,17.251,4.715,34.816,6.426,52.209,1.723,17.522,3.036,35.347,3.9,52.98.872,17.77,1.315,35.832,1.315,53.685s-.442,35.914-1.315,53.684c-.866,17.634-2.179,35.459-3.9,52.98-1.711,17.395-3.873,34.96-6.426,52.21-2.535,17.131-5.525,34.416-8.886,51.373-3.339,16.846-7.135,33.828-11.283,50.473-4.122,16.541-8.7,33.2-13.616,49.505-4.884,16.213-10.229,32.521-15.886,48.473-5.628,15.87-11.716,31.81-18.092,47.375-12.678,30.947-26.994,61.629-42.549,91.193-15.445,29.355-32.474,58.294-50.612,86.015-18.052,27.588-37.623,54.609-58.168,80.312-20.5,25.642-42.438,50.568-65.215,74.084s-46.918,46.17-71.755,67.333c-24.9,21.213-51.067,41.419-77.787,60.056-26.85,18.728-54.88,36.309-83.311,52.255-14.272,8.005-28.931,15.756-43.568,23.038-14.689,7.308-29.748,14.337-44.758,20.892-15.082,6.586-30.52,12.871-45.886,18.68-15.444,5.838-31.24,11.357-46.949,16.4-15.8,5.075-31.936,9.8-47.949,14.058-16.12,4.282-32.567,8.2-48.885,11.649-16.424,3.47-33.165,6.556-49.758,9.174-16.707,2.635-33.721,4.868-50.568,6.635-16.967,1.779-34.231,3.135-51.314,4.029C1045.226,2086.01,1027.732,2086.467,1010.434,2086.467ZM983.7,132.892c-362.223,0-656.913,310.286-656.913,691.68S621.481,1516.25,983.7,1516.25s656.913-310.286,656.913-691.678S1345.927,132.892,983.7,132.892Z" transform="matrix(0.839, 0.545, -0.545, 0.839, 1086.471, -1562.002)" fill="url(#linear-gradient)"/>
    <path id="Subtraction_9" data-name="Subtraction 9" d="M7115.779,8439c-5.235,0-10.51-.041-15.679-.123-16.341-.256-32.884-.921-49.17-1.978-16.352-1.062-32.867-2.545-49.085-4.407-16.311-1.873-32.77-4.181-48.919-6.856-16.194-2.682-32.564-5.819-48.655-9.325s-32.348-7.48-48.305-11.813c-15.991-4.345-32.1-9.165-47.873-14.326-15.863-5.192-31.791-10.863-47.342-16.854-15.7-6.049-31.418-12.578-46.728-19.406-15.414-6.873-30.9-14.268-46.023-21.979-15.2-7.746-30.415-16.013-45.231-24.568-14.917-8.613-29.838-17.759-44.348-27.182-14.469-9.4-28.893-19.306-42.869-29.456-13.828-10.045-27.568-20.586-40.84-31.328-13.189-10.675-26.243-21.813-38.8-33.106-12.459-11.2-24.82-22.908-36.737-34.793-11.8-11.777-23.463-24.022-34.653-36.4-11.128-12.306-22.082-25.059-32.558-37.9-10.429-12.791-20.671-26.022-30.44-39.326-9.711-13.221-19.236-26.9-28.311-40.656-9.024-13.686-17.826-27.783-26.159-41.9-8.292-14.048-16.364-28.533-23.993-43.051-7.591-14.45-14.927-29.292-21.8-44.113-6.858-14.77-13.454-29.938-19.6-45.084-6.131-15.1-11.98-30.562-17.384-45.969-5.4-15.386-10.492-31.12-15.146-46.765s-8.993-31.624-12.89-47.468c-3.9-15.869-7.476-32.046-10.617-48.081-3.147-16.071-5.948-32.425-8.326-48.61-2.381-16.2-4.406-32.7-6.02-49.042-1.61-16.312-2.853-32.928-3.693-49.388-.838-16.444-1.292-33.148-1.349-49.647s.283-33.262,1.01-49.814c.731-16.587,1.871-33.373,3.389-49.89,1.527-16.615,3.474-33.4,5.786-49.877,2.316-16.527,5.074-33.274,8.2-49.776,3.133-16.541,6.709-33.224,10.63-49.585,3.94-16.446,8.34-33.035,13.079-49.306,4.764-16.362,9.993-32.827,15.542-48.935,5.585-16.212,11.651-32.521,18.028-48.476,6.416-16.052,13.322-32.176,20.527-47.925,7.267-15.881,15.021-31.79,23.048-47.285,8.1-15.634,16.7-31.3,25.583-46.559,8.933-15.358,18.4-30.747,28.135-45.739s19.939-29.89,30.342-44.308c10.35-14.345,21.159-28.58,32.127-42.308,10.915-13.663,22.294-27.218,33.825-40.287,11.466-13,23.387-25.865,35.432-38.246,11.961-12.3,24.393-24.471,36.952-36.185,12.468-11.628,25.382-23.1,38.383-34.1,12.931-10.942,26.295-21.708,39.722-32,13.39-10.265,27.176-20.317,40.976-29.878,13.764-9.539,27.941-18.87,42.138-27.734,14.116-8.816,28.655-17.42,43.212-25.574,14.494-8.116,29.365-15.984,44.2-23.387,14.777-7.375,29.95-14.5,45.1-21.186,15.086-6.652,30.529-13.031,45.9-18.959,15.326-5.907,31.012-11.531,46.623-16.715,15.564-5.167,31.462-10.028,47.251-14.449,15.764-4.414,31.843-8.506,47.791-12.164s32.175-6.973,48.246-9.859,32.424-5.419,48.607-7.531c16.22-2.115,32.665-3.859,48.879-5.183,16.291-1.332,32.8-2.279,49.066-2.817,11.048-.367,22.3-.553,33.447-.553,5.228,0,10.515.042,15.715.123,16.364.257,32.906.922,49.168,1.979,16.341,1.061,32.856,2.544,49.087,4.407,16.324,1.875,32.782,4.182,48.917,6.856,16.242,2.692,32.612,5.829,48.656,9.325,16.11,3.509,32.363,7.483,48.307,11.814,16.038,4.358,32.144,9.178,47.871,14.326,15.834,5.183,31.763,10.854,47.342,16.854,15.657,6.033,31.378,12.563,46.728,19.407,15.426,6.879,30.911,14.273,46.023,21.978,15.188,7.742,30.406,16.008,45.231,24.568,14.935,8.625,29.855,17.771,44.348,27.182s28.925,19.329,42.869,29.458c13.855,10.065,27.6,20.6,40.84,31.325,13.166,10.658,26.219,21.8,38.8,33.105,12.463,11.208,24.823,22.915,36.735,34.8,11.783,11.753,23.442,24,34.654,36.395,11.15,12.331,22.1,25.084,32.558,37.9,10.412,12.768,20.654,26,30.441,39.326,9.718,13.232,19.243,26.912,28.311,40.656,9.021,13.68,17.822,27.777,26.158,41.9,8.3,14.063,16.373,28.547,23.992,43.049,7.582,14.435,14.918,29.277,21.807,44.115,6.858,14.776,13.454,29.944,19.6,45.084,6.139,15.12,11.987,30.586,17.382,45.97,5.39,15.365,10.485,31.1,15.146,46.764s8.993,31.627,12.89,47.468c3.906,15.875,7.479,32.052,10.618,48.081,3.145,16.051,5.947,32.4,8.328,48.609s4.4,32.694,6.019,49.043c1.614,16.371,2.856,32.988,3.691,49.388.838,16.44,1.292,33.144,1.349,49.647.058,16.557-.282,33.316-1.01,49.812-.73,16.589-1.871,33.374-3.389,49.89-1.527,16.609-3.474,33.391-5.786,49.88-2.324,16.578-5.082,33.325-8.2,49.776-3.136,16.555-6.712,33.238-10.63,49.585-3.948,16.479-8.348,33.068-13.076,49.306-4.747,16.3-9.977,32.768-15.544,48.935-5.58,16.2-11.645,32.506-18.025,48.474-6.419,16.056-13.327,32.18-20.529,47.924-7.243,15.838-15,31.748-23.045,47.287-8.092,15.624-16.7,31.289-25.582,46.559-8.962,15.4-18.429,30.792-28.137,45.739-9.721,14.971-19.929,29.878-30.34,44.308-10.333,14.321-21.142,28.555-32.128,42.308-10.893,13.636-22.273,27.19-33.823,40.288-11.443,12.969-23.365,25.837-35.435,38.246-11.967,12.3-24.4,24.477-36.951,36.185-12.492,11.648-25.405,23.122-38.382,34.1-12.945,10.954-26.31,21.72-39.724,32-13.342,10.228-27.128,20.28-40.974,29.878-13.763,9.536-27.941,18.868-42.141,27.734-14.146,8.834-28.686,17.438-43.212,25.571-14.458,8.1-29.329,15.968-44.2,23.389-14.794,7.386-29.967,14.513-45.1,21.184-15.107,6.665-30.551,13.045-45.9,18.962s-31.044,11.544-46.623,16.713-31.483,10.037-47.251,14.451c-15.743,4.409-31.823,8.5-47.792,12.165-16,3.665-32.227,6.981-48.246,9.857-16.059,2.882-32.412,5.416-48.606,7.531-16.167,2.109-32.612,3.853-48.88,5.183-16.3,1.332-32.807,2.28-49.066,2.816C7138.2,8438.813,7126.938,8439,7115.779,8439Zm263.512-1834.335c-9.216,0-18.523.2-27.664.584-21.288.9-42.854,2.87-64.1,5.852-21.19,2.974-42.533,7.022-63.437,12.032-20.935,5.019-41.9,11.11-62.311,18.1-20.481,7.016-40.91,15.111-60.716,24.06-19.895,8.988-39.629,19.051-58.657,29.907-19.154,10.929-38.038,22.921-56.129,35.644-9.08,6.383-18.154,13.09-26.972,19.936-8.84,6.863-17.643,14.039-26.165,21.328-8.593,7.353-17.105,14.992-25.3,22.707-8.274,7.788-16.476,15.887-24.378,24.07-7.971,8.256-15.843,16.809-23.4,25.422-7.634,8.7-15.156,17.706-22.356,26.754l-.479.6-.275.346-.123.155c-6.358,2.942-12.725,6.007-18.922,9.11-9.576,4.791-19.212,9.9-28.643,15.2-9.392,5.274-18.814,10.863-28.006,16.613-9.219,5.772-18.407,11.834-27.311,18.018-8.982,6.237-17.918,12.766-26.559,19.4-8.7,6.683-17.369,13.674-25.752,20.779-8.415,7.129-16.787,14.579-24.883,22.141s-16.172,15.476-23.961,23.488c-7.811,8.04-15.542,16.393-22.975,24.826-7.495,8.5-14.875,17.3-21.937,26.146-7.137,8.939-14.148,18.176-20.841,27.455-6.741,9.347-13.364,19.02-19.687,28.751s-12.452,19.7-18.256,29.677c-5.764,9.905-11.351,20.068-16.6,30.206-5.208,10.046-10.244,20.368-14.965,30.676-4.679,10.218-9.165,20.677-13.333,31.087-4.142,10.348-8.083,20.927-11.714,31.443-3.616,10.479-7.016,21.157-10.1,31.737-3.067,10.5-5.931,21.261-8.51,31.977-2.557,10.633-4.887,21.451-6.923,32.155-2.032,10.673-3.832,21.534-5.35,32.279-1.509,10.681-2.783,21.562-3.787,32.341s-1.752,21.656-2.234,32.35c-.486,10.73-.72,21.6-.695,32.294s.3,21.535.833,32.187,1.321,21.432,2.351,32.017,2.326,21.267,3.857,31.793,3.332,21.113,5.352,31.506c2.028,10.42,4.328,20.9,6.837,31.163s5.3,20.61,8.309,30.763c3,10.138,6.289,20.334,9.77,30.306s7.26,20,11.219,29.789c3.982,9.836,8.241,19.666,12.659,29.215,4.456,9.629,9.2,19.245,14.086,28.582,4.9,9.365,10.12,18.749,15.5,27.891s11.077,18.286,16.9,27.142c5.875,8.923,12.033,17.783,18.3,26.334,6.322,8.626,12.944,17.2,19.683,25.473,6.773,8.32,13.856,16.579,21.052,24.547,7.235,8.013,14.775,15.942,22.411,23.568,7.707,7.695,15.7,15.274,23.759,22.526,8.158,7.342,16.6,14.553,25.1,21.432,8.58,6.947,17.47,13.77,26.423,20.277,9,6.538,18.329,12.952,27.739,19.063s19.059,12.022,28.7,17.585c9.584,5.532,19.432,10.879,29.27,15.891,9.771,4.979,19.793,9.76,29.787,14.211,9.958,4.435,20.134,8.654,30.246,12.542,10.074,3.876,20.384,7.54,30.645,10.891,10.2,3.33,20.627,6.441,30.99,9.247,10.323,2.8,20.845,5.359,31.273,7.621,10.395,2.255,20.994,4.276,31.5,6.006,10.471,1.724,21.126,3.206,31.671,4.405s21.224,2.145,31.784,2.817c10.536.671,21.249,1.089,31.839,1.241,3.039.045,6.2.068,9.387.068,7.464,0,15.018-.13,22.453-.386,10.508-.36,21.2-.988,31.775-1.866,10.529-.875,21.181-2.019,31.659-3.4s21.061-3.036,31.484-4.922,20.941-4.052,31.252-6.43,20.742-5.051,30.958-7.925c10.25-2.886,20.55-6.052,30.613-9.408,10.118-3.375,20.281-7.033,30.205-10.874,9.954-3.853,19.96-8,29.741-12.331,9.8-4.334,19.627-8.968,29.221-13.771,9.623-4.817,19.26-9.931,28.643-15.2,9.4-5.281,18.827-10.871,28.005-16.615,9.2-5.76,18.393-11.822,27.311-18.015,8.941-6.208,17.877-12.737,26.559-19.4,8.7-6.685,17.369-13.676,25.752-20.779,8.441-7.154,16.813-14.6,24.883-22.14,8.146-7.61,16.207-15.513,23.958-23.49,7.83-8.058,15.561-16.41,22.977-24.824,2.8-3.181,5.642-6.461,8.434-9.749,1.2-.537,2.383-1.064,3.5-1.57,19.9-8.991,39.634-19.053,58.656-29.908,19.159-10.933,38.043-22.924,56.13-35.643,9.114-6.408,18.188-13.115,26.972-19.937,8.83-6.854,17.633-14.03,26.166-21.328,8.584-7.345,17.1-14.984,25.3-22.707,8.247-7.764,16.449-15.862,24.377-24.07s15.807-16.769,23.4-25.419c7.653-8.728,15.174-17.73,22.355-26.756,7.261-9.125,14.414-18.571,21.26-28.078,6.881-9.558,13.645-19.445,20.1-29.387s12.739-20.149,18.667-30.316,11.647-20.545,17-30.844c5.339-10.256,10.5-20.788,15.351-31.305,4.819-10.458,9.43-21.128,13.706-31.712,4.265-10.554,8.328-21.341,12.074-32.061,3.739-10.7,7.255-21.579,10.452-32.347,3.186-10.718,6.161-21.679,8.842-32.579,2.669-10.845,5.106-21.864,7.244-32.75,4.263-21.7,7.538-43.826,9.732-65.774,2.177-21.785,3.342-43.906,3.463-65.75.118-21.743-.8-43.7-2.715-65.254-1.914-21.5-4.876-43.134-8.807-64.286-3.925-21.133-8.908-42.278-14.809-62.847-5.917-20.619-12.891-41.122-20.726-60.937-7.869-19.9-16.8-39.6-26.555-58.555a643.341,643.341,0,0,0-32.3-55.7c-5.836-8.988-11.984-17.949-18.273-26.633-6.314-8.715-12.934-17.376-19.676-25.743-6.809-8.446-13.9-16.788-21.07-24.8-7.251-8.1-14.8-16.1-22.448-23.786-7.693-7.739-15.707-15.384-23.815-22.721-8.156-7.38-16.627-14.645-25.176-21.6-8.654-7.032-17.579-13.9-26.525-20.409-9.058-6.6-18.431-13.044-27.859-19.167s-19.137-12.065-28.842-17.655c-9.624-5.545-19.526-10.906-29.433-15.931-9.827-4.985-19.91-9.768-29.969-14.216-9.983-4.416-20.226-8.627-30.443-12.517-10.145-3.862-20.528-7.507-30.861-10.833-10.279-3.308-20.783-6.39-31.221-9.16-10.383-2.758-20.989-5.283-31.521-7.5-10.471-2.21-21.158-4.182-31.762-5.86a643.01,643.01,0,0,0-64.024-6.85C7403.838,6605.008,7391.514,6604.663,7379.291,6604.663Z" transform="translate(-5653.607 -7752.502)" opacity="0.29" fill="url(#linear-gradient-2)"/>
  </g>
</svg>
