<svg xmlns="http://www.w3.org/2000/svg" width="555.808" height="691.853" viewBox="0 0 555.808 691.853">
  <g id="Group_65" data-name="Group 65" transform="translate(-269.832 -2804.581)">
    <ellipse id="Ellipse_131" data-name="Ellipse 131" cx="70.59" cy="15.848" rx="70.59" ry="15.848" transform="translate(490.619 3377.586)" fill="#417ba0" opacity="0.1"/>
    <ellipse id="Ellipse_132" data-name="Ellipse 132" cx="127.349" cy="10.453" rx="127.349" ry="10.453" transform="translate(269.832 3433.313)" fill="#417ba0" opacity="0.1"/>
    <ellipse id="Ellipse_134" data-name="Ellipse 134" cx="95.822" cy="15.848" rx="95.822" ry="15.848" transform="translate(618.514 3332.734)" fill="#417ba0" opacity="0.1"/>
    <ellipse id="Ellipse_135" data-name="Ellipse 135" cx="76.708" cy="15.848" rx="76.708" ry="15.848" transform="translate(610.874 3464.738)" fill="#417ba0" opacity="0.1"/>
    <path id="Path_1123" data-name="Path 1123" d="M442.277,463.481c4.007,17.612,19.939-9.017,23.571-15.407.469-.835.732-1.323.732-1.323l-1.727-8.1-9.13-3.753a25.506,25.506,0,0,0-4.091,2.665C446.63,441.5,439.19,449.838,442.277,463.481Z" transform="translate(332.918 2644.027)" fill="#efceb2"/>
    <path id="Path_1124" data-name="Path 1124" d="M571.2,434.353a1.231,1.231,0,0,0,.1.394,2,2,0,0,0,.122.422c1.567,5.5,10.856,36.454,19.827,27.859,9.815-9.383,5.048-31.077,5.048-31.077h-.066l-20.643-2.111-4.091,4.2h0Z" transform="translate(80.392 2644.339)" fill="#efceb2"/>
    <path id="Path_1125" data-name="Path 1125" d="M453.79,586.847l-.525,59.114c8.1,13.418,7.432,25.335,7.432,25.335l26.686,1.051c6.512-4.382,1.877-16.59,1.877-16.59V625.318s4.119-29.735,2.13-37.974,8.36-23.458,8.36-23.458l1.464-16.6c5.048-6.634,7.441-43.275,7.441-43.275l5.414-18.5c-.15.8-2.965,16.242,0,19.085s4.119,15.4,4.119,15.4-2.918,34.793,0,41.821-.788,11.025-.788,11.025l-.535,36.116s2.524,9.693-.263,23.364,0,34.793,0,34.793h28.628L545.1,652.37l4.635-12.48s3.19-51.514,5.714-62.671A28,28,0,0,0,552.8,557.7s5.3-8.492,5.039-14.469,4.091-17.378,4.091-17.378l6.174-41.952a81.5,81.5,0,0,1,3.059-23.9c3.584-11.954,8.9-27.624,8.9-27.624l-6,.535-30.251,2.693s-73.555-4.945-76.849-.835a13.8,13.8,0,0,0-1.389,4.288c-3.3,14.835-7.666,61.31-7.666,61.31s-8.9,36.247-5.076,39.832,3.35,15.257,3.35,15.257C450.459,566.485,453.79,586.847,453.79,586.847Z" transform="translate(209.744 2644.182)" fill="#417ba0"/>
    <path id="Path_1126" data-name="Path 1126" d="M462.19,704.582c.206,3.293,3.875,3.49,3.875,3.49,10.753,1.689,13.043,5.874,13.043,5.874S489.43,724.2,505,722.71c13.23-1.276,11.945-3.631,11.26-7.995a16.539,16.539,0,0,1-.216-2.458c0-5.977-4.579-7.675-11.748-12.2s-6.972-8.267-9.956-11.551-3.294-9.655-3.294-9.655c-3.378-5.883-11.945.938-11.945.938-.4,2.083-13.137,1.792-13.137,1.792s-1.689,6.775-2.562,7.169c-.572.263-1,5.574-1.173,10.134C462.134,701.279,462.115,703.446,462.19,704.582Z" transform="translate(263.526 2629.128)" fill="#38e6f1"/>
    <path id="Path_1127" data-name="Path 1127" d="M462.191,706.057c.206,3.294,3.875,3.491,3.875,3.491,10.753,1.689,13.043,5.874,13.043,5.874S489.43,725.677,505,724.185c13.23-1.276,11.945-3.631,11.26-7.995-5.911,1.464-17.209,3.509-23.805-.075-9.167-4.973-15.745-8.445-15.745-8.445l-14.488-7.291C462.135,702.754,462.116,704.922,462.191,706.057Z" transform="translate(263.526 2627.653)" opacity="0.1"/>
    <path id="Path_1128" data-name="Path 1128" d="M548.73,722.556a5.724,5.724,0,0,0,3.3,2.73l.253.066c4.382.938,21.319.938,21.319.938s17.124-13.24,22.3-13.54,7.966-4.785,7.966-4.785-.1-3.078-.432-6.662c-.4-4.241-1.107-9.167-2.355-10.462-2.289-2.393-2.815-5.63-7.966-3.584,0,0-7.357-12.968-16.027-2.946l-8.97,13.606s-1.689,5.63-13.052,11.738c-4.542,2.44-6.568,5.311-7.141,7.929A6.991,6.991,0,0,0,548.73,722.556Z" transform="translate(95.944 2628.879)" fill="#38e6f1"/>
    <path id="Path_1129" data-name="Path 1129" d="M548.73,723.923c1.013.854,2.13,1.773,3.3,2.731l.253.066c4.382.938,21.319.938,21.319.938s17.124-13.24,22.3-13.54,7.966-4.785,7.966-4.785-.1-3.078-.432-6.662c-5.273,1.576-13.259,4.363-15.4,7.366-3.284,4.57-13.258,10.95-13.258,10.95s-18.6-1.792-26.855-2.036A6.991,6.991,0,0,0,548.73,723.923Z" transform="translate(95.944 2627.512)" opacity="0.1"/>
    <path id="Path_1130" data-name="Path 1130" d="M476.563,229.483l24.49,25.888s29.679-2.186,24.5-10.95c-2.637-4.466-3.05-13.812-2.815-21.938.216-7.835,1.023-14.507,1.023-14.507s-41.624-20.718-38.471-1.4A31.8,31.8,0,0,1,485.4,217.6C483.629,227.362,476.563,229.483,476.563,229.483Z" transform="translate(240.483 2658.617)" fill="#efceb2"/>
    <path id="Path_1131" data-name="Path 1131" d="M479.294,206.578a31.8,31.8,0,0,1,.113,11.025,30.552,30.552,0,0,0,21.788,9.092c5.63,0,11.72-4.626,16.271-7.3.216-7.844.263-11.419.263-11.419S476.1,187.258,479.294,206.578Z" transform="translate(246.516 2658.617)" opacity="0.1"/>
    <path id="Path_1132" data-name="Path 1132" d="M464.038,192.155a30.674,30.674,0,1,0,11.541-23.965A30.674,30.674,0,0,0,464.038,192.155Z" transform="translate(253.009 2660.89)" fill="#efceb2"/>
    <path id="Path_1133" data-name="Path 1133" d="M456.83,439.095c7.638,18.175,56.769,18.551,56.769,18.551V437.828l2.974-.2c-1.285,5.677,1.8,19.517,1.8,19.517,38.828,5.48,48.3-16.646,48.3-16.646l-1.351-7.572-30.251,2.693s-73.555-4.945-76.849-.835A13.8,13.8,0,0,0,456.83,439.095Z" transform="translate(218.49 2644.149)" opacity="0.1"/>
    <path id="Path_1134" data-name="Path 1134" d="M514.581,442.588V422.77l2.975-.188c-1.286,5.63,1.8,19.517,1.8,19.517,29.219,4.119,41.812-7.385,46.25-13.334a18.156,18.156,0,0,0,2.045-3.3l-11.86-66.715-2.815-98.186-4.251-17.228-.985-8.267v-.094h-.1l-3.021,1.295-18.082,7.816L506,228.575l-.3-.216-1.023-.779-1.7,1.361-4.222,3.387-13.54,87.442s-23.458,67.325-27.849,94.5c-.178,1.089-.319,2.1-.432,3.05C454.031,442.128,514.581,442.588,514.581,442.588Z" transform="translate(217.507 2656.814)" fill="#89faff"/>
    <ellipse id="Ellipse_136" data-name="Ellipse 136" cx="1.745" cy="1.745" rx="1.745" ry="1.745" transform="translate(740.101 2901.087)" fill="#417ba0"/>
    <ellipse id="Ellipse_137" data-name="Ellipse 137" cx="1.745" cy="1.745" rx="1.745" ry="1.745" transform="translate(739.294 2917.019)" fill="#417ba0"/>
    <ellipse id="Ellipse_138" data-name="Ellipse 138" cx="1.745" cy="1.745" rx="1.745" ry="1.745" transform="translate(737.549 2942.813)" fill="#417ba0"/>
    <ellipse id="Ellipse_139" data-name="Ellipse 139" cx="1.745" cy="1.745" rx="1.745" ry="1.745" transform="translate(734.668 2970.597)" fill="#417ba0"/>
    <ellipse id="Ellipse_140" data-name="Ellipse 140" cx="1.745" cy="1.745" rx="1.745" ry="1.745" transform="translate(732.923 2996.683)" fill="#417ba0"/>
    <ellipse id="Ellipse_141" data-name="Ellipse 141" cx="1.745" cy="1.745" rx="1.745" ry="1.745" transform="translate(731.178 3024.467)" fill="#417ba0"/>
    <ellipse id="Ellipse_142" data-name="Ellipse 142" cx="1.745" cy="1.745" rx="1.745" ry="1.745" transform="translate(731.872 3051.95)" fill="#417ba0"/>
    <path id="Path_1135" data-name="Path 1135" d="M459.564,368.918s1.952,25.551,5.536,32.982,5.18,28.281,5.18,28.281l8.323-.938a18.16,18.16,0,0,0,2.046-3.3l-11.86-66.715-2.815-98.186-4.26-17.237-.985-8.267-.113-.047a3.359,3.359,0,0,0-2.965.047l-.394.206q.178.507.338,1.042c3.247,10.162,4.457,28.891,4.457,28.891s-4.692,34.258-5.18,50.191S459.564,368.918,459.564,368.918Z" transform="translate(304.521 2656.346)" opacity="0.1"/>
    <path id="Path_1136" data-name="Path 1136" d="M441.55,437.593a4.788,4.788,0,0,0,.319.619c3.228,5.452,11.41,8.914,13.9,9.862.469-.835.732-1.323.732-1.323l-1.727-8.1-9.13-3.753A25.507,25.507,0,0,0,441.55,437.593Z" transform="translate(342.999 2644.027)" opacity="0.1"/>
    <path id="Path_1137" data-name="Path 1137" d="M436.671,298.81l7.572,4.513L451.14,334s8.633,26.02,2,44.608-10.49,29.229-10.49,29.229-2.655,21.112-6.643,22.839-5.705,2.655-5.705,2.655l-.8,5.048s-10.81-3.669-14.628-10.134,2.815-22.52,2.815-22.52,5.705-13.681,4.241-20.052,2.928-23.1,2.928-23.458.394-9.3-2.815-16.139-1.07-9.759-1.07-9.759l2-19.517Z" transform="translate(369.995 2652.42)" fill="#417ba0"/>
    <path id="Path_1138" data-name="Path 1138" d="M522.02,420.731s20.052,7.563,26.423.938,5.714-37.711,5.714-37.711,6.1-57.36,9.956-66.78,1.877-77.412,1.877-77.412,2.59-8.792,4.851-11.091a2.459,2.459,0,0,1,.479-.385l-.779.169-2.721.582-4.223,3.387-13.54,87.442s-23.458,67.325-27.849,94.5Z" transform="translate(152.671 2656.77)" opacity="0.1"/>
    <path id="Path_1139" data-name="Path 1139" d="M572.41,435.15h.225c2.524.328,24.8,3.021,24.894-1.614a13.563,13.563,0,0,0-.085-1.6L576.8,429.82l-4.091,4.2h0c-.075.272-.131.507-.188.694Z" transform="translate(79.18 2644.34)" opacity="0.1"/>
    <path id="Path_1140" data-name="Path 1140" d="M606.2,266.07l-14.638,7.638s-12.2,31.584-14.15,45.124c0,0-9.036,36.276-2.815,51.195S580.3,414.56,580.3,414.56s3.584,5.442,5.048,3.988-.535,5.705-.535,5.705,25.025,3.322,25.128-1.6-5.743-28.413-5.743-28.413-1.6-55.9.666-64.66S606.2,266.07,606.2,266.07Z" transform="translate(66.767 2654.44)" fill="#417ba0"/>
    <path id="Path_1141" data-name="Path 1141" d="M518.007,329.52s8.239,20.174,10.894,21.506-.535,6.634-.535,6.634S513.362,336.689,518.007,329.52Z" transform="translate(198.636 2650.527)" opacity="0.1"/>
    <path id="Path_1142" data-name="Path 1142" d="M510.915,254.1c-.094-.385,9.824,9.73,12.48,11.26S513.7,265.265,510.915,254.1Z" transform="translate(210.645 2655.179)" opacity="0.1"/>
    <path id="Path_1143" data-name="Path 1143" d="M480.986,327.82s15.135,9.787,13.137,13.662S480.986,327.82,480.986,327.82Z" transform="translate(268.189 2650.631)" opacity="0.1"/>
    <path id="Path_1144" data-name="Path 1144" d="M557.4,480.07s-12.883,8.285-32.926,10.322Z" transform="translate(164.296 2641.241)" opacity="0.1"/>
    <path id="Path_1145" data-name="Path 1145" d="M509.737,501.3s-11.945,15.013-17.4,15.4S509.737,501.3,509.737,501.3Z" transform="translate(242.891 2639.932)" opacity="0.1"/>
    <path id="Path_1146" data-name="Path 1146" d="M493.97,564c.535.263,6.775,13.54,13.137,13.944S493.97,564,493.97,564Z" transform="translate(241.928 2636.064)" opacity="0.1"/>
    <path id="Path_1147" data-name="Path 1147" d="M582.808,594.974s-11.842-2.656-14.478,5.836C568.33,600.782,569.128,598.127,582.808,594.974Z" transform="translate(97.728 2634.178)" opacity="0.1"/>
    <path id="Path_1148" data-name="Path 1148" d="M577.547,646.692s-14.347-2.927-17.4,1.06S577.547,646.692,577.547,646.692Z" transform="translate(110.956 2631.028)" opacity="0.1"/>
    <path id="Path_1149" data-name="Path 1149" d="M503.706,654c0,.131,14.6,2.928,14.075,4.785s-15.576,1.6-16.111-1.332A2.815,2.815,0,0,1,503.706,654Z" transform="translate(225.38 2630.514)" opacity="0.1"/>
    <path id="Path_1150" data-name="Path 1150" d="M577.335,667.365s-23.993-2.928-22.52,2.121S577.335,667.365,577.335,667.365Z" transform="translate(115.944 2629.742)" opacity="0.1"/>
    <path id="Path_1151" data-name="Path 1151" d="M438.812,352.44c-.131.394-15.8,2.524-17.922,7.572,0,0,15.4-7.178,17.828-7.178" transform="translate(380.071 2649.113)" opacity="0.1"/>
    <path id="Path_1152" data-name="Path 1152" d="M431.449,396.16s13.015,4.119,12.086,10.322S444.858,403.61,431.449,396.16Z" transform="translate(365.393 2646.417)" opacity="0.1"/>
    <path id="Path_1153" data-name="Path 1153" d="M448.081,429.481s-4.738-6.5-9.252-5.311S448.081,429.481,448.081,429.481Z" transform="translate(354.823 2644.698)" opacity="0.1"/>
    <path id="Path_1154" data-name="Path 1154" d="M464.124,168.189a7.381,7.381,0,0,0,1.52,1.135c3.753,2.186,4.786,5.555,6.568,9.44,1.661,3.556,3.491,7.319,6.84,9.336,4.326,2.609,10.021,1.651,14.516,3.922a11.26,11.26,0,0,1,6.005,11.1,32.026,32.026,0,0,1-1.276,5.086,36.264,36.264,0,0,0-1.37,11.044,1.868,1.868,0,0,0,0,.328,30.664,30.664,0,1,0-32.841-51.392Z" transform="translate(264.464 2660.89)" opacity="0.1"/>
    <path id="Path_1155" data-name="Path 1155" d="M448.842,157.787c3.369-7.075,10.7-11.56,18.232-13.746,5.752-1.661,12-2.205,17.706-.375,3.256,1.032,6.212,2.815,9.261,4.344,5.686,2.871,11.935,5.142,16.214,9.862a4.942,4.942,0,0,1,1.623,3.96c-.216,1.079-1.06,1.877-1.6,2.871-1.229,2.158-.938,4.87-.084,7.216s2.064,4.523,2.646,6.934.357,5.236-1.426,6.953a25.981,25.981,0,0,1-2.684,1.877,14.126,14.126,0,0,0-2.543,2.89l-5.067,6.925a70.236,70.236,0,0,0-6.343,9.749c-1.257,2.515-2.233,5.2-3.922,7.441s-4.316,4.044-7.112,3.8a1.379,1.379,0,0,1-1.126-.535,1.482,1.482,0,0,1-.141-.7,36.014,36.014,0,0,1,1.342-11.007,31.755,31.755,0,0,0,1.276-5.086,11.307,11.307,0,0,0-6.005-11.1c-4.5-2.271-10.2-1.314-14.516-3.913-3.359-2.027-5.189-5.789-6.84-9.383-1.811-3.885-2.815-7.253-6.568-9.44S446.975,161.512,448.842,157.787Z" transform="translate(280.543 2662.06)" fill="#5a6194"/>
    <path id="Path_1156" data-name="Path 1156" d="M505.3,693.06s-4.692,5.977-3.472,9.383S505.3,693.06,505.3,693.06Z" transform="translate(237.819 2628.105)" opacity="0.1"/>
    <path id="Path_1157" data-name="Path 1157" d="M587.477,708.461s-1.042-8.013-5.217-8.088-4.382-.432-7.572.8-6.184,3.134-5.227,3.416,5.489-4.579,10.143-2.093a33.518,33.518,0,0,1,7.872,5.968Z" transform="translate(92.168 2627.66)" opacity="0.1"/>
    <path id="Path_1158" data-name="Path 1158" d="M486.806,254.623l-13.137-9.2s19.217-11.354,21.506-9.759,3.866,15.952,3.866,15.952Z" transform="translate(270.316 2656.325)" opacity="0.1"/>
    <path id="Path_1159" data-name="Path 1159" d="M486.746,253.982,473.61,244.6s19.217-11.354,21.506-9.759,3.866,16.74,3.866,16.74Z" transform="translate(270.432 2656.376)" fill="#e1e7ef"/>
    <path id="Path_1160" data-name="Path 1160" d="M486.746,253.982,473.61,244.6s19.217-11.354,21.506-9.759,3.866,16.74,3.866,16.74Z" transform="translate(270.432 2656.376)" fill="#89faff"/>
    <path id="Path_1161" data-name="Path 1161" d="M426.163,234.893l.394-.2a3.406,3.406,0,0,1,3.688.385l39.41,31.969s8.567,11.851,7.375,32.3l-23.242,32.926s-2.655-11.147-5.836-9.027c0,0-4.513,57.1,0,65.326s6.5,39.034,6.5,39.034l-15.267,1.727s-1.6-20.85-5.18-28.281-5.536-32.982-5.536-32.982-3.228-37.12-2.693-53.053,5.18-50.191,5.18-50.191S429.654,244.745,426.163,234.893Z" transform="translate(337.208 2656.398)" fill="#417ba0"/>
    <path id="Path_1162" data-name="Path 1162" d="M511.524,248.361,527.9,242.3s-20.85-22.839-23.458-10.171Z" transform="translate(212.588 2656.77)" opacity="0.1"/>
    <path id="Path_1163" data-name="Path 1163" d="M511.524,247.511,527.9,241.45s-20.85-22.839-23.458-10.171Z" transform="translate(212.588 2656.822)" fill="#e1e7ef"/>
    <path id="Path_1164" data-name="Path 1164" d="M511.524,247.511,527.9,241.45s-20.85-22.839-23.458-10.171Z" transform="translate(212.588 2656.822)" fill="#89faff"/>
    <path id="Path_1165" data-name="Path 1165" d="M522,228.119a.938.938,0,0,0-.676.15Z" transform="translate(202.651 2656.781)" opacity="0.1"/>
    <path id="Path_1166" data-name="Path 1166" d="M589.156,226.429l-43.444,9.383s-11.954,2.655-20.587,32.663,11.823,66.771,11.823,66.771l4.513-3.838-2.261,87.63s20.052,7.563,26.423.938,5.7-37.739,5.7-37.739,6.109-57.35,9.965-66.781,1.877-77.4,1.877-77.4S586.717,225.9,589.156,226.429Z" transform="translate(133.914 2656.885)" fill="#417ba0"/>
    <path id="Path_1167" data-name="Path 1167" d="M573.592,285.914c.61.563,1.323,27.08-1.332,47.263a257.581,257.581,0,0,1-7.507,36.379l3.941-80.855S571.734,284.188,573.592,285.914Z" transform="translate(109.731 2653.24)" opacity="0.1"/>
    <path id="Path_1168" data-name="Path 1168" d="M563.836,261.6c-1.06.666-5.714,11.682-3.584,16.2S563.836,261.6,563.836,261.6Z" transform="translate(124.798 2654.716)" opacity="0.1"/>
    <path id="Path_1171" data-name="Path 1171" d="M638.42,715.66l1.37,25.973,8.736-2.186,1.839-10.8Z" transform="translate(-64.834 2645.608)" fill="#32cfd9"/>
    <path id="Path_1173" data-name="Path 1173" d="M758.074,756.258l-13.324,2.759-9.881-8.726V725.7l-.225-3.359v-.1h0v-.713L732.8,694.188s-13.334-45.5-15.407-54.235c-1.464-6.193-.854-24.884-.366-35.215.2-4.232.366-7.066.366-7.066l29.416-7.122.619,22.614,2.149,79.232a43.907,43.907,0,0,0,3.012,14.741l.1.272a64.484,64.484,0,0,1,4.269,20.756l.995,25.194v.694Z" transform="translate(-216.55 2634.427)" fill="#efceb2"/>
    <path id="Path_1174" data-name="Path 1174" d="M741.45,730.149v.694h0v-.713Z" transform="translate(-223.356 2625.818)" opacity="0.1"/>
    <path id="Path_1175" data-name="Path 1175" d="M739.685,766.62l-13.324,2.759-9.881-8.727V758.56a2.815,2.815,0,0,0,1.417,2.252l.141.084a26.555,26.555,0,0,0,14.957,2.956l5.2-.441a4.87,4.87,0,0,1,1.379.338v.694Z" transform="translate(-198.161 2624.065)" opacity="0.1"/>
    <path id="Path_1176" data-name="Path 1176" d="M715.777,759.862l-.141-.075a2.815,2.815,0,0,1-1.436-2.439l-.216-26.47s-2.871-2.055-2.177,7.253,1.145,23.214,1.145,23.214.113,15.163,14.591,15.163c0,0,14.478,2.759,14.366-5.517s-5.977-8.614-5.977-8.614l-5.2.45A26.49,26.49,0,0,1,715.777,759.862Z" transform="translate(-195.9 2625.784)" fill="#38e6f1"/>
    <path id="Path_1177" data-name="Path 1177" d="M681.264,751.2c-.338,5.977-17.922,2.524-17.922,2.524l-11.832-22.97s-9.881-7.591-4.936-14.253a10.64,10.64,0,0,0,.723-1.135l.047-.056h0c.1-.169.2-.347.291-.535h0c3.547-7.037,1.8-18.579,1.8-18.579s-4.588-33.555-6.2-42.4c-1.135-6.249-.666-26.752-.291-38.218.15-4.767.291-7.966.291-7.966l29.191-7.816V608.5c.066,7.2.291,17.265,1.032,23.815,1.257,11.138-3.218,48.023-3.218,48.023L668.69,713.9a31.087,31.087,0,0,0,3.753,16.336c3.66,6.7,8.445,16.139,8.773,20.315a4.1,4.1,0,0,1,.047.647Z" transform="translate(-70.342 2633.857)" fill="#efceb2"/>
    <path id="Path_1178" data-name="Path 1178" d="M678.587,758.795c-.338,5.977-17.922,2.524-17.922,2.524l-11.832-22.97s-9.881-7.591-4.936-14.253a10.624,10.624,0,0,0,.723-1.135c.159,3.481,3.978,12.2,3.978,12.2s9.768,19.545,12.874,24.021,16.6-.835,17.106-1.023a4.117,4.117,0,0,1,.009.638Z" transform="translate(-67.664 2626.26)" opacity="0.1"/>
    <path id="Path_1179" data-name="Path 1179" d="M637.595,722.3s-5.78-1.342-4.054,13.709h0a9.692,9.692,0,0,0,4.57,8.6c4.138,2.6,10.519,8.192,13.746,19.067h0a10.4,10.4,0,0,0,8.023,10.134c5.217,1.22,11.72,2.289,15.482,1.239,7.009-1.952,3.9-6.775,3.9-6.775l-8.041-9.543s-14.019,5.517-17.115,1.032-12.874-24.012-12.874-24.012S635.878,723.565,637.595,722.3Z" transform="translate(-60.302 2626.303)" fill="#38e6f1"/>
    <path id="Path_1180" data-name="Path 1180" d="M757.6,593.52l.619,22.614c-7.835-.76-13.446-1.82-14.4-3.312-2.074-3.209-9.6-4.56-16-5.114.2-4.232.366-7.066.366-7.066Z" transform="translate(-227.339 2634.244)" opacity="0.1"/>
    <path id="Path_1181" data-name="Path 1181" d="M681.422,611.428a10.734,10.734,0,0,0-3.218-3.885c-3.1-1.717-2.759,11.035-2.759,11.035s-10.322.094-23.5-.075c.15-4.767.291-7.976.291-7.976l29.191-7.807S681.366,606.342,681.422,611.428Z" transform="translate(-79.339 2633.677)" opacity="0.1"/>
    <path id="Path_1182" data-name="Path 1182" d="M759.953,601.216s-3.453-9.383-6.568-11.054-2.759,11.025-2.759,11.025-75.835.694-79.626-5.17-25.851-5.517-25.851-5.517.685-73.077,2.411-100.645,4.476-52.743,11.372-60.325c4.457-4.907,10.8-20.784,14.722-31.368,2.13-5.78,3.547-9.993,3.547-9.993l72.382,4.129.591,5.865,7.685,76.867s1.032,84.8,4.138,104.1S759.953,601.216,759.953,601.216Z" transform="translate(-154.538 2646.91)" fill="#417ba0"/>
    <g id="Group_57" data-name="Group 57" transform="translate(490.751 3035.079)" opacity="0.1">
      <path id="Path_1183" data-name="Path 1183" d="M694.453,596.018C690.7,590.163,668.6,590.5,668.6,590.5s.685-73.077,2.411-100.645,4.476-52.743,11.373-60.325c4.476-4.926,10.8-20.784,14.722-31.368,1.792-4.861,3.078-8.6,3.434-9.674l-5.63-.319s-1.417,4.213-3.556,9.993c-3.922,10.584-10.256,26.461-14.713,31.368-6.9,7.582-9.656,32.747-11.373,60.325S662.85,590.5,662.85,590.5s22.06-.338,25.86,5.517c3.237,5,59.039,5.236,75.235,5.189C743.161,601.16,697.38,600.541,694.453,596.018Z" transform="translate(-662.85 -388.17)"/>
      <path id="Path_1184" data-name="Path 1184" d="M647.68,603.429c-1.4-.779-2.092,1.379-2.44,4a54.116,54.116,0,0,1,3.256,7.056s2-1.079,2.815-6.568C650.166,605.953,648.9,604.1,647.68,603.429Z" transform="translate(-533.692 -401.436)"/>
    </g>
    <path id="Path_1185" data-name="Path 1185" d="M682.985,199.058c5.011,6.831-.056,16.543,5.32,23.186,1.774,2.2,4.5,3.753,6.352,5.911,3.425,4,3.294,9.43,1.614,14.122s-4.692,8.97-6.831,13.549c-.938,1.98-1.633,4.2-.694,6.174.657,1.37,2.017,2.411,3.078,3.594,3.453,3.857,3.547,9.214,1.689,13.756s-5.4,8.445-8.9,12.292c-1.379,1.511-3.125,3.181-5.423,3.134a7.506,7.506,0,0,1-3.406-1.117,34.718,34.718,0,0,1-15.8-45.312c2.909-6.972,7.76-13.653,7.807-21.018,0-5.846-3-11.429-3.537-17.246-.647-7.075,3.537-18.307,12.076-21.394C675.76,193.231,680.442,195.549,682.985,199.058Z" transform="translate(-99.94 2659.213)" fill="#5a6194"/>
    <path id="Path_1187" data-name="Path 1187" d="M672.85,464.55c10.031.526,19.47,4.842,28.253,9.721s17.284,10.406,26.733,13.868" transform="translate(-145.373 2642.199)" opacity="0.1"/>
    <path id="Path_1188" data-name="Path 1188" d="M674.63,489.74a41.352,41.352,0,0,1,26.038,12.667c2.44,2.58,4.542,5.47,7.084,7.948a31.471,31.471,0,0,0,13.962,7.91" transform="translate(-140.922 2640.645)" opacity="0.1"/>
    <path id="Path_1189" data-name="Path 1189" d="M666.49,508.91a45.527,45.527,0,0,1,20.943,12.63c1.539,1.661,2.937,3.434,4.476,5.1,8.3,8.914,20.033,13.643,31.359,18.119" transform="translate(-134.837 2639.462)" opacity="0.1"/>
    <path id="Path_1190" data-name="Path 1190" d="M690.495,243.028a205.9,205.9,0,0,1-2.064,23.946c-.938,5.63-2.252,10.7-4.138,12.939-5.517,6.568,26.883,15.342,26.883,15.342l19.132-14.826s-15.163-13.962-8.1-27.577S690.495,243.028,690.495,243.028Z" transform="translate(-157.988 2655.891)" fill="#efceb2"/>
    <path id="Path_1191" data-name="Path 1191" d="M735.31,398.163H658.79c2.13-5.78,3.547-9.993,3.547-9.993l72.382,4.129Z" transform="translate(-139.654 2646.909)" opacity="0.1"/>
    <path id="Path_1192" data-name="Path 1192" d="M761.939,389.634H680.126c2.3-8.229,0-15.839-3.275-21.694a47.945,47.945,0,0,0-8.567-11.11l-.563-.516-28.563-6.324-1.539-.338s-.235-51.936,18.157-59.067,29.416-16.768,29.416-16.768l25.269,7.807,18.616-9.383c5.977,6.428,21.835,3.9,21.835,3.9,25.964,2.984,25.964,22.52,25.964,22.52s-15.163,35.384-16.318,35.384S761.939,389.634,761.939,389.634Z" transform="translate(-161.357 2654.059)" fill="#89faff"/>
    <path id="Path_1193" data-name="Path 1193" d="M659.81,361.492s16.683-3.7,22.36-10.162" transform="translate(-87.472 2649.181)" opacity="0.1"/>
    <path id="Path_1194" data-name="Path 1194" d="M763.085,341.51l19.348,15.858a32.981,32.981,0,0,1-.638,3.753l-.563-.516-28.563-6.324Z" transform="translate(-274.868 2649.787)" opacity="0.1"/>
    <path id="Path_1195" data-name="Path 1195" d="M742.57,389.99s-4.232,2.383-10.716,5.517H720.735c2.3-8.229,0-15.839-3.275-21.694l19.6-6.343C730.39,373.672,742.57,389.99,742.57,389.99Z" transform="translate(-201.965 2648.186)" opacity="0.1"/>
    <path id="Path_1196" data-name="Path 1196" d="M624.6,293.76l11.485,6.2,11.26,28.5s11.72,31.246,10.575,39.522c0,0,4.129,19.536-3.218,22.98l-19.142,8.67a1.783,1.783,0,0,1-2.3-2.458c2.731-5.17,5.733-13.258.938-17.706l5.517-11.485L619.78,335.346l-6.662-11.26Z" transform="translate(-20.568 2652.732)" fill="#89faff"/>
    <path id="Path_1197" data-name="Path 1197" d="M725.113,354.69c-.995,4.054-4.354,10.322-15.473,12.658l-12.2,9.993-12.977,5.883-5.292,2.393-2.243-16.2,5.1-2.815,5.94-3.247s13.4-24.274,34.615-14.075A4.692,4.692,0,0,1,725.113,354.69Z" transform="translate(-146.629 2649.463)" opacity="0.1"/>
    <path id="Path_1198" data-name="Path 1198" d="M725.865,353.223c-.995,4.063-4.344,10.322-15.464,12.658l-12.2,9.993-12.987,5.883-5.283,2.393-2.243-16.2,5.1-2.815,5.893-3.218s13.409-24.274,34.624-14.028a4.692,4.692,0,0,1,2.562,5.339Z" transform="translate(-148.075 2649.55)" fill="#efceb2"/>
    <ellipse id="Ellipse_143" data-name="Ellipse 143" cx="29.642" cy="29.642" rx="29.642" ry="29.642" transform="translate(524.24 2860.654)" opacity="0.1"/>
    <ellipse id="Ellipse_144" data-name="Ellipse 144" cx="29.642" cy="29.642" rx="29.642" ry="29.642" transform="translate(524.24 2859.969)" fill="#efceb2"/>
    <path id="Path_1199" data-name="Path 1199" d="M728.811,298.649l8.914-17.321s-13.043-5.273-13.99-11.382-12.5,7.159-10,11.56S728.811,298.649,728.811,298.649Z" transform="translate(-193.292 2654.299)" opacity="0.1"/>
    <path id="Path_1200" data-name="Path 1200" d="M728.811,297.18l8.914-17.321s-13.043-5.273-13.99-11.382-12.5,7.169-10,11.56S728.811,297.18,728.811,297.18Z" transform="translate(-193.292 2654.389)" fill="#89faff"/>
    <path id="Path_1201" data-name="Path 1201" d="M656.5,346.437,607.25,412.654s18.157,9.881,43.163-7.807l10.8-12.874L692.046,340Z" transform="translate(-48.029 2649.88)" fill="#38e6f1"/>
    <path id="Path_1202" data-name="Path 1202" d="M673.38,384.109l-4.485-.122s-27.4-26.592-34.127-13.137,17.068,26.029,17.068,26.029l7.235,3.9,9.43,2.815,6.033-8.1Z" transform="translate(-55.214 2648.212)" fill="#efceb2"/>
    <path id="Path_1203" data-name="Path 1203" d="M627.45,399.41c-.413,1.529-.807,3.218-.113,4.635a1.877,1.877,0,0,0,.816.891,2.092,2.092,0,0,0,.938.131,9.43,9.43,0,0,0,6.184-3.059,28.237,28.237,0,0,0,4.007-5.8c1.22-2.13,2.487-4.485,2.055-6.906-.488-2.637-2.815-4.466-5.1-5.949-4.541-3-4.692.5-5.686,4.363S628.491,395.507,627.45,399.41Z" transform="translate(-15.899 2647.276)" opacity="0.1"/>
    <path id="Path_1204" data-name="Path 1204" d="M626.714,399.41c-.4,1.529-.807,3.218-.113,4.635a1.876,1.876,0,0,0,.816.891,2.111,2.111,0,0,0,.938.131,9.383,9.383,0,0,0,6.184-3.059,27.919,27.919,0,0,0,4.016-5.8c1.22-2.13,2.487-4.485,2.046-6.906-.479-2.637-2.815-4.466-5.086-5.949-4.551-3-4.692.5-5.7,4.363S627.765,395.507,626.714,399.41Z" transform="translate(-14.478 2647.276)" fill="#89faff"/>
    <path id="Path_1205" data-name="Path 1205" d="M626.139,317.685l-2.289-3.875,2,7.2Z" transform="translate(-26.937 2670.393)" opacity="0.1"/>
    <path id="Path_1206" data-name="Path 1206" d="M728.715,383.057l-5.283,2.393-2.243-16.2,5.1-2.815C722.766,370.465,725.844,377.924,728.715,383.057Z" transform="translate(-191.611 2648.25)" opacity="0.1"/>
    <path id="Path_1207" data-name="Path 1207" d="M717.89,363.863s17.059,1.042,24.3-3.613" transform="translate(-201.992 2648.631)" opacity="0.1"/>
    <path id="Path_1211" data-name="Path 1211" d="M731.886,340l-11.26,13.793-2.3,37.458s-2.984,19.067,18.841,14.469,47.085-18.8,47.085-18.8-12.2-16.317-5.517-22.52l-31.256,10.115s-5.283-1.154-1.145-5.743,4.87-12.874,4.87-12.874Z" transform="translate(-244.335 2649.88)" fill="#89faff"/>
    <path id="Path_1212" data-name="Path 1212" d="M785.622,382.17l-6.2,7.122a8.942,8.942,0,0,0,6.2-7.122Z" transform="translate(-303.156 2647.279)" opacity="0.1"/>
    <path id="Path_1213" data-name="Path 1213" d="M746.645,360.8l-9.655,12.4,4.823,1.154Z" transform="translate(-253.605 2667.495)" opacity="0.1"/>
    <path id="Path_1214" data-name="Path 1214" d="M790.777,215.95c1.06-2.6.244-5.63-1.032-8.079s-3.031-4.767-3.988-7.4c-1.417-3.922-.985-8.36-2.533-12.2-2.731-6.8-10.49-9.843-17.443-12.2-2.055-.685-4.241-1.37-6.343-.863-2.815.666-4.645,3.218-6.944,4.936-9.44,7.037-24.79-.713-33.92,6.737-3.49,2.815-5.189,7.422-5.714,11.9s0,9.017.056,13.531c.15,7.9-1.332,16.543-7.244,21.779-1.783,1.576-3.885,2.759-5.63,4.391s-3.115,3.913-2.815,6.277a21.765,21.765,0,0,0,.938,3.19c1.173,4.119-.582,8.445-2.721,12.2-6.381,11.044-17.631,20.146-30.383,20.4.854,6.437,7.507,10.171,13.465,12.808,7.507,3.369,15.5,6.671,23.768,6.249s16.89-5.714,18.335-13.859c.5-2.815.432-6.2,2.815-7.666,1.464-.891,3.359-.666,4.936-1.332,2.28-.938,3.406-3.5,4.157-5.855a52.7,52.7,0,0,0,2.449-15.013c.1-6.043-.694-12.639,2.731-17.612,3.172-4.607,8.8-6.944,12.461-11.175,3.378-3.922,7.047-8.651,12.583-9.383C770.415,216.626,786.254,227.032,790.777,215.95Z" transform="translate(-201.492 2660.055)" opacity="0.1"/>
    <path id="Path_1215" data-name="Path 1215" d="M790.749,214.48c1.06-2.6.244-5.63-1.032-8.079s-3.031-4.767-3.988-7.4c-1.417-3.922-.985-8.36-2.533-12.2-2.731-6.812-10.49-9.852-17.443-12.2-2.055-.685-4.241-1.37-6.343-.863-2.815.666-4.645,3.218-6.944,4.936-9.44,7.037-24.791-.713-33.92,6.737-3.491,2.815-5.189,7.422-5.714,11.907s0,9.008.056,13.521c.15,7.9-1.332,16.543-7.244,21.778-1.783,1.576-3.885,2.759-5.63,4.391s-3.115,3.913-2.815,6.277a21.754,21.754,0,0,0,.938,3.19c1.173,4.119-.582,8.445-2.721,12.2-6.4,11.007-17.6,20.136-30.355,20.39.854,6.437,7.507,10.171,13.465,12.818,7.507,3.359,15.5,6.662,23.768,6.24s16.89-5.714,18.335-13.859c.5-2.815.432-6.2,2.815-7.666,1.464-.891,3.359-.666,4.935-1.332,2.28-.938,3.406-3.5,4.157-5.855a52.639,52.639,0,0,0,2.449-15.013c.1-6.043-.694-12.639,2.731-17.612,3.172-4.607,8.8-6.944,12.461-11.175,3.378-3.922,7.047-8.651,12.583-9.383C770.387,215.156,786.226,225.581,790.749,214.48Z" transform="translate(-201.464 2660.145)" fill="#5a6194"/>
    <path id="Path_1216" data-name="Path 1216" d="M698.761,296.557l-16.993-13.793s11.635-6.306,13.024-11.682,10.7,2.552,9.749,7.375S698.761,296.557,698.761,296.557Z" transform="translate(-130.514 2654.242)" opacity="0.1"/>
    <path id="Path_1217" data-name="Path 1217" d="M699.531,294.348l-16.993-13.784s11.635-6.306,12.968-11.682,10.7,2.552,9.749,7.375S699.531,294.348,699.531,294.348Z" transform="translate(-131.95 2654.377)" fill="#89faff"/>
    <ellipse id="Ellipse_145" data-name="Ellipse 145" cx="1.351" cy="1.351" rx="1.351" ry="1.351" transform="translate(548.57 2945.131)" opacity="0.1"/>
    <ellipse id="Ellipse_146" data-name="Ellipse 146" cx="1.351" cy="1.351" rx="1.351" ry="1.351" transform="translate(548.57 2952.638)" opacity="0.1"/>
    <ellipse id="Ellipse_147" data-name="Ellipse 147" cx="1.351" cy="1.351" rx="1.351" ry="1.351" transform="translate(548.57 2960.135)" opacity="0.1"/>
    <path id="Path_1221" data-name="Path 1221" d="M825.107,669.763c-7.4,21.29,1.239,55.849,5.255,71.313s5.245,33.949,5.245,33.949c15.736,2.468,27.155-.619,27.155-.619l-6.484-31.781c4.635-18.823,0-69.126,0-69.126s10.49-19.442,11.419-49.065c.938-29.154,8.1-38.584,8.323-38.875h0c14.807,7.713,33.63,90.417,33.63,90.417-1.539,20.052.319,50.913,6.484,67.559a83.511,83.511,0,0,1,4.626,33.01c2.158,1.877,5.161,2.139,8.445,1.614,8.811-1.426,19.376-9.017,19.376-9.017s-3.387-90.079-5.865-93.495,0-22.839,0-22.839l-4.007-31.471s.619-53.391-5.245-62.643c-5.067-7.995-6.23-22.051-6.456-25.738v-.938l-8.933-10.7s-86.4-6.484-92.894,0c-1.586,1.586-2.571,5.208-3.153,9.759-1.783,14,.263,36.829.263,36.829s2.59,16.974,6.3,34.249a75.179,75.179,0,0,1,0,31.481A94.235,94.235,0,0,1,825.107,669.763Z" transform="translate(-505.413 2638.875)" fill="#417ba0"/>
    <path id="Path_1222" data-name="Path 1222" d="M914.105,821.4c3.857,5.1,26.536,2.937,30.4,1.351,2.355-.938,2.177-5.414,1.539-9.984-.4-2.9-.995-5.865-1.239-8.023-.61-5.555,1.877-16.824,1.877-16.824s-5.086,5.4-6.315,0c-.544-2.365-2.44-3.575-4.41-4.185a11.522,11.522,0,0,0-8.013.5c-4.007,1.745-10.687,5.452-9.5,10.462,1.7,7.084-4.316,17.143-4.316,17.143a7.8,7.8,0,0,0-1.126,1.933A7.4,7.4,0,0,0,914.105,821.4Z" transform="translate(-589.006 2622.543)" fill="#38e6f1"/>
    <path id="Path_1223" data-name="Path 1223" d="M914.362,823.343c3.857,5.095,26.536,2.937,30.4,1.351,2.355-.938,2.177-5.414,1.539-9.984-2.44,1.145-6.568,2.093-13.484,1.454a37.991,37.991,0,0,0-4.851-.15,112.876,112.876,0,0,1-14.732-.3A7.4,7.4,0,0,0,914.362,823.343Z" transform="translate(-589.263 2620.602)" opacity="0.1"/>
    <path id="Path_1224" data-name="Path 1224" d="M875.495,679.955c-1.539,20.052.319,50.913,6.484,67.559a83.511,83.511,0,0,1,4.626,33.01c2.158,1.877,5.161,2.139,8.445,1.614-1.877-13.015-9.8-69.089-14.872-113.4-5.789-50.454-32.841-85.162-32.841-85.162l-5.4,5.94C856.672,597.251,875.495,679.955,875.495,679.955Z" transform="translate(-471.248 2634.857)" opacity="0.1"/>
    <path id="Path_1225" data-name="Path 1225" d="M870.239,338.216l3.753,18.513,18.457,31.012L915.2,378.02s30.965-32.4,11.494-37.026a17.227,17.227,0,0,1-6.456-2.871c-3.819-2.881-5.02-7.066-5.039-11.166a34.23,34.23,0,0,1,3.134-13.268l-39.8-12.5a63.893,63.893,0,0,1,2.815,16.12c.31,10.847-3.753,16.186-7.028,18.766A11.954,11.954,0,0,1,870.239,338.216Z" transform="translate(-535.878 2652.274)" fill="#efceb2"/>
    <path id="Path_1226" data-name="Path 1226" d="M886,301.19a63.888,63.888,0,0,1,2.815,16.12,30.285,30.285,0,0,0,2.318,2.468,31.49,31.49,0,0,0,31.471,7.178,34.229,34.229,0,0,1,3.162-13.268Z" transform="translate(-543.307 2652.274)" opacity="0.1"/>
    <path id="Path_1227" data-name="Path 1227" d="M866.15,293.691a31.331,31.331,0,1,0,9.178-22.3A31.481,31.481,0,0,0,866.15,293.691Z" transform="translate(-528.027 2654.677)" fill="#efceb2"/>
    <path id="Path_1228" data-name="Path 1228" d="M870.239,340.508l3.753,18.513,18.457,31.012,22.754-9.721s30.965-32.4,11.494-37.026a17.228,17.228,0,0,1-6.456-2.871c3.509,9.646-10.978,29.717-10.978,29.717-1.689,2.487-5.555.938-5.555.938-9.336-1.417-26.517-28.262-29.323-32.729A11.954,11.954,0,0,1,870.239,340.508Z" transform="translate(-535.878 2649.982)" opacity="0.1"/>
    <path id="Path_1229" data-name="Path 1229" d="M844.33,531.1c5.48,1.248,35.8,7.957,47.292,6.277,12.649-1.877,37.242-3.078,37.242-3.078s15.661.845,20.484-1.361V532l-8.933-10.7s-86.4-6.484-92.894,0C845.9,522.924,844.912,526.546,844.33,531.1Z" transform="translate(-527.788 2638.876)" opacity="0.1"/>
    <path id="Path_1230" data-name="Path 1230" d="M898.08,371.078s16.28-22.52,10.143-31.34l27.5,11.26s16.552-2.008,22.52,22.7a42.987,42.987,0,0,1,1.023,12.536c-.225,3.753.281,10.322,4.532,18.766,6.784,13.578,5.245,44.749-8.642,47.854s-18.813,1.539-18.813,1.539,1.877,56.468,9.871,62.952-20.455,4.936-20.455,4.936-24.594,1.239-37.251,3.087-48.136-6.484-48.136-6.484,5.245-23.758,7.1-38.875,6.183-47.32,6.183-47.32l-31.471-42.637s-5.555-25.766,13.887-37.186,26.752-14.216,26.752-14.216S882.364,370.459,892.544,372C892.526,372,896.391,373.556,898.08,371.078Z" transform="translate(-524.685 2649.964)" fill="#89faff"/>
    <path id="Path_1231" data-name="Path 1231" d="M861.78,382.74s.3,10.19-1.548,14.2-8.642,26.273-8.642,26.273h15.435s-8.332-8.952-7.722-13.277S861.78,382.74,861.78,382.74Z" transform="translate(-452.279 2647.244)" opacity="0.1"/>
    <path id="Path_1232" data-name="Path 1232" d="M857.587,461.787s34.08-8.332,37.251-15.426,11.926-22.98,11.926-22.98l-3.594-4.842L886.6,431.545s-19.7,15.736-29.013,17.284S857.587,461.787,857.587,461.787Z" transform="translate(-493.763 2645.036)" fill="#efceb2"/>
    <path id="Path_1234" data-name="Path 1234" d="M871.65,421.866v18.485h2.965a86.408,86.408,0,0,1,41.977,10.874l5.558,3.079,1.492.835,9.571-21.581-8.952-8.023h-.46c-2.186.216-11.654,1-15.67-.347-3.81-1.295-8.539-5.4-19.761-2.533-5.527,1.417-10.256,7.61-15.614,5.677Z" transform="translate(-537.289 2644.844)" fill="#efceb2"/>
    <path id="Path_1235" data-name="Path 1235" d="M903.555,384.621l-6.165,6.944v16.824s5.245,53.072,21.9,58.936,46.41-3.4,46.41-3.4,7.685-20.362,4.091-21.581-31.762-8.67-31.762-8.67.394-31.134-5.771-40.395c0,0,4.007-29-9.88-29.623S903.555,384.621,903.555,384.621Z" transform="translate(-598.976 2648.422)" opacity="0.1"/>
    <path id="Path_1236" data-name="Path 1236" d="M904.569,384.621l-6.174,6.944v16.824s5.245,53.072,21.91,58.936,46.409-3.4,46.409-3.4,7.685-20.362,4.082-21.581-31.762-8.67-31.762-8.67.4-31.134-5.771-40.395c0,0,4.016-29-9.871-29.623S904.569,384.621,904.569,384.621Z" transform="translate(-600.929 2648.422)" fill="#89faff"/>
    <path id="Path_1237" data-name="Path 1237" d="M881.741,307.046a12.4,12.4,0,0,1,.7-6.015c.873-1.877,2.909-3.293,4.9-2.815,2.637.619,3.753,4.054,6.362,4.879,2.186.694,4.57-.854,5.63-2.89s1.07-4.429,1.07-6.718v-7.732c0-2.815.094-5.836,1.82-8.041,2.149-2.74,7.206-3.941,10.584-3.828a8.98,8.98,0,0,1,6.043,2.43c1.8,1.539,3.894,2.665,6.353,2.261a5.47,5.47,0,0,0,4.429-3.828v-.094a31.471,31.471,0,1,0-46.785,41.774,84.829,84.829,0,0,1-1.107-9.383Z" transform="translate(-534.985 2654.685)" opacity="0.1"/>
    <path id="Path_1238" data-name="Path 1238" d="M932.744,276.412a5.518,5.518,0,0,0,4.438-3.838c.253-.995.188-2.055.479-3.04.723-2.43,3.312-3.688,5.048-5.536,3.472-3.688,3.247-9.749.788-14.187-1.989-3.575-5.836-6.568-9.871-5.893-2.5.432-4.692,2.205-7.187,2.374s-4.692-1.21-6.878-2.224a25.916,25.916,0,0,0-17.1-1.52,9.852,9.852,0,0,0-4.692,2.374,41.034,41.034,0,0,0-2.505,3.519c-2.871,3.66-8.023,4.382-12.611,5.208s-9.777,2.646-11.26,7.056c-1,2.928,0,6.1.544,9.139a2.759,2.759,0,0,1-.122,1.877c-.722,1.182-2.515.685-3.866.938-2.6.554-3.265,3.9-3.369,6.568q-.159,4.56-.244,9.13a11.631,11.631,0,0,0,.272,3.378,11.926,11.926,0,0,0,2.618,4.251l10.19,12.245c4.523,5.424,9.318,11.748,8.445,18.766,2.139.938,4.692-.891,5.386-3.134s.141-4.692-.338-6.953a85.238,85.238,0,0,1-1.633-12.057,12.368,12.368,0,0,1,.7-6.005c.873-1.877,2.909-3.294,4.9-2.815,2.646.619,3.753,4.054,6.362,4.879,2.186.694,4.57-.854,5.63-2.89s1.07-4.42,1.07-6.709v-7.741c0-2.815.094-5.836,1.82-8.041,2.149-2.74,7.206-3.941,10.584-3.828a8.98,8.98,0,0,1,6.033,2.43C928.193,275.68,930.285,276.815,932.744,276.412Z" transform="translate(-542.525 2655.94)" fill="#5a6194"/>
    <path id="Path_1239" data-name="Path 1239" d="M896.637,381.92l-9.665,39.7S879.354,421.574,896.637,381.92Z" transform="translate(-513.522 2647.295)" opacity="0.1"/>
    <path id="Path_1240" data-name="Path 1240" d="M911.052,374.85S923.7,395.568,918.765,417l-2.355.169S920.614,407.25,911.052,374.85Z" transform="translate(-560.956 2647.731)" opacity="0.1"/>
    <path id="Path_1241" data-name="Path 1241" d="M945.665,499.748s-15.539-5.142-16.665,6.784C928.963,506.532,931.89,498.359,945.665,499.748Z" transform="translate(-603.554 2640.096)" opacity="0.1"/>
    <path id="Path_1242" data-name="Path 1242" d="M855.348,426.81s3.087,21.581-2.468,30.242c0,0,11.26,4.626,27.155,3.706l1.877-33.949Z" transform="translate(-468.375 2644.526)" opacity="0.1"/>
    <path id="Path_1243" data-name="Path 1243" d="M871.65,454.559l1.492.835,9.571-21.581-8.952-8.023h-.46C873.442,426.86,875.938,445.41,871.65,454.559Z" transform="translate(-486.789 2644.589)" opacity="0.1"/>
    <path id="Path_1244" data-name="Path 1244" d="M845.838,425.83s3.087,21.581-2.468,30.233c0,0,11.26,4.635,27.155,3.706l10.8-33.939Z" transform="translate(-458.866 2644.586)" fill="#89faff"/>
    <path id="Path_1245" data-name="Path 1245" d="M774.813,808.214a6.991,6.991,0,0,0,6,6.118c8.379,1.248,28.563,4.438,33.658,6.869,6.484,3.087,32.091.938,33.329-2.158a4.9,4.9,0,0,0-.441-3.753,9.89,9.89,0,0,0-4.138-4.448,10.97,10.97,0,0,0-1.877-.826c-4.823-1.6-13.934-5.02-16.392-8.6,0,0-11.363-9.937-14.6-15.3a7.413,7.413,0,0,0-5.93-3.7c-2.7-.122-5.714,1.239-6.953,7.159,0,0-14.8,8.445-18.766,1.042,0,0-.619,11.372-3.078,14.488h0A4.128,4.128,0,0,0,774.813,808.214Z" transform="translate(-361.154 2622.595)" fill="#38e6f1"/>
    <path id="Path_1246" data-name="Path 1246" d="M774.815,809.705a6.991,6.991,0,0,0,6,6.118c8.379,1.248,28.563,4.438,33.658,6.869,6.484,3.087,32.091.938,33.329-2.158a4.9,4.9,0,0,0-.441-3.753,9.89,9.89,0,0,0-4.138-4.447c-4.176,2.815-13.446,5.48-33.836,2.3-19.451-3.04-29.088-6.015-33.78-8.042h0a4.129,4.129,0,0,0-.788,3.115Z" transform="translate(-361.157 2621.103)" opacity="0.1"/>
    <path id="Path_1251" data-name="Path 1251" d="M827.609,789.36s-3.228,5.63-14.919.675" transform="translate(-376.362 2622.165)" opacity="0.1"/>
    <path id="Path_1252" data-name="Path 1252" d="M940.782,790.82S930.7,802.69,918,794.714" transform="translate(-588.35 2622.075)" opacity="0.1"/>
    <path id="Path_1253" data-name="Path 1253" d="M941.42,641.23s7.122,4.448,7.347,6.991-3.678-1.877-3.678-1.877Z" transform="translate(-618.319 2631.302)" opacity="0.1"/>
    <path id="Path_1254" data-name="Path 1254" d="M938.634,677.59a14.891,14.891,0,0,0,8.773,3.425c5.33.234,4.879,7.178,1.4,5.1S938.634,677.59,938.634,677.59Z" transform="translate(-618.348 2629.059)" opacity="0.1"/>
    <path id="Path_1255" data-name="Path 1255" d="M947.1,682.34s3.416,16.787,6.193,13.549" transform="translate(-628.166 2628.766)" opacity="0.1"/>
    <path id="Path_1305" data-name="Path 1305" d="M518.443,844.637h0c.375,5.2,1.379,13.54,1.379,13.54s4.176.507,10.631,1.089l4.382.375c3.359.272,7.131.535,11.119.76,7.366.4,15.454.657,23.083.469,3.81-.084,7.507-.281,10.932-.619,1.529-.15,3.012-.328,4.42-.535,8.745-1.3,15.013-3.8,15.548-8.182a25.332,25.332,0,0,0,.2-5.63c-.816-9.852-8.839-7.863-8.839-7.863.516-2.721-1.426-11.175-3-17.293-.995-3.856-1.877-6.784-1.877-6.784L530,810.21h-.188a2.759,2.759,0,0,0-2.759,2.9c.338,6.765.816,22.257-1.952,22.6-3.547.441-6.352,3.247-6.784,5.02A21.058,21.058,0,0,0,518.443,844.637Z" transform="translate(127.291 2620.879)" fill="#417ba0"/>
    <path id="Path_1306" data-name="Path 1306" d="M508.854,766.07s21.272,25.607,31.518,18.513c.244-.169.479-.338.7-.516,6.887-5.217,8.7-13.625,9.177-17.894.206-1.877.507-3.688.835-5.517,1.417-7.966-.751-15.548-1.877-18.682h0c-.338-.938-.572-1.511-.572-1.511C541.555,738.493,508.854,766.07,508.854,766.07Z" transform="translate(184.791 2625.188)" fill="#417ba0"/>
    <path id="Path_1307" data-name="Path 1307" d="M508.8,768.541s6.7,4.692,16.149,12.4a34.134,34.134,0,0,0,4.692,3.228c6.887-5.217,8.7-13.624,9.177-17.894.207-1.877.507-3.688.835-5.517,1.417-7.966-.751-15.548-1.877-18.682h0C524.531,743,508.8,768.541,508.8,768.541Z" transform="translate(196.27 2625.082)" fill="#efceb2"/>
    <path id="Path_1309" data-name="Path 1309" d="M516.668,766.662s3.575,2.524,8.623,6.625A18.16,18.16,0,0,0,527.768,775c3.669-2.815,4.692-7.272,4.9-9.543.1-.995.263-1.97.441-2.956a20.51,20.51,0,0,0-1.041-9.965h0C525.057,753.028,516.668,766.662,516.668,766.662Z" transform="translate(195.697 2624.436)" opacity="0.1"/>
    <path id="Path_1310" data-name="Path 1310" d="M611.744,766.07s-21.272,25.607-31.518,18.513c-.235-.169-.479-.338-.7-.516-6.887-5.217-8.7-13.625-9.177-17.894-.206-1.877-.507-3.688-.826-5.517-1.426-7.966.751-15.548,1.877-18.682h0c.338-.938.582-1.511.582-1.511C579.043,738.493,611.744,766.07,611.744,766.07Z" transform="translate(68.117 2625.188)" fill="#417ba0"/>
    <path id="Path_1311" data-name="Path 1311" d="M612.494,768.541s-6.709,4.692-16.158,12.4a34.107,34.107,0,0,1-4.645,3.228c-6.887-5.217-8.7-13.624-9.177-17.894-.206-1.877-.507-3.688-.826-5.517-1.426-7.966.751-15.548,1.877-18.682h0C596.749,743,612.494,768.541,612.494,768.541Z" transform="translate(55.947 2625.082)" fill="#efceb2"/>
    <path id="Path_1313" data-name="Path 1313" d="M605.613,766.646s-3.556,2.515-8.567,6.568a17.187,17.187,0,0,1-2.468,1.708c-3.65-2.768-4.617-7.225-4.87-9.486-.1-.938-.263-1.961-.441-2.937a20.55,20.55,0,0,1,.985-9.909h0C597.271,753.1,605.613,766.646,605.613,766.646Z" transform="translate(55.482 2624.433)" opacity="0.1"/>
    <path id="Path_1314" data-name="Path 1314" d="M531,810.23a50.952,50.952,0,0,0,8.145,10.378c8.445,7.507,44.908,4.523,47.273,4.138.5-.084,1.529-1.558,2.815-3.95-.995-3.856-1.877-6.784-1.877-6.784Z" transform="translate(126.332 2620.878)" opacity="0.1"/>
    <path id="Path_1315" data-name="Path 1315" d="M559.114,765.446c1.483.1,2.965.141,4.457.113,7.61-.131,33.245.206,36.088,10.556,3.35,12.2-11.626,44.861-13.981,45.255s-38.809,3.35-47.282-4.138-19.5-30.965-18.907-33.095C519.489,784.137,508.98,761.974,559.114,765.446Z" transform="translate(127.08 2623.663)" fill="#417ba0"/>
    <path id="Path_1316" data-name="Path 1316" d="M529.6,786.539s18.766-2.89,27.568,15.576a22.52,22.52,0,0,1-1.661,22.7c-2.928,4.119-7.225,7.188-13.2,4.692C529.022,824.035,529.6,786.539,529.6,786.539Z" transform="translate(157.397 2622.349)" opacity="0.1"/>
    <path id="Path_1317" data-name="Path 1317" d="M528.974,785.279s18.766-2.89,27.568,15.576a22.519,22.519,0,0,1-1.661,22.7c-2.927,4.119-7.225,7.188-13.2,4.692C528.392,822.775,528.974,785.279,528.974,785.279Z" transform="translate(158.618 2622.427)" opacity="0.1"/>
    <path id="Path_1318" data-name="Path 1318" d="M528.974,785.909s18.766-2.89,27.568,15.576a22.519,22.519,0,0,1-1.661,22.7c-2.927,4.119-7.225,7.187-13.2,4.692C528.392,823.4,528.974,785.909,528.974,785.909Z" transform="translate(158.618 2622.388)" fill="#efceb2"/>
    <path id="Path_1320" data-name="Path 1320" d="M537.32,803.13s2.562,2.365,1.576,2.956S537.32,803.13,537.32,803.13Z" transform="translate(170.513 2621.316)" fill="#3a6f90"/>
    <path id="Path_1321" data-name="Path 1321" d="M542.552,806.35s1.4,3.087.4,3.425-1.586-2.215-1.586-2.215Z" transform="translate(162.522 2621.117)" fill="#3a6f90"/>
    <path id="Path_1322" data-name="Path 1322" d="M535.55,811.32s1.37,3.641,0,3.641S535.55,811.32,535.55,811.32Z" transform="translate(175.707 2620.811)" fill="#3a6f90"/>
    <path id="Path_1323" data-name="Path 1323" d="M543.651,821.71s-2.74,7-9.871,6.5" transform="translate(169.305 2620.17)" fill="#3a6f90" stroke="#417ba0" stroke-miterlimit="10" stroke-width="1"/>
    <path id="Path_1324" data-name="Path 1324" d="M546.512,823.91s-2.815,2.759-5.9.788" transform="translate(160.035 2620.034)" fill="#3a6f90" stroke="#417ba0" stroke-miterlimit="10" stroke-width="1"/>
    <path id="Path_1325" data-name="Path 1325" d="M593.871,786.539s-18.767-2.89-27.568,15.576a22.52,22.52,0,0,0,1.661,22.7c2.918,4.119,7.225,7.188,13.2,4.692C594.49,824.035,593.871,786.539,593.871,786.539Z" transform="translate(90.728 2622.349)" opacity="0.1"/>
    <path id="Path_1326" data-name="Path 1326" d="M594.462,785.279s-18.766-2.89-27.568,15.576a22.52,22.52,0,0,0,1.661,22.7c2.918,4.119,7.225,7.188,13.2,4.692C595.016,822.775,594.462,785.279,594.462,785.279Z" transform="translate(89.583 2622.427)" opacity="0.1"/>
    <path id="Path_1327" data-name="Path 1327" d="M594.462,785.909s-18.766-2.89-27.568,15.576a22.519,22.519,0,0,0,1.661,22.7c2.918,4.119,7.225,7.187,13.2,4.692C595.016,823.4,594.462,785.909,594.462,785.909Z" transform="translate(89.583 2622.388)" fill="#efceb2"/>
    <path id="Path_1329" data-name="Path 1329" d="M587.962,803.13s-2.562,2.365-1.576,2.956S587.962,803.13,587.962,803.13Z" transform="translate(75.844 2621.316)" fill="#3a6f90"/>
    <path id="Path_1330" data-name="Path 1330" d="M582.721,806.35s-1.4,3.087-.4,3.425,1.586-2.215,1.586-2.215Z" transform="translate(83.844 2621.117)" fill="#3a6f90"/>
    <path id="Path_1331" data-name="Path 1331" d="M589.78,811.32s-1.361,3.641,0,3.641S589.78,811.32,589.78,811.32Z" transform="translate(70.592 2620.811)" fill="#3a6f90"/>
    <path id="Path_1332" data-name="Path 1332" d="M581.1,821.71s2.74,7,9.871,6.5" transform="translate(77.583 2620.17)" fill="#3a6f90" stroke="#417ba0" stroke-miterlimit="10" stroke-width="1"/>
    <path id="Path_1333" data-name="Path 1333" d="M578.5,823.91s2.815,2.759,5.911.788" transform="translate(86.582 2620.034)" fill="#3a6f90" stroke="#417ba0" stroke-miterlimit="10" stroke-width="1"/>
    <path id="Path_1334" data-name="Path 1334" d="M572.7,842.788c-.5-.094-9.852-4.138-19.5,0Z" transform="translate(122.035 2618.985)" fill="#3a6f90" stroke="#3a6f90" stroke-width="1"/>
    <path id="Path_1335" data-name="Path 1335" d="M518.328,862c8.745-1.3,15.013-3.8,15.548-8.182a25.336,25.336,0,0,0,.2-5.63,12.632,12.632,0,0,0-3.34-1.22c-1.586-.441-3.547-.141-7.685,1.042s-3.838,6.052-4.692,12.4A5.244,5.244,0,0,0,518.328,862Z" transform="translate(193.351 2618.625)" opacity="0.1"/>
    <path id="Path_1336" data-name="Path 1336" d="M526.252,847.618s11.372,2.083,5.217,11.9a4.2,4.2,0,0,1-2.1,1.736c-.723.253-1.417.253-1.342-.779L523,866.234s-10.04,1.182-9.158-5.17.591-11.26,4.692-12.4S524.647,847.177,526.252,847.618Z" transform="translate(198.423 2618.584)" fill="#417ba0"/>
    <path id="Path_1337" data-name="Path 1337" d="M529.941,854.67s-2.411,5.508-5.761.882" transform="translate(192.023 2618.137)" fill="#3a6f90" stroke="#3a6f90" stroke-miterlimit="10" stroke-width="1"/>
    <path id="Path_1338" data-name="Path 1338" d="M524.257,857s-1.248,5.217-5.977,1.332" transform="translate(203.242 2617.993)" fill="#3a6f90" stroke="#3a6f90" stroke-miterlimit="10" stroke-width="1"/>
    <path id="Path_1339" data-name="Path 1339" d="M592.591,846.894h0c.375,5.2,1.379,13.54,1.379,13.54s4.176.507,10.631,1.088a5.459,5.459,0,0,0,0-1.088c-.882-6.352-.591-11.26-4.692-12.4C596.063,846.988,594.1,846.6,592.591,846.894Z" transform="translate(53.143 2618.623)" opacity="0.1"/>
    <path id="Path_1340" data-name="Path 1340" d="M600.293,847.618s-11.382,2.083-5.226,11.9a4.232,4.232,0,0,0,2.1,1.736c.722.253,1.426.253,1.351-.779l5.02,5.761s10.049,1.182,9.158-5.17-.591-11.26-4.692-12.4S601.869,847.177,600.293,847.618Z" transform="translate(44.409 2618.584)" fill="#417ba0"/>
    <path id="Path_1341" data-name="Path 1341" d="M597.5,854.67s2.421,5.508,5.761.882" transform="translate(49.904 2618.137)" fill="#3a6f90" stroke="#3a6f90" stroke-miterlimit="10" stroke-width="1"/>
    <path id="Path_1342" data-name="Path 1342" d="M603.16,857s1.257,5.217,5.987,1.332" transform="translate(38.708 2617.993)" fill="#3a6f90" stroke="#3a6f90" stroke-miterlimit="10" stroke-width="1"/>
    <path id="Path_1343" data-name="Path 1343" d="M535.895,862.8c3.81-.084,7.507-.282,10.931-.619l3.406-11.466a7.439,7.439,0,0,0,.31-2.092,7.3,7.3,0,0,0-14.591-.047C535.914,853.045,535.876,858.7,535.895,862.8Z" transform="translate(160.433 2618.945)" opacity="0.1"/>
    <path id="Path_1344" data-name="Path 1344" d="M548.579,850.7l-4.016,13.531s6.831-.15,4.964,4.138c0,0-1.717,1.623-2.308,1.032,0,0,.891,2.815-2.655,2.815,0,0-3.828,2.074-5.311.591s-4.588-3.7-4.889-4.579c-.188-.582-.131-11.9-.066-19.7a7.281,7.281,0,0,1,7.291-7.225h0a7.291,7.291,0,0,1,6.991,9.4Z" transform="translate(162.678 2618.961)" fill="#417ba0"/>
    <path id="Path_1345" data-name="Path 1345" d="M539.38,869.47s2.984,2.815,1.407,4.476" transform="translate(166.453 2617.225)" fill="none" stroke="#3a6f90" stroke-miterlimit="10" stroke-width="1"/>
    <path id="Path_1346" data-name="Path 1346" d="M537.06,867.56s2.759.938,2.759,3.462" transform="translate(170.059 2617.342)" fill="none" stroke="#3a6f90" stroke-miterlimit="10" stroke-width="1"/>
    <path id="Path_1347" data-name="Path 1347" d="M576.2,848.609a7.417,7.417,0,0,0,.3,2.093l3.181,10.856c3.359.272,7.131.535,11.119.76,0-4.054,0-9.449-.066-13.756a7.291,7.291,0,0,0-14.582.047Z" transform="translate(82.402 2618.962)" opacity="0.1"/>
    <path id="Path_1348" data-name="Path 1348" d="M578,850.7l4.016,13.531s-6.84-.15-4.973,4.138c0,0,1.717,1.623,2.308,1.032,0,0-.882,2.815,2.665,2.815,0,0,3.828,2.074,5.311.591s4.579-3.7,4.879-4.579c.188-.582.131-11.9.066-19.7a7.281,7.281,0,0,0-7.291-7.225h0A7.291,7.291,0,0,0,578,850.7Z" transform="translate(80.323 2618.961)" fill="#417ba0"/>
    <path id="Path_1349" data-name="Path 1349" d="M588.1,869.47s-2.984,2.815-1.408,4.476" transform="translate(75.643 2617.225)" fill="none" stroke="#3a6f90" stroke-miterlimit="10" stroke-width="1"/>
    <path id="Path_1350" data-name="Path 1350" d="M590.389,867.56s-2.759.938-2.759,3.462" transform="translate(72.038 2617.342)" fill="none" stroke="#3a6f90" stroke-miterlimit="10" stroke-width="1"/>
    <path id="Path_1351" data-name="Path 1351" d="M560.783,782.77s13.9-.441,14.338,10.322-21.713,6.2-21.713,6.2-9.308-1.248-7.685-7.788S550.734,783.361,560.783,782.77Z" transform="translate(126.8 2622.572)" opacity="0.1"/>
    <path id="Path_1352" data-name="Path 1352" d="M560.783,781.51s13.9-.441,14.338,10.322-21.713,6.2-21.713,6.2-9.308-1.248-7.685-7.788S550.734,782.1,560.783,781.51Z" transform="translate(126.8 2622.649)" opacity="0.1"/>
    <path id="Path_1353" data-name="Path 1353" d="M560.783,782.14s13.9-.441,14.338,10.322-21.713,6.2-21.713,6.2-9.308-1.248-7.685-7.788S550.734,782.731,560.783,782.14Z" transform="translate(126.8 2622.611)" fill="#1a597e"/>
    <path id="Path_1354" data-name="Path 1354" d="M533.41,839.92s-4.692,1.67-5.63,4.87" transform="translate(185.176 2619.047)" opacity="0.1"/>
    <path id="Path_1355" data-name="Path 1355" d="M594.967,837.4s3.331,1.4,3.1,7.234" transform="translate(57.466 2619.202)" opacity="0.1"/>
  </g>
</svg>
