<svg xmlns="http://www.w3.org/2000/svg" xmlns:xlink="http://www.w3.org/1999/xlink" width="652.878" height="759" viewBox="0 0 652.878 759">
  <defs>
    <linearGradient id="linear-gradient" x1="-0.198" y1="0.487" x2="0.823" y2="0.531" gradientUnits="objectBoundingBox">
      <stop offset="0" stop-color="#f9a7a7"/>
      <stop offset="1" stop-color="#ffd7d7"/>
    </linearGradient>
    <linearGradient id="linear-gradient-2" x1="-5.044" y1="2.232" x2="1.624" y2="2.232" gradientUnits="objectBoundingBox">
      <stop offset="0" stop-color="#5cb2ff"/>
      <stop offset="1" stop-color="#182687"/>
    </linearGradient>
    <linearGradient id="linear-gradient-3" x1="-0.211" y1="0.471" x2="0.789" y2="0.504" xlink:href="#linear-gradient"/>
    <linearGradient id="linear-gradient-4" x1="-0.214" y1="0.471" x2="0.843" y2="0.51" xlink:href="#linear-gradient"/>
    <linearGradient id="linear-gradient-5" x1="-0.001" y1="0.51" x2="0.906" y2="0.51" xlink:href="#linear-gradient"/>
    <linearGradient id="linear-gradient-6" x1="-111.555" y1="-54.295" x2="-122.336" y2="14.795" gradientUnits="objectBoundingBox">
      <stop offset="0" stop-color="#ffd580"/>
      <stop offset="0.988" stop-color="#f69797"/>
      <stop offset="1" stop-color="#f69797"/>
    </linearGradient>
    <linearGradient id="linear-gradient-7" x1="-69.756" y1="13.088" x2="-72.046" y2="91.351" xlink:href="#linear-gradient-6"/>
    <linearGradient id="linear-gradient-8" x1="8.468" y1="-15.305" x2="-42.559" y2="-15.135" xlink:href="#linear-gradient-6"/>
    <linearGradient id="linear-gradient-9" x1="39.756" y1="-10.499" x2="8.332" y2="-10.41" xlink:href="#linear-gradient-6"/>
    <linearGradient id="linear-gradient-10" x1="3.45" y1="-31.142" x2="5.1" y2="-9.616" xlink:href="#linear-gradient-6"/>
    <linearGradient id="linear-gradient-11" x1="42.067" y1="78.035" x2="39.585" y2="-24.284" xlink:href="#linear-gradient-6"/>
    <linearGradient id="linear-gradient-12" x1="-145.483" y1="-76.367" x2="-159.907" y2="7.687" xlink:href="#linear-gradient-6"/>
    <linearGradient id="linear-gradient-13" x1="-23.695" y1="-96.31" x2="-33.058" y2="-26.08" gradientUnits="objectBoundingBox">
      <stop offset="0" stop-color="#fff"/>
      <stop offset="1" stop-color="#f4f0ef"/>
    </linearGradient>
    <linearGradient id="linear-gradient-14" x1="0.192" y1="0.446" x2="0.799" y2="0.493" xlink:href="#linear-gradient"/>
    <linearGradient id="linear-gradient-15" x1="0.024" y1="0.547" x2="0.749" y2="0.595" xlink:href="#linear-gradient"/>
  </defs>
  <g id="Layer_x0020_1" transform="translate(-903.795 -490.017)">
    <g id="_1706628029648" transform="translate(903.795 490.017)">
      <path id="Path_6801" data-name="Path 6801" d="M2927.01,556.954,3111.5,666.305a20.672,20.672,0,0,1,10.271,17.867v377.647a11.429,11.429,0,0,1-17.182,9.877l-181.9-107.842a17.994,17.994,0,0,1-8.935-15.548V564.576a8.82,8.82,0,0,1,13.259-7.622Z" transform="translate(-2613.466 -545.922)" fill="#a16db7"/>
      <path id="Path_6802" data-name="Path 6802" d="M3064.5,1097.278h0a11.222,11.222,0,0,1-5.673-1.554h0l-181.9-107.847h0a17.859,17.859,0,0,1-8.876-15.436V588.707a8.555,8.555,0,0,1,2.655-6.254,8.791,8.791,0,0,1,6.056-2.453,8.642,8.642,0,0,1,4.363,1.192h0L3065.61,690.547h0a20.555,20.555,0,0,1,10.208,17.761v377.645a11.146,11.146,0,0,1-3.448,8.138,11.45,11.45,0,0,1-7.873,3.187h0ZM2945.352,948.309v5.97l112.563,64.811v-5.97l-112.563-64.811Zm0-17.232v5.973l112.563,64.809v-5.97l-112.563-64.811Zm0-17.227v5.97l112.563,65.031v-5.97l-112.563-65.03Zm0-41.013v5.97l112.563,64.811v-5.97Zm0-17.23v5.973l112.563,64.811v-5.973l-112.563-64.811Zm0-17.23v5.973l112.563,65.029v-5.97l-112.563-65.03h0Zm0-41.013v5.971l112.563,64.811v-5.97l-112.563-64.812Zm0-17.23v5.97l112.563,64.811v-5.971l-112.563-64.811h0Zm0-17.23v5.971l112.563,65.03v-5.97L2945.352,762.9h0Zm0-41.015v5.972l112.563,64.811V786.7Zm0-17.23v5.971l112.563,64.811v-5.971l-112.563-64.811Zm0-17.23V693.4l112.563,65.03v-5.971Zm-64.225-106.235Z" transform="translate(-2574.593 -566.557)" fill="#fff" fill-rule="evenodd"/>
      <path id="Path_6803" data-name="Path 6803" d="M3383.112,1107.7l-82.444-49.886a6.7,6.7,0,0,1-3.108-4.987c0-1.708,1.4-2.256,3.108-1.227l82.444,49.889a6.7,6.7,0,0,1,3.1,4.984C3386.217,1108.186,3384.818,1108.737,3383.112,1107.7Z" transform="translate(-2939.934 -967.262)" fill="#702b85" fill-rule="evenodd"/>
      <path id="Path_6804" data-name="Path 6804" d="M3498.025,1370.073l-112.565-65.03v-5.973l112.565,65.03Z" transform="translate(-3014.702 -1178.198)" fill="#d0b8db" fill-rule="evenodd"/>
      <path id="Path_6805" data-name="Path 6805" d="M3498.025,1485.184l-112.565-64.812V1414.4l112.565,64.812Z" transform="translate(-3014.702 -1276.298)" fill="#d0b8db" fill-rule="evenodd"/>
      <path id="Path_6806" data-name="Path 6806" d="M3498.025,1600.513,3385.46,1535.7v-5.971l112.565,64.811Z" transform="translate(-3014.702 -1374.398)" fill="#a0d568" fill-rule="evenodd"/>
      <path id="Path_6807" data-name="Path 6807" d="M3078.708,1135.006v35.645l-32.7-18.954V1115.92Z" transform="translate(-2725.966 -1022.411)" fill="#a0d568"/>
      <path id="Path_6808" data-name="Path 6808" d="M3073.06,1213.843l4.646,20.254,21.684-8.26v-5.77L3081.1,1226.9l-4.17-14.876Z" transform="translate(-2748.974 -1104.153)" fill="#fff"/>
      <path id="Path_6809" data-name="Path 6809" d="M3498.025,1875.261,3385.46,1810.23v-5.97l112.565,65.03Z" transform="translate(-3014.702 -1607.914)" fill="#ffce54" fill-rule="evenodd"/>
      <path id="Path_6810" data-name="Path 6810" d="M3498.025,1990.363l-112.565-64.811v-5.971l112.565,64.811Z" transform="translate(-3014.702 -1706.005)" fill="#d0b8db" fill-rule="evenodd"/>
      <path id="Path_6811" data-name="Path 6811" d="M3498.025,2105.692l-112.565-64.811v-5.971l112.565,64.812Z" transform="translate(-3014.702 -1804.105)" fill="#d0b8db" fill-rule="evenodd"/>
      <path id="Path_6812" data-name="Path 6812" d="M3078.708,1640.17v35.642l-32.7-18.953v-35.78Z" transform="translate(-2725.966 -1452.1)" fill="#ffce54"/>
      <path id="Path_6813" data-name="Path 6813" d="M3073.06,1719.009l4.646,20.25,21.684-8.26v-5.768l-18.288,6.829-4.17-14.879Z" transform="translate(-2748.974 -1533.843)" fill="#fff"/>
      <path id="Path_6814" data-name="Path 6814" d="M3498.025,2380.432,3385.46,2315.4v-5.973l112.565,65.032Z" transform="translate(-3014.702 -2037.611)" fill="#d0b8db" fill-rule="evenodd"/>
      <path id="Path_6815" data-name="Path 6815" d="M3078.708,2145.35v35.642l-32.7-18.952v-35.78Z" transform="translate(-2725.966 -1881.807)" fill="#ed5564"/>
      <path id="Path_6816" data-name="Path 6816" d="M3073.06,2224.179l4.646,20.253,21.684-8.262V2230.4l-18.288,6.829-4.17-14.88Z" transform="translate(-2748.974 -1963.541)" fill="#fff"/>
      <path id="Path_6817" data-name="Path 6817" d="M3032.512,1775.29s.889-7.725,4.087-12.452a42.632,42.632,0,0,1,6.227-7.4s3.913-1.321,1.955,3.878l-1.955,5.2s10.669-5.8,13.159-11.081,8.806,4.537,1.6,16.022-15.441,15.648-15.441,15.648-2.52-7.038-9.634-9.811h0Z" transform="translate(-2714.483 -1563.433)" fill="#ffbdbd"/>
      <path id="Path_6818" data-name="Path 6818" d="M1885.479,535.943l76.679-45.165a5.528,5.528,0,0,1,8.313,4.776v64.17a9.406,9.406,0,0,1-4.668,8.124l-79.7,46.928a5.312,5.312,0,0,1-7.987-4.589V548.762a14.833,14.833,0,0,1,7.367-12.819h0Z" transform="translate(-1732.548 -490.017)" fill="#4b1e59"/>
      <path id="Path_6819" data-name="Path 6819" d="M1988.518,500.924l-76.679,45.165a14.833,14.833,0,0,0-7.369,12.818V620.33a5.312,5.312,0,0,0,7.987,4.59l8.862-5.219v29.816l25.988-45.114,44.85-26.411a9.416,9.416,0,0,0,4.672-8.13v-64.17a5.528,5.528,0,0,0-8.313-4.77h0Z" transform="translate(-1754.97 -498.646)" fill="#a16db7" fill-rule="evenodd"/>
      <path id="Path_6820" data-name="Path 6820" d="M2162.767,650.267,2117.2,676.7c-1.13.65-2.052.264-2.052-.868v-.556a4.252,4.252,0,0,1,2.052-3.232l45.565-26.438c1.129-.65,2.05-.257,2.05.874v.556a4.26,4.26,0,0,1-2.05,3.232h0Z" transform="translate(-1934.175 -622.093)" fill="#feffff"/>
      <path id="Path_6821" data-name="Path 6821" d="M2087.812,721.564l-58.732,34.188c-1.126.65-2.05.257-2.05-.868v-.562a4.269,4.269,0,0,1,2.05-3.232l58.732-34.188c1.129-.65,2.05-.257,2.05.866v.562a4.262,4.262,0,0,1-2.05,3.232Z" transform="translate(-1859.22 -682.739)" fill="#feffff"/>
      <path id="Path_6822" data-name="Path 6822" d="M2087.812,792.873l-58.732,34.188c-1.126.65-2.05.257-2.05-.866v-.562a4.269,4.269,0,0,1,2.05-3.232l58.732-34.188c1.129-.65,2.05-.257,2.05.868v.562a4.262,4.262,0,0,1-2.05,3.231Z" transform="translate(-1859.22 -743.396)" fill="#feffff"/>
      <path id="Path_6823" data-name="Path 6823" d="M2070.488,944.562,2029.071,968.8c-1.126.65-2.051.257-2.051-.867v-.562a4.271,4.271,0,0,1,2.051-3.231l41.416-24.242c1.127-.65,2.052-.257,2.052.867v.562A4.27,4.27,0,0,1,2070.488,944.562Z" transform="translate(-1859.211 -872.423)" fill="#feffff"/>
      <path id="Path_6824" data-name="Path 6824" d="M1996.51,1302.136v26.136l3.1,1.854V1300.31Z" transform="translate(-1833.259 -1179.253)" fill="#051833"/>
      <path id="Path_6825" data-name="Path 6825" d="M1182.613,3206.986h-.063a3.494,3.494,0,0,1,.066.613c.029,5.384-10.071,9.75-22.579,9.75s-22.649-4.366-22.677-9.75a3.676,3.676,0,0,1,.06-.613h-.063l-.1-19.2c4.966,3.088,13.273,5.12,22.654,5.12s17.668-2.032,22.6-5.12l.1,19.2h0Z" transform="translate(-1102.38 -2784.745)" fill="#a16db7" fill-rule="evenodd"/>
      <path id="Path_6826" data-name="Path 6826" d="M1167.82,3137.986h-.072a3.952,3.952,0,0,1,.075.695c.031,6.12-11.44,11.074-25.649,11.074s-25.728-4.954-25.759-11.074a4.182,4.182,0,0,1,.067-.695h-.072l-.111-21.806c5.641,3.506,15.077,5.813,25.734,5.813s20.069-2.308,25.674-5.813l.11,21.806h0Z" transform="translate(-1084.552 -2723.834)" fill="#d0b8db" fill-rule="evenodd"/>
      <path id="Path_6827" data-name="Path 6827" d="M1142.184,3148.733c-10.657,0-20.093-2.308-25.734-5.812l.018,3.458c5.642,3.5,15.076,5.813,25.733,5.813s20.07-2.31,25.676-5.813l-.018-3.458c-5.605,3.5-15.019,5.813-25.674,5.813Z" transform="translate(-1084.68 -2746.58)" fill="#a16db7" fill-rule="evenodd"/>
      <path id="Path_6828" data-name="Path 6828" d="M1142.424,3197.744c-10.657,0-20.093-2.31-25.734-5.813l.017,3.459c5.641,3.5,15.077,5.813,25.734,5.813s20.069-2.309,25.674-5.813l-.018-3.459c-5.606,3.5-15.018,5.813-25.674,5.813Z" transform="translate(-1084.884 -2788.268)" fill="#a16db7" fill-rule="evenodd"/>
      <path id="Path_6829" data-name="Path 6829" d="M1142.683,3246.754c-10.657,0-20.094-2.31-25.733-5.813l.016,3.457c5.641,3.5,15.077,5.815,25.734,5.815s20.07-2.308,25.674-5.815l-.018-3.457c-5.606,3.5-15.019,5.813-25.674,5.813Z" transform="translate(-1085.105 -2829.955)" fill="#a16db7" fill-rule="evenodd"/>
      <path id="Path_6830" data-name="Path 6830" d="M1991.614,3639.474c-33.044,14.384-57.286,35.04-54.144,46.139s32.475,8.434,65.519-5.949,57.285-35.04,54.143-46.139S2024.658,3625.09,1991.614,3639.474Z" transform="translate(-1782.807 -3158.059)" fill="rgba(208,184,219,0.28)" fill-rule="evenodd"/>
      <path id="Path_6831" data-name="Path 6831" d="M3498.025,2495.544l-112.565-64.811v-5.973l112.565,64.811Z" transform="translate(-3014.702 -2135.712)" fill="#d0b8db" fill-rule="evenodd"/>
      <path id="Path_6832" data-name="Path 6832" d="M3498.025,2610.873l-112.565-64.81v-5.972l112.565,64.812Z" transform="translate(-3014.702 -2233.811)" fill="#ed5564" fill-rule="evenodd"/>
      <path id="Path_6833" data-name="Path 6833" d="M3498.025,2885.612l-112.565-65.031v-5.97l112.565,65.03Z" transform="translate(-3014.702 -2467.319)" fill="#d0b8db" fill-rule="evenodd"/>
      <path id="Path_6834" data-name="Path 6834" d="M3498.025,3000.713,3385.46,2935.9v-5.973l112.565,64.812Z" transform="translate(-3014.702 -2565.41)" fill="#d0b8db" fill-rule="evenodd"/>
      <path id="Path_6835" data-name="Path 6835" d="M3498.025,3116.053l-112.565-64.811v-5.971l112.565,64.812Z" transform="translate(-3014.702 -2663.518)" fill="#d0b8db" fill-rule="evenodd"/>
      <path id="Path_6836" data-name="Path 6836" d="M3078.708,2650.53v35.644l-32.7-18.956V2631.44Z" transform="translate(-2725.966 -2311.513)" fill="#d0b8db"/>
      <path id="Path_6837" data-name="Path 6837" d="M3073.06,2729.359l4.646,20.253,21.684-8.263v-5.768l-18.288,6.829-4.17-14.878Z" transform="translate(-2748.974 -2393.249)" fill="#fff"/>
      <path id="Path_6838" data-name="Path 6838" d="M2316.168,3670.019s11.938,14.577,15.566,17.455,8.786,4.149,4.5,6.667-5.676,5.588-12.644,2.775-23.433-12.52-26.317-18.073a8.147,8.147,0,0,1,1.475-9.6l17.417.779Z" transform="translate(-2088.255 -3194.268)" fill="#ed5564" fill-rule="evenodd"/>
      <path id="Path_6839" data-name="Path 6839" d="M2082.108,3809.1s11.938,14.579,15.566,17.455,8.786,4.147,4.5,6.665-5.676,5.59-12.644,2.777-23.433-12.521-26.317-18.074a8.143,8.143,0,0,1,1.475-9.6l17.417.778Z" transform="translate(-1889.163 -3312.57)" fill="#ed5564" fill-rule="evenodd"/>
      <path id="Path_6840" data-name="Path 6840" d="M2030.353,2805.28l-3.449,77.352s-6.116,18.576-8.09,35.291a256.029,256.029,0,0,0-1.478,33.13s-1.071,5.689-8.024,5.379a18.259,18.259,0,0,1-11.271-4.6s-4.212-34.2-4.618-52.662,3.194-25.677,3.194-25.677,2.577-30.211-4.966-44.893a51.773,51.773,0,0,1-5.238-29.03s10.075,10.7,43.943,5.708h0Z" transform="translate(-1824.39 -2454.525)" fill="#4b1e59" fill-rule="evenodd"/>
      <path id="Path_6841" data-name="Path 6841" d="M2241.064,2650.432s9.877,74.265,5.7,85.141-5.676,35.811-6.793,46.828-1.021,22.9-1.021,22.9,1.578,5.809-7.829,5.387-12.815-6.718-12.815-6.718-5.361-26.877-4.258-42.4a109.135,109.135,0,0,1,6.633-29.261l-16.255-67.476,36.633-14.407h0Z" transform="translate(-2010.116 -2327.667)" fill="#431452"/>
      <path id="Path_6842" data-name="Path 6842" d="M1948.747,1943.237s49.415-23.95,57.9-23.04,15.79,29.807,15.488,34.959-2.15,16.675-2.452,25.873,1.82,64.548,1.82,64.548-3.943,11.814-29.408,15.828-43.353-13.845-43.353-13.845,6.816-45.187,4.016-62.93-10.99-41.389-4.016-41.391h0Z" transform="translate(-1790.298 -1706.508)" fill="#4fc1e8" fill-rule="evenodd"/>
      <path id="Path_6843" data-name="Path 6843" d="M2087.8,2341.286l20.682-66.412-40.289-22.144-20.684,66.416Z" transform="translate(-1876.64 -1989.382)" fill="#ffce54" fill-rule="evenodd"/>
      <path id="Path_6844" data-name="Path 6844" d="M1846.824,2074.538c11.212.373,11.52,13.34,9.094,32.439s-3.992,37.857-3.992,37.857l44.59,23.65a13.476,13.476,0,0,1-.394,7.334c-2.479,8.29-5.2,6.119-5.2,6.119s-59.559-14.024-63.5-26.15,1.213-81.854,19.4-81.248Z" transform="translate(-1688.375 -1837.809)" fill="#4fc1e8" fill-rule="evenodd"/>
      <path id="Path_6845" data-name="Path 6845" d="M2282.069,2688.367s4.167-2.637,7.334-2.637,9.5,2.637,9.5,2.637.4,1.848-4.089,1.848-5.54.659-5.54.659,5.545,3.969,10.685,4.351,5.8,0,6.067,1.451-6.991,6.064-12.8,6.593-13.776-2.58-13.776-2.58,3.989-8.759,2.618-12.323h0Z" transform="translate(-2073.928 -2357.693)" fill="#ffbdbd"/>
      <path id="Path_6846" data-name="Path 6846" d="M986.626,4722.34l-6.7,90.2-2.117,1.077,2.755-91.279Z" transform="translate(-966.752 -4090.035)" fill="#d0b8db" fill-rule="evenodd"/>
      <path id="Path_6847" data-name="Path 6847" d="M1739.8,4859.83c-33.806-12.49-65.6-14.358-71.014-4.174s17.6,28.565,51.407,41.055,65.6,14.358,71.012,4.174-17.6-28.565-51.406-41.055Z" transform="translate(-1553.826 -4197.848)" fill="rgba(208,184,219,0.28)" fill-rule="evenodd"/>
      <path id="Path_6848" data-name="Path 6848" d="M1742.86,4730.571l12.186,80.688-1.5,1.292-14.4-77.531Z" transform="translate(-1614.349 -4097.037)" fill="#d0b8db" fill-rule="evenodd"/>
      <path id="Path_6849" data-name="Path 6849" d="M1318.376,4959.411l-6.7,90.2-2.115,1.075,2.755-91.277Z" transform="translate(-1248.94 -4291.688)" fill="#d0b8db" fill-rule="evenodd"/>
      <path id="Path_6850" data-name="Path 6850" d="M1853.772,4867.715s-2.157,13.7,2.909,15.942,12.083,1.851,14.714-2.045,13.836-7.408,18.418-7.992,15.883-6.431,15.493-9.061-4.677-8.77-10.427-8.77-12.279,5.261-17.635,4.092a29.366,29.366,0,0,1-8.383-3.022s-2.6,10.4-15.088,10.853h0Z" transform="translate(-1711.458 -4203.548)" fill="#ed5564"/>
      <path id="Path_6851" data-name="Path 6851" d="M1779.631,3578.792l-41.424-18.81a3.437,3.437,0,0,0-4.773,2.38l-14.681,65.594a4.2,4.2,0,0,0,2.36,4.737l42.153,19.137a3.457,3.457,0,0,0,4.8-2.394l14.5-64.765a5.21,5.21,0,0,0-2.933-5.882h0Z" transform="translate(-1596.912 -3101.07)" fill="#dec3de" fill-rule="evenodd"/>
      <path id="Path_6852" data-name="Path 6852" d="M1830.9,3952.994l-25.031-11.526a1.417,1.417,0,0,1-.738-1.586.921.921,0,0,1,1.316-.643l25.031,11.523a1.424,1.424,0,0,1,.738,1.591.925.925,0,0,1-1.316.643Z" transform="translate(-1670.442 -3423.846)" fill="#8116af"/>
      <path id="Path_6853" data-name="Path 6853" d="M1412.968,4214.031s50.029-21.536,64.275-18.553-2.65,73.22-1.325,90.448.332,19.879.332,19.879-4.639,6.626-9.94,6.626c-7.568,0-8.945-2.982-8.945-2.982s-3.313-1.989-3.644-24.518.332-30.149.332-30.149-67.476,14-66.538,10.149,25.456-50.9,25.456-50.9h0Z" transform="translate(-1315.239 -3641.644)" fill="#431452"/>
      <path id="Path_6854" data-name="Path 6854" d="M1527.9,3893.459l14.434-7.479s6.225,1.319,8.49,5.281a17.963,17.963,0,0,1,2.293,7.926l-15.5,11.695-9.717-17.423h0Z" transform="translate(-1434.659 -3378.627)" fill="#ed5564" fill-rule="evenodd"/>
      <path id="Path_6855" data-name="Path 6855" d="M2043.549,4974.284s-2.159,13.7,2.909,15.944,12.083,1.851,14.714-2.046,13.836-7.408,18.418-7.991,15.882-6.432,15.492-9.061-4.678-8.771-10.427-8.771-12.277,5.262-17.635,4.093a29.378,29.378,0,0,1-8.384-3.022s-2.6,10.4-15.087,10.854h0Z" transform="translate(-1872.882 -4294.197)" fill="#ed5564"/>
      <path id="Path_6856" data-name="Path 6856" d="M1367.431,4529.28l12.185,80.688-2.117,1.08-16.129-81.767Z" transform="translate(-1293.009 -3925.818)" fill="#d0b8db" fill-rule="evenodd"/>
      <path id="Path_6857" data-name="Path 6857" d="M1369.493,4527.147l-71.769-33.487s-.738,57.046,6.7,60.645,35.78-5.882,35.992-5.581S1369.493,4527.147,1369.493,4527.147Z" transform="translate(-1238.855 -3895.52)" fill="#7ba84c" fill-rule="evenodd"/>
      <path id="Path_6858" data-name="Path 6858" d="M1220.983,4358.5s-9.185,20.309,1.838,27.045,31.773,19.5,44.294,11.022,63.279-41.329,65.322-41.282-.817,6.7,2.245,32.055,5.511,40.049,5.511,40.049,1.635,3.674,9.083,1.633a21.859,21.859,0,0,0,11.328-7.551s-1.428-66.421-.816-79.038-6.735-23.212-19.392-21.079-59.809,21.079-59.809,21.079l-59.606,16.065h0Z" transform="translate(-1170.544 -3748.724)" fill="#4b1e59" fill-rule="evenodd"/>
      <path id="Path_6859" data-name="Path 6859" d="M1155.516,3870.089s-1.635-1.783-5.735,27.256,3.623,31.9,11.189,32.42,19.455-2.352,19.455-2.352l-24.906-57.324Z" transform="translate(-1112.061 -3365.092)" fill="#ed5564" fill-rule="evenodd"/>
      <path id="Path_6860" data-name="Path 6860" d="M1251.164,3853.873s-46.345-22.114-52.5-22.854-18.917-2.715-14.731,25.852,5.664,75.605,5.664,75.605-1.943,11.083,17.991,17.239,42.1-9.357,43.577-12.561,5.879-80.618,0-83.282h0Z" transform="translate(-1141.376 -3331.59)" fill="#ed5564" fill-rule="evenodd"/>
      <path id="Path_6861" data-name="Path 6861" d="M981.4,4218.752l5.755,58.944a11.315,11.315,0,0,0,16.18,9.091l41.264-19.534-16.26,14.023-29.29,17.265a27.017,27.017,0,0,1-23.472-.225l-38.73-19.137a15.828,15.828,0,0,1-8.773-13.014l-12.319-68.3c-.4-5.365,12.219-11.43,17.064-9.092l41.715,20.131a12.251,12.251,0,0,1,6.866,9.844h0Z" transform="translate(-913.962 -3635.746)" fill="#7ba84c" fill-rule="evenodd"/>
      <path id="Path_6862" data-name="Path 6862" d="M965.8,4247.255l5.755,58.944a11.316,11.316,0,0,0,16.18,9.092l49.59-23.949v10.366l-53.878,25.34a27.016,27.016,0,0,1-23.472-.226l-38.73-19.137a15.83,15.83,0,0,1-8.773-13.014l-5.259-70.577a6.987,6.987,0,0,1,10-6.812l41.715,20.131a12.251,12.251,0,0,1,6.866,9.844h0Z" transform="translate(-906.686 -3659.833)" fill="#a0d568" fill-rule="evenodd"/>
      <path id="Path_6863" data-name="Path 6863" d="M1895.208,4017.391s-1.046-5.069-3.767-7.687-2.827-4.29-1.466-5.967a25.157,25.157,0,0,0,2.616-4.4s3.69,1.153,3.572,1.991-2.24-6.875.795-6.248,12.624,8.824,13.252,12.59-4.969,16.9-4.969,16.9-2.6-7.448-10.035-7.18h0Z" transform="translate(-1741.914 -3471.399)" fill-rule="evenodd" fill="url(#linear-gradient)"/>
      <path id="Path_6864" data-name="Path 6864" d="M1570.833,3985.477c-2.6-.642-15.951,2.392-10.7,24.05s18.925,50.39,27.62,48.746,38.886-40.033,38.886-40.033-.82-5.9-5.086-7.71a22,22,0,0,0-9.352-1.312s-18.376,23.669-21.33,21.761-8.57-42.667-20.036-45.5Z" transform="translate(-1461.045 -3463.194)" fill="#ed5564" fill-rule="evenodd"/>
      <path id="Path_6865" data-name="Path 6865" d="M1901.67,3956.465l5.214,13.322a2.069,2.069,0,0,0,2.671,1.18l.292-.113a2.072,2.072,0,0,0,1.125-2.827l-6.321-13.219-2.651-1.657-.332,3.312h0Z" transform="translate(-1752.589 -3435.762)" fill-rule="evenodd" fill="url(#linear-gradient-2)"/>
      <path id="Path_6866" data-name="Path 6866" d="M1903.292,3999.233l3.611-7.3s2.505.215,2.307,2.511-1.524,8.261-1.524,8.261l-4.4-3.47Z" transform="translate(-1753.967 -3468.749)" fill-rule="evenodd" fill="url(#linear-gradient-3)"/>
      <path id="Path_6867" data-name="Path 6867" d="M1872.951,3790.784l-25.031-11.523a1.424,1.424,0,0,1-.738-1.591.924.924,0,0,1,1.316-.644l25.03,11.523a1.425,1.425,0,0,1,.738,1.59.922.922,0,0,1-1.316.642h0Z" transform="translate(-1706.207 -3285.868)" fill="#8116af"/>
      <path id="Path_6868" data-name="Path 6868" d="M1862.434,3831.346l-25.03-11.526a1.419,1.419,0,0,1-.738-1.586.924.924,0,0,1,1.316-.646l25.03,11.526a1.419,1.419,0,0,1,.738,1.587.924.924,0,0,1-1.316.647Z" transform="translate(-1697.262 -3320.371)" fill="#8116af"/>
      <path id="Path_6869" data-name="Path 6869" d="M1851.923,3871.891l-25.03-11.526a1.419,1.419,0,0,1-.738-1.587.922.922,0,0,1,1.316-.644l25.031,11.523a1.423,1.423,0,0,1,.738,1.591.925.925,0,0,1-1.316.643Z" transform="translate(-1688.322 -3354.859)" fill="#8116af"/>
      <path id="Path_6870" data-name="Path 6870" d="M1841.41,3912.438l-25.031-11.523a1.42,1.42,0,0,1-.737-1.591.925.925,0,0,1,1.316-.643l25.03,11.527a1.419,1.419,0,0,1,.738,1.587A.922.922,0,0,1,1841.41,3912.438Z" transform="translate(-1679.378 -3389.349)" fill="#8116af"/>
      <path id="Path_6871" data-name="Path 6871" d="M1364.857,3582.767s1.415,7.926.435,9.615l-.98,1.69s2.827,2.283,2.456,5.338-2.9,19.295-4.476,20.783-8.051,1.577-8.693,2.614-1.012,8.358-1.012,8.358-2.891,4.672-12.712,2.525-11.655-7.279-11.655-7.279l3.051-25.223s1.343-18.576,9.578-20.421,24.007,2,24.007,2h0Z" transform="translate(-1264.811 -3118.587)" fill-rule="evenodd" fill="url(#linear-gradient-4)"/>
      <path id="Path_6872" data-name="Path 6872" d="M1308.991,3513.707s-.335,2.761-5.345,4.332-6.911.563-6.911.563,3.944,4.678,1.715,7.673.008,11.513-3.188,12.212-2.51-4.971-6.512-5.3-2.414,4.53-.406,8.505,2.453,5.441-4.593,5.829-12.419,2.378-15.416-4.982-9.72-12.22-8.3-20.133a13.069,13.069,0,0,1,8.828-9.973s-3.958-11,12.772-11.725,29.24,8.915,27.356,13h0Z" transform="translate(-1206.649 -3050.881)" fill="#4b1e59" fill-rule="evenodd"/>
      <path id="Path_6873" data-name="Path 6873" d="M1652.052,3856.546s9.523-6.729,12.6-6.917,11.484,1.723,11.484,1.723,1.452,1.162-2.91,1.728-6.311,0-6.311,0l-2.455,10.968-6,1.942s-2.166-6.831-6.408-9.442h0Z" transform="translate(-1540.262 -3347.694)" fill-rule="evenodd" fill="url(#linear-gradient-5)"/>
      <path id="Path_6874" data-name="Path 6874" d="M1904.493,3669.158l-25.031-11.526a1.419,1.419,0,0,1-.738-1.587.924.924,0,0,1,1.316-.643l25.031,11.523a1.423,1.423,0,0,1,.738,1.591.923.923,0,0,1-1.316.642Z" transform="translate(-1733.038 -3182.416)" fill="#8116af"/>
      <path id="Path_6875" data-name="Path 6875" d="M1893.965,3709.7l-25.032-11.523a1.423,1.423,0,0,1-.738-1.59.923.923,0,0,1,1.316-.642l25.031,11.526a1.419,1.419,0,0,1,.738,1.586.922.922,0,0,1-1.316.643Z" transform="translate(-1724.081 -3216.903)" fill="#8116af"/>
      <path id="Path_6876" data-name="Path 6876" d="M1883.463,3750.248l-25.03-11.528a1.419,1.419,0,0,1-.738-1.586.922.922,0,0,1,1.316-.643l25.03,11.523a1.425,1.425,0,0,1,.738,1.591A.926.926,0,0,1,1883.463,3750.248Z" transform="translate(-1715.15 -3251.389)" fill="#8116af"/>
      <path id="Path_6877" data-name="Path 6877" d="M1018.037,2346.211A56.9,56.9,0,0,1,992.4,2394.13l.051,9.928h-.09a6.6,6.6,0,0,1,.094.843c.013,2.84-2.026,5.474-5.5,7.654-5.605,3.506-15.019,5.815-25.674,5.815s-20.094-2.309-25.734-5.815c-3.491-2.18-5.558-4.813-5.571-7.654a6.59,6.59,0,0,1,.084-.843h-.088l-.049-9.928a57.569,57.569,0,0,1-26.125-47.918,56.844,56.844,0,0,1,56.833-57.241,57.537,57.537,0,0,1,57.408,57.241Z" transform="translate(-903.795 -2020.208)" fill="#ffce54" fill-rule="evenodd"/>
      <path id="Path_6878" data-name="Path 6878" d="M1141.435,3001.59c.035,6.844-13.9,12.395-31.124,12.395s-31.217-5.551-31.251-12.395,13.9-12.39,31.126-12.39,31.215,5.546,31.25,12.39Z" transform="translate(-1052.875 -2615.825)" fill="#ed5564"/>
      <path id="Path_6879" data-name="Path 6879" d="M1140.748,2499.868c-2.27,1.418-6.729,1.934-11.447,2.019a15.694,15.694,0,0,1,1.379-4.107c2.352-4.211,4.939-6.486,7.35-6.486a3.98,3.98,0,0,1,.593.046,5.016,5.016,0,0,1,3.771,4.08,4.034,4.034,0,0,1-1.646,4.446h0Zm-53.019,0a4.07,4.07,0,0,1-1.69-4.446,4.945,4.945,0,0,1,3.729-4.08,3.961,3.961,0,0,1,.592-.046c2.413,0,5.023,2.274,7.416,6.487a15.774,15.774,0,0,1,1.421,4.107c-4.72-.085-9.185-.6-11.468-2.018h0Zm56.411-4.8a6.746,6.746,0,0,0-5.247-5.495c-1.951-.3-5.813.236-9.775,7.327a18.348,18.348,0,0,0-1.621,5c-4.261-.017-22.24-.017-26.5,0a18.524,18.524,0,0,0-1.672-5c-4.031-7.091-7.9-7.628-9.847-7.327a6.659,6.659,0,0,0-5.192,5.495,5.869,5.869,0,0,0,2.5,6.317c2.637,1.639,7.632,2.2,12.771,2.287,3.6,19.776.4,72.226.36,72.823l1.782.124c.153-2.428,3.212-52.554-.363-72.938,5.165-.025,20.665-.025,25.83,0-3.367,20.384.2,70.51.372,72.938l1.781-.124c-.043-.6-3.778-53.047-.37-72.823,5.138-.08,10.125-.646,12.745-2.287a5.815,5.815,0,0,0,2.44-6.317h0Z" transform="translate(-1057.203 -2190.789)" fill="#fff"/>
      <g id="Group_94" data-name="Group 94" transform="translate(286.984 5.982)">
        <path id="Path_6880" data-name="Path 6880" d="M2879.786,579.674l-.062.108,184.485,109.354v0a20.554,20.554,0,0,1,10.208,17.76v377.645a11.143,11.143,0,0,1-3.448,8.138,11.432,11.432,0,0,1-7.876,3.187,11.216,11.216,0,0,1-5.671-1.554h0l-181.9-107.847h0a17.856,17.856,0,0,1-8.876-15.434V587.3a8.555,8.555,0,0,1,2.653-6.254,8.792,8.792,0,0,1,6.057-2.453,8.641,8.641,0,0,1,4.363,1.192h0l.062-.108.063-.1a8.845,8.845,0,0,0-4.489-1.234,9.056,9.056,0,0,0-6.23,2.52,8.816,8.816,0,0,0-2.729,6.436V971.031a18.112,18.112,0,0,0,9,15.651h0l181.9,107.847h0a11.463,11.463,0,0,0,5.8,1.587,11.69,11.69,0,0,0,8.051-3.257,11.412,11.412,0,0,0,3.523-8.317V706.9a20.8,20.8,0,0,0-10.334-17.974h0L2879.846,579.571h0l-.063.1h0Z" transform="translate(-2860.174 -571.127)" fill="#ac92eb"/>
        <path id="_1" data-name="1" d="M2841.109,544.065l-.083-.049a1.934,1.934,0,0,0-1.121-.269,2.47,2.47,0,0,0-.919.176,2.637,2.637,0,0,0-.833.526l-.024.024a2.333,2.333,0,0,0-.537.777l-.009,0a2.607,2.607,0,0,0-.165.982V929.963a11.51,11.51,0,0,0,5.764,10.061l.048.024,181.9,107.847v0a5.277,5.277,0,0,0,1.22.523,4.929,4.929,0,0,0,1.288.149,5.044,5.044,0,0,0,1.9-.367h.025a5.238,5.238,0,0,0,1.652-1.07,4.952,4.952,0,0,0,1.151-1.637,5.178,5.178,0,0,0,.376-2.026V665.825a14.208,14.208,0,0,0-7.1-12.387l-.046-.028,0,0-.267-.158-2.8-1.628v-.03l-181.42-107.537Zm3.223-5.458h0l.063-.1h0l-.063.1Zm.063-.1a8.846,8.846,0,0,0-4.49-1.234,9.056,9.056,0,0,0-6.23,2.52,8.817,8.817,0,0,0-2.729,6.436V929.963a18.112,18.112,0,0,0,9,15.651h0l181.9,107.847h0a11.463,11.463,0,0,0,5.8,1.587,11.691,11.691,0,0,0,8.051-3.257,11.415,11.415,0,0,0,3.523-8.317V665.828a20.8,20.8,0,0,0-10.334-17.974h0L2844.392,538.5h0Zm-.063.1h0l-.062.108,184.485,109.354h0a20.554,20.554,0,0,1,10.208,17.761v377.645a11.144,11.144,0,0,1-3.448,8.138,11.434,11.434,0,0,1-7.876,3.187,11.217,11.217,0,0,1-5.671-1.554h0L2840.073,945.4h0a17.855,17.855,0,0,1-8.876-15.434V546.231a8.555,8.555,0,0,1,2.653-6.254,8.792,8.792,0,0,1,6.057-2.453,8.639,8.639,0,0,1,4.362,1.192h0l.063-.108Zm5.291-4.228,3.389,1.984-.011.018,179.042,106.124,0,0a27.149,27.149,0,0,1,13.4,23.321v377.645a17.815,17.815,0,0,1-5.444,12.792,18.089,18.089,0,0,1-5.722,3.7,17.218,17.218,0,0,1-11.25.665,18,18,0,0,1-4.293-1.793l0-.009-.055-.015-181.9-107.847v0a24.458,24.458,0,0,1-12.066-21V546.233a15.171,15.171,0,0,1,1.213-5.937l.009,0a15,15,0,0,1,3.429-4.976l.023-.024a15.319,15.319,0,0,1,4.832-3.13,15.147,15.147,0,0,1,5.677-1.118,13.662,13.662,0,0,1,1.74.112l.681-1.1,5.228,3.1,2.066,1.225Z" transform="translate(-2824.719 -530.06)" fill="#ac92eb" fill-rule="evenodd"/>
      </g>
      <path id="Path_6881" data-name="Path 6881" d="M3362.942,739.045c-4.742-2.777-8.588-8.876-8.588-13.619s3.846-6.334,8.588-3.557,8.585,8.876,8.585,13.618-3.843,6.336-8.585,3.557Zm25.461,9.5-8.574-5.027a14.686,14.686,0,0,0,.3-2.988c0-9.493-7.7-21.694-17.188-27.264s-17.193-2.378-17.193,7.122a20.294,20.294,0,0,0,.305,3.339l-8.577-5.027c-8.342-4.891-15.167-2.066-15.167,6.281s6.826,19.168,15.167,24.053l50.926,29.845c8.343,4.891,15.169,2.066,15.169-6.281s-6.826-19.168-15.169-24.053Z" transform="translate(-2960.987 -677.583)" fill="#702b85" fill-rule="evenodd"/>
      <path id="Path_6882" data-name="Path 6882" d="M2335.645,1910.3s53.768,27.981,54.932,27.981,42.153-29.887,42.153-29.887a8.705,8.705,0,0,1,10.248,4.734c3.657,6.866,2.481,7.355,2.481,7.355s-50.416,43.419-57.785,41.479-56.445-24.442-56.445-24.442l4.416-27.22h0Z" transform="translate(-2117.972 -1696.222)" fill="#4fc1e8" fill-rule="evenodd"/>
      <path id="Path_6883" data-name="Path 6883" d="M2138.392,1641.114s2.816,14.8,2.455,20.022-4.334,20.49-7.319,22.585-7.335,1.527-7.335,1.527l.832,1.24s.841,6.527-10.642,8.469-18.772-1.682-18.772-1.682,2.689-10.192,1.249-19.283-2.2-31.912,7.213-36.494,32.319,3.615,32.319,3.615h0Z" transform="translate(-1919.256 -1464.882)" fill="#ffbdbd"/>
      <path id="Path_6884" data-name="Path 6884" d="M2203.339,1921.111s-7.253.506-10.794-3.021-4.615-4.47-4.615-4.47a36.129,36.129,0,0,0,5.633,9.167c3.907,4.66,1.932,7.736,1.932,7.736s8.369-1.177,8.283-6.584c-.057-3.332-.438-2.827-.438-2.827h0Z" transform="translate(-1996.082 -1700.936)" fill="#eaa2a2"/>
      <path id="Path_6885" data-name="Path 6885" d="M2026.086,1568.031s5.222,4.784,1.385,8.967-3.4,11.87-3.4,11.87l-3.067-1.383s.394-8.5-2.942-7.949-5.163,2.3-3.844,7.045-1.457,8.1-5.212,6.944-11.483-15.217-12.669-21.654,5.407-12.975,5.407-12.975,1.617-11.662,8.846-14.112,32.684,5.971,42.471,4.076,9.475,9.493,1.839,13.945-15.174,10.313-28.812,5.226h0Z" transform="translate(-1832.987 -1386.818)" fill="#4b1e59"/>
      <path id="Path_6886" data-name="Path 6886" d="M3340.2,4620.127c-32.608,15.349-56.231,36.709-52.765,47.709s32.709,7.476,65.315-7.872,56.231-36.709,52.765-47.71-32.71-7.477-65.316,7.872h0Z" transform="translate(-2931.038 -3990.948)" fill="rgba(208,184,219,0.28)" fill-rule="evenodd"/>
      <path id="Path_6887" data-name="Path 6887" d="M3727.984,4700.755c-1.215-.2-14.06-.229-17.95-1.326s-10.185,7.177-.878,11.882,16.873,1.6,22.069,4.6,9.633,4.378,14.942,1.1,7.19-5.06,6-7.942-5.746-8.759-5.746-8.759l-18.44.443h0Z" transform="translate(-3285.92 -4070.464)" fill="#ed5564"/>
      <path id="Path_6888" data-name="Path 6888" d="M3815.53,3705.31s6.362,19.358,2.476,32.788-2.941,39.851-2.941,39.851,8.69,19.051,7.259,38.436-2.833,38.412-2.833,38.412-.175,5.042-8.174,4.449-10.267-4.006-10.267-4.006-6.08-54.59-9.181-66.372-.9-41.576-.9-41.576l2.12-28.766s17.5-7.563,22.442-13.216h0Z" transform="translate(-3358.984 -3224.948)" fill="#431452" fill-rule="evenodd"/>
      <path id="Path_6889" data-name="Path 6889" d="M3539.171,3751.649l-1.331,79.144s8.13,26.74,6.977,53.14l-1.153,26.4s-.137,6.526,10.3,4.886,10.745-5.741,10.745-5.741,3.293-27.615,5.537-52.557-1.316-34.1-1.316-34.1,11.8-31.5,15.151-49.49,1.829-24.788,1.829-24.788l-46.739,3.107h0Z" transform="translate(-3144.317 -3261.72)" fill="#4b1e59" fill-rule="evenodd"/>
      <path id="Path_6890" data-name="Path 6890" d="M3405.839,4833.521s-9.33,3.237-17.367.9-19.754,7.276-7.327,11.689,20.364,3.425,26.7,7.561,9.246,4.875,16.677,1.232,6.494-5.112,5.341-10.788a63.233,63.233,0,0,0-3.5-11.062s-8,8.475-20.521.47h0Z" transform="translate(-3006.416 -4184.206)" fill="#ed5564" fill-rule="evenodd"/>
      <path id="Path_6891" data-name="Path 6891" d="M4548.959,4179a4.205,4.205,0,0,1-.184,1.223c-1.652,5.636-14.661,10.019-30.448,10.019s-28.8-4.383-30.455-10.019a4.2,4.2,0,0,1-.183-1.223c0-6.211,13.706-11.245,30.638-11.245C4535.239,4167.75,4548.959,4172.784,4548.959,4179Z" transform="translate(-3952.26 -3618.301)" fill="#c4414e"/>
      <path id="Path_6892" data-name="Path 6892" d="M4520.939,4310.757a50.3,50.3,0,0,1-16.661-2.528,16.3,16.3,0,0,1-5.021-2.731,4.452,4.452,0,0,1-1.809-3.28v-.01l-6.687-44.337a9.152,9.152,0,0,0,2.887,3.05c5.034,3.565,15.015,6,26.587,6.1a17.733,17.733,0,0,1-6.356,7.216c-6.022,4.036,6.071,5.324,16.119,9.7,7.826,3.408,8.456,11.358,8.354,14.7-.182.44-.374.881-.569,1.319l.906.4c.062-.146.129-.294.2-.443,1.349-.594,4.534-2.479,7.041-7.721l-1.511,10.019v.01a4.462,4.462,0,0,1-1.815,3.28c-1.762,1.534-4.744,2.853-8.5,3.783a55.76,55.76,0,0,1-13.165,1.475h0Zm27.528-35.372c-1.877-5.35-7.954-4.349-8.889-10.681.663-.186,1.307-.384,1.924-.587a25.934,25.934,0,0,0,6.721-3.2,9.178,9.178,0,0,0,2.886-3.046l-2.643,17.51Z" transform="translate(-3954.871 -3694.957)" fill="#ed5564" fill-rule="evenodd"/>
      <path id="Path_6893" data-name="Path 6893" d="M4802.887,4095.7c-1.578-2.606-6.707-9.813-15.137-9.813-.331,0-.664.01-1,.032-2.826.188-5.257.335-7.446.335-6.286,0-10.6-1.2-16.64-6.009a5.765,5.765,0,0,0-3.612-1.455c-2.343,0-4.4,1.842-6.537,3.681-.075.06-.143.123-.217.183a18.835,18.835,0,0,1-3.936,2.783,32.218,32.218,0,0,0-7.879-8.582,27.363,27.363,0,0,1,11.5-5.2l.163.467h.005a17.022,17.022,0,0,1,5.137-.715h.005a20.132,20.132,0,0,1,6.518,1.083,22.035,22.035,0,0,1,7.549,4.5,14.375,14.375,0,0,0,3.8,2.544,8.417,8.417,0,0,0,3.4.736h.007a10.092,10.092,0,0,0,3.313-.615c1.572-.55,3.042-1.353,4.545-2a11.687,11.687,0,0,1,4.683-1.153h0a8.761,8.761,0,0,1,3.11.587,10.132,10.132,0,0,1,4.96,4.346,26.9,26.9,0,0,1,3.252,9.831c.237,1.534.36,2.88.414,3.84.013.221.027.424.035.6h0Zm.928-1.143a41.788,41.788,0,0,0-1.051-6.792,23.787,23.787,0,0,0-2.737-6.865,11.055,11.055,0,0,0-5.453-4.75,9.777,9.777,0,0,0-3.456-.65h-.005a10.756,10.756,0,0,0-3.483.617c-1.638.547-3.129,1.352-4.605,2a11.007,11.007,0,0,1-4.444,1.15h-.008a7.4,7.4,0,0,1-3.009-.653,13.535,13.535,0,0,1-3.537-2.372,22.942,22.942,0,0,0-7.886-4.7,21.177,21.177,0,0,0-6.844-1.137c-.251,0-.5,0-.739.01a20.531,20.531,0,0,0,9.012-5.542c7.487,1.815,8.686,6.753,14.783,6.753a13.536,13.536,0,0,0,2.141-.182,40.559,40.559,0,0,1,6.267-.553c5.9,0,10.224,1.861,13.436,6.637,3.205,4.754,2.277,13.156,1.62,17.029h0Z" transform="translate(-4167.284 -3530.8)" fill="#ffce54" fill-rule="evenodd"/>
      <path id="Path_6894" data-name="Path 6894" d="M4733.094,3859.506c-.44-.318-.867-.61-1.294-.877,3.124-8.5,17.8-13.667,22.108-25.231a13.563,13.563,0,0,0,.711-2.8l.459.163v0l.008-.024a26.709,26.709,0,0,1,2.73-5.348,14.065,14.065,0,0,1,3.008-3.329,6.362,6.362,0,0,1,3.883-1.444,6.059,6.059,0,0,1,2.283.463,7.765,7.765,0,0,0,2.933.577h.007a10.735,10.735,0,0,0,4.905-1.366c2.365-1.208,4.653-2.985,7.025-4.438a21.108,21.108,0,0,1,3.633-1.835,10.944,10.944,0,0,1,3.84-.746,9.333,9.333,0,0,1,1.126.068c9.188,1.1,20.061,1.173,20.074,1.173v-.5c1.417.417,2.244.686,2.244.686s-20.821,1.021-26.532,9.594-17.942,4.694-21.94,12.862c-1.952,4-3.489,7.5-6.125,10.374a20.518,20.518,0,0,1-9.01,5.542,17.525,17.525,0,0,0-4.744.762l.168.471a27.354,27.354,0,0,0-11.5,5.205h0Zm21.64-30.554a18.827,18.827,0,0,0-1.917-7.753c.318-.672.63-1.342.969-2.011,3.875-7.756,13.673-2.247,22.249-7.961,2.033-1.355,5.17-1.876,8.773-1.876,8.01,0,18.315,2.56,23.911,4.132-3.47-.068-11.309-.313-18.146-1.137a10.638,10.638,0,0,0-1.239-.072,12.789,12.789,0,0,0-5.487,1.355,66.476,66.476,0,0,0-7.2,4.452,22.06,22.06,0,0,1-3.375,1.839,8.749,8.749,0,0,1-3.339.735,6.838,6.838,0,0,1-2.568-.5,7.02,7.02,0,0,0-2.656-.536h0a7.446,7.446,0,0,0-4.607,1.743,18.075,18.075,0,0,0-4.431,5.687c-.388.709-.692,1.363-.936,1.907h0Z" transform="translate(-4159.9 -3313.445)" fill="#ffce54" fill-rule="evenodd"/>
      <path id="Path_6895" data-name="Path 6895" d="M4311.9,3627.407a19,19,0,0,1-1.491-5.706c2.811.563,4.891,2.67,6.585,5.377a13.985,13.985,0,0,0-1.782-.114,12.177,12.177,0,0,0-3.312.441h0Zm19.045-13.538c-3.849-5.993-9.215-11.043-15.129-12.573-.893-.232-1.753-.42-2.588-.572-.047-5.592-2.9-8.011-11.652-10.187-14.256-3.539-18.849-10.06-12.874-22.656,4.051-8.548-3.95-17.749-9.52-22.784a52.072,52.072,0,0,0-4.729-3.836s.786.011,2.134.083l-.115.485s.021,0,.075.016a72.152,72.152,0,0,1,13.53,4.939,32.619,32.619,0,0,1,8.49,5.772,14.231,14.231,0,0,1,2.71,3.661,9.283,9.283,0,0,1,1,4.155,9.587,9.587,0,0,1-.123,1.513,33.346,33.346,0,0,0-.481,5.4,19,19,0,0,0,1.219,7.054,15.4,15.4,0,0,0,6.49,7.491,36.41,36.41,0,0,0,12,4.3,11.916,11.916,0,0,1,5.359,2.488,13.681,13.681,0,0,1,4.166,6.783,28.314,28.314,0,0,1,1.037,7.991,42.912,42.912,0,0,1-.379,5.594c-.094.708-.189,1.282-.257,1.677-.032.2-.067.348-.088.446a.763.763,0,0,1-.021.117l-.006.038.481.106c-.238.792-.487,1.627-.732,2.508h0Zm1.7-5.505a44.282,44.282,0,0,0,.3-4.976,26.034,26.034,0,0,0-2.1-10.96,13.3,13.3,0,0,0-3.468-4.576,12.849,12.849,0,0,0-5.786-2.7c-6.477-1.309-11.22-3.29-14.31-6.159a13.6,13.6,0,0,1-3.456-5.024,18,18,0,0,1-1.151-6.689,32.087,32.087,0,0,1,.467-5.241,10.158,10.158,0,0,0,.135-1.669,10.316,10.316,0,0,0-1.178-4.732,19.118,19.118,0,0,0-6.187-6.58,53.773,53.773,0,0,0-12.548-6.171c-1.652-.588-3.129-1.05-4.268-1.382.035,0,.062.008.088.008,9.485.748,30.2,3.689,33.191,15.147,3.91,14.938,3.449,19.767,14.019,21.833a57.32,57.32,0,0,1,6.429,1.6,34.511,34.511,0,0,0,1.829,8.067c3.042,8.588.915,11.616-2.006,20.208h0Z" transform="translate(-3770.878 -3085.407)" fill="#ffce54" fill-rule="evenodd"/>
      <path id="Path_6896" data-name="Path 6896" d="M4664.407,3494.077a10.1,10.1,0,0,0-5.008-1.812,3.928,3.928,0,0,0-1,.125,27.349,27.349,0,0,0-.685-3.491l.367.318h0a71.312,71.312,0,0,0,6.524-9.24c3.252-5.467,6.532-12.639,6.537-19.55a17.942,17.942,0,0,0-1.172-6.584,37.989,37.989,0,0,1-2.689-13.637,25.611,25.611,0,0,1,2.75-12,17.312,17.312,0,0,1,7.852-7.679,5.971,5.971,0,0,0,1.918-1.422,7.283,7.283,0,0,0,1.559-3.143,17.109,17.109,0,0,0,.4-3.986c0-2.228-.258-4.691-.515-7.249s-.508-5.2-.508-7.769a20.431,20.431,0,0,1,1.81-9.26,12.2,12.2,0,0,1,2.852-3.687,15.164,15.164,0,0,1,4.31-2.611c-1.017,2.721-4.73,13.634-1.959,21.013,3.184,8.488,13.483,21.566-1.071,33.075-9.607,7.6-4.444,13.921-1.253,21.161a18.8,18.8,0,0,1,1.917,7.754c-.393.887-.589,1.467-.6,1.478l.482.166a13.636,13.636,0,0,1-.712,2.8c-4.309,11.562-18.984,16.731-22.108,25.229h0Zm-6.85-5.775a41.176,41.176,0,0,0-4.987-10.947c.244-.882.495-1.717.732-2.509l.489.106c.007-.013.265-1.216.481-3.1,2.921-8.59,5.049-11.62,2.006-20.208a34.511,34.511,0,0,1-1.828-8.068c-.793-8.038,1.632-16.026,9.525-20.478,10.583-5.961,4.755-25.154,10.806-32.6a30.394,30.394,0,0,1,11.511-8.419,14.3,14.3,0,0,0-1.552,1.189,13.641,13.641,0,0,0-4,6.252,24.579,24.579,0,0,0-1,7.441c0,2.634.264,5.307.514,7.869s.515,5,.515,7.149a13.317,13.317,0,0,1-.705,4.78,5.5,5.5,0,0,1-1.01,1.688,4.942,4.942,0,0,1-1.6,1.183,18.3,18.3,0,0,0-8.3,8.111,26.528,26.528,0,0,0-2.867,12.464,38.965,38.965,0,0,0,2.75,13.994,17.059,17.059,0,0,1,1.112,6.226c0,6.593-3.192,13.656-6.4,19.044a75.056,75.056,0,0,1-4.419,6.576c-.6.8-1.1,1.432-1.456,1.861-.128.16-.237.293-.318.4h0Zm32.392-107.532Z" transform="translate(-4092.507 -2948.894)" fill="#ffce54" fill-rule="evenodd"/>
      <path id="Path_6897" data-name="Path 6897" d="M4150.836,3936.466a17.971,17.971,0,0,0-13.653-9.8c-1.693-2.708-3.773-4.814-6.585-5.377a7.554,7.554,0,0,0-1.531-.149,9.141,9.141,0,0,0-1.342.1,92.361,92.361,0,0,1-13.6,1.306c-5.244,0-10.359-.852-14.757-3.516a21.545,21.545,0,0,1-6.823-6.674c-.035-.046-.061-.1-.1-.142-.048-.081-.1-.156-.155-.234-2.561-3.76-6.4-5.062-10.486-5.062-7.538,0-15.926,4.432-18.749,6.06a35.243,35.243,0,0,1,10.46-9.9,25.99,25.99,0,0,1,13.239-4.188h.006a13.726,13.726,0,0,1,9.669,3.615,49.63,49.63,0,0,0,4.54,3.894,17.905,17.905,0,0,0,6.355,3.148,32.969,32.969,0,0,0,8.3.794c3.442,0,7.71-.2,13.341-.421.332-.014.649-.02.968-.02a17.811,17.811,0,0,1,11.145,3.511c4.135,3.157,6.382,7.939,7.569,11.951a35.537,35.537,0,0,1,1.118,5.115c.095.65.149,1.176.183,1.537.013.18.021.318.026.411a.626.626,0,0,1,.008.106v.032l1-.043h0a34.587,34.587,0,0,0-3-11.758,21.527,21.527,0,0,0-6.294-8.141,18.808,18.808,0,0,0-11.736-3.716h-.013c-.331,0-.663.006-1.01.02-5.631.218-9.9.419-13.3.419a41.943,41.943,0,0,1-5.746-.314,16.519,16.519,0,0,1-6.343-2.117,37.316,37.316,0,0,1-6.43-5.131,14.708,14.708,0,0,0-10.333-3.887h-.013a26.994,26.994,0,0,0-13.77,4.334,36.506,36.506,0,0,0-8.8,7.61,65.76,65.76,0,0,1,11.52-11.92,17.617,17.617,0,0,1,11.664-4.454,21.331,21.331,0,0,1,4.912.6l.251.059a36.978,36.978,0,0,1,6.823,2.512c3.138,1.475,5.957,3.141,8.274,4.245a10.253,10.253,0,0,0,4.526,1,33.511,33.511,0,0,0,6.783-1.063,39.424,39.424,0,0,1,8.577-1.062,32.062,32.062,0,0,1,5.888.553c.832.152,1.692.34,2.587.572,5.914,1.53,11.281,6.58,15.129,12.573a41.131,41.131,0,0,1,4.986,10.946l-.088.1c-.048.057-.081.1-.1.127l-.04.041.385.33a27.56,27.56,0,0,1,.685,3.492,2.842,2.842,0,0,0-1.524,1.02c-.129-.028-.2-.039-.2-.042l-.088.49a64.259,64.259,0,0,1-4.308,6.5h0Z" transform="translate(-3591.07 -3384.998)" fill="#ffce54" fill-rule="evenodd"/>
      <path id="Path_6898" data-name="Path 6898" d="M4272.1,4165.958a15.36,15.36,0,0,1-.631-4.528,19.652,19.652,0,0,1,.813-5.513,6.4,6.4,0,0,1,2.351-3.343,26.158,26.158,0,0,1,2.732-1.8,15,15,0,0,0,4.222-3.4,10.917,10.917,0,0,0,2.194-6.6,20.739,20.739,0,0,1,.324-3.1,7.027,7.027,0,0,1,.549-1.716,4.7,4.7,0,0,1,1.688-1.826c1.152-.786,2.839-1.548,5.109-3.1a46.888,46.888,0,0,0,8.651-7.9,16.631,16.631,0,0,1,5.075-4.038,10.951,10.951,0,0,1,4.864-1.147,13.219,13.219,0,0,1,5.576,1.336,24.029,24.029,0,0,1,6.376,4.571c.779.766,1.4,1.451,1.823,1.949.217.249.379.448.481.583a1.266,1.266,0,0,1,.123.156l.033.039.008.014.393-.295c-1.444,2.23-2.264,4.175-1.4,5.989a4.317,4.317,0,0,1-2.052.518c-1.5,0-3.347-.76-5.576-2.863a11.335,11.335,0,0,0-6.607-3.347c-.265-.026-.529-.04-.792-.04-5.143,0-9.173,4.979-8.822,11.705.522,9.784-9.525,17.249-16.735,18.294-6.038.874-9.73,7.324-10.766,9.392v0Zm-1.416-1.743c-1.687-4.095-4.06-12.429,2.4-16.418,8.761-5.407,2.067-10.555,5.928-20.053,1.863-4.6,5.84-4.874,10.144-4.874l.894,0,.887,0c4.066,0,8.206-.237,10.99-3.976a9.586,9.586,0,0,1,5.19-3.539,12.188,12.188,0,0,1,3.313-.441,14.082,14.082,0,0,1,1.782.112,17.975,17.975,0,0,1,13.652,9.8q-.376.527-.711,1.033a30.136,30.136,0,0,0-4.3-4.363,22.692,22.692,0,0,0-4.811-3.107,14.155,14.155,0,0,0-5.995-1.432h-.006a11.949,11.949,0,0,0-5.291,1.249,17.6,17.6,0,0,0-5.386,4.271,47.662,47.662,0,0,1-7.582,7.109,37.041,37.041,0,0,1-3.91,2.484c-.812.465-1.517.852-2.141,1.276a6.566,6.566,0,0,0-1.232,1.075,5.847,5.847,0,0,0-1.206,2.39,18.647,18.647,0,0,0-.5,3.915,10.274,10.274,0,0,1-1.625,5.554,9.9,9.9,0,0,1-2.418,2.406c-1.363.994-2.908,1.762-4.275,2.76a9.6,9.6,0,0,0-1.876,1.736,7.049,7.049,0,0,0-1.262,2.445,20.491,20.491,0,0,0-.852,5.8,18.007,18.007,0,0,0,.21,2.786h0Z" transform="translate(-3766.093 -3573.363)" fill="#ffce54" fill-rule="evenodd"/>
      <path id="Path_6899" data-name="Path 6899" d="M4659.1,4188.634c1.96-4.49,3.362-9.221,3.362-13.349a12.212,12.212,0,0,0-1.329-5.9,8.951,8.951,0,0,0-4.541-3.97c-1.416-.6-2.676-1.076-3.747-1.547a14.964,14.964,0,0,1-2.093-1.081,5.259,5.259,0,0,1-1.965-2.075,7.864,7.864,0,0,1-.678-3.592,47.175,47.175,0,0,1,1.614-10.149,23.01,23.01,0,0,0,.67-5.275,13.872,13.872,0,0,0-1.748-7.037,13.322,13.322,0,0,0-5.875-5.3,15,15,0,0,0-3.32-1.159,2.847,2.847,0,0,1,1.524-1.022,3.859,3.859,0,0,1,1-.125,10.128,10.128,0,0,1,5.009,1.812c.426.268.852.56,1.293.877a32.187,32.187,0,0,1,7.879,8.582c2.366,3.76,3.9,7.994,3.577,11.934a14.486,14.486,0,0,0,.02,2.92c.013.084.027.169.034.252.936,6.331,7.013,5.333,8.89,10.682.061.177.115.356.168.544a16.215,16.215,0,0,1,.076,6.716,38.214,38.214,0,0,1-1.553,6.509c-.033.086-.061.174-.094.258s-.062.172-.088.258-.067.177-.095.263-.066.171-.1.257-.062.172-.1.259a2.4,2.4,0,0,0-.1.258c-.04.085-.074.176-.108.259s-.074.171-.106.256c-.021.047-.047.1-.062.144-.128.281-.251.556-.379.822-2.507,5.24-5.691,7.126-7.04,7.719h0Zm-.534-1.279c.1-3.339-.529-11.288-8.354-14.7-10.046-4.377-22.141-5.667-16.119-9.7a17.73,17.73,0,0,0,6.355-7.216c.035-.083.069-.166.1-.25,1.355-3.436.663-7.061-4.234-9.548-2.136-1.086-3.34-2.18-3.876-3.326-.86-1.815-.04-3.761,1.4-5.99l.406-.3v0s-.039-.05-.107-.142q.336-.507.711-1.034a63.642,63.642,0,0,0,4.309-6.5l-.075.49a14.434,14.434,0,0,1,5.284,2.307,11.709,11.709,0,0,1,3.463,3.791,12.911,12.911,0,0,1,1.566,6.463,21.689,21.689,0,0,1-.645,5.042,48.309,48.309,0,0,0-1.639,10.379,9.447,9.447,0,0,0,.618,3.677,5.617,5.617,0,0,0,1.287,1.882,10.293,10.293,0,0,0,3.022,1.916c1.206.55,2.595,1.074,4.174,1.736a7.906,7.906,0,0,1,4.044,3.532,11.133,11.133,0,0,1,1.213,5.423,33.043,33.043,0,0,1-2.908,12.07h0Zm-19.479-58.219Z" transform="translate(-4075.089 -3583.681)" fill="#ffce54" fill-rule="evenodd"/>
      <path id="Path_6900" data-name="Path 6900" d="M4878.29,3379.449a17.655,17.655,0,0,1,3.483-1.769l.177.463a26.859,26.859,0,0,0-3.66,1.306Zm3.415-.675c.149-.4.243-.626.243-.629l.176.464c-.142.052-.285.111-.419.166h0Z" transform="translate(-4284.504 -2946.267)" fill="#fff"/>
      <path id="Path_6901" data-name="Path 6901" d="M4686.482,3489.227l-.365-.319c-.054-.2-.108-.4-.156-.6.081-.1.19-.234.318-.395.353-.43.856-1.063,1.457-1.861a75.17,75.17,0,0,0,4.418-6.577c3.212-5.387,6.4-12.449,6.4-19.044a17.056,17.056,0,0,0-1.112-6.225,38.955,38.955,0,0,1-2.75-13.994,26.529,26.529,0,0,1,2.866-12.465,18.291,18.291,0,0,1,8.3-8.111,4.969,4.969,0,0,0,1.6-1.183,5.529,5.529,0,0,0,1.009-1.69,13.339,13.339,0,0,0,.705-4.781c0-2.149-.257-4.592-.514-7.149s-.515-5.235-.515-7.869a24.577,24.577,0,0,1,1-7.441,13.654,13.654,0,0,1,4-6.253,14.564,14.564,0,0,1,1.551-1.188,26.769,26.769,0,0,1,3.659-1.306h0s-.094.229-.243.629a15.091,15.091,0,0,0-4.309,2.612,12.188,12.188,0,0,0-2.853,3.687,20.464,20.464,0,0,0-1.809,9.261c0,2.568.257,5.215.507,7.769s.515,5.023.515,7.249a17.108,17.108,0,0,1-.4,3.986,7.259,7.259,0,0,1-1.558,3.143,5.974,5.974,0,0,1-1.917,1.422,17.313,17.313,0,0,0-7.853,7.679,25.591,25.591,0,0,0-2.75,12,37.992,37.992,0,0,0,2.689,13.637,17.913,17.913,0,0,1,1.173,6.584c-.006,6.911-3.286,14.084-6.538,19.552a71.328,71.328,0,0,1-6.523,9.241h0Z" transform="translate(-4120.909 -2948.903)" fill="#ed5564" fill-rule="evenodd"/>
      <path id="Path_6902" data-name="Path 6902" d="M4684.8,4101.128l-.387-.332.041-.039c.021-.029.056-.07.1-.127.028-.029.055-.062.087-.1.048.2.1.4.156.6h0Z" transform="translate(-4119.591 -3561.123)" fill-rule="evenodd" fill="url(#linear-gradient-6)"/>
      <path id="Path_6903" data-name="Path 6903" d="M5248.486,3837.538c-.522-.155-1.131-.335-1.816-.527.576.013,1.03.02,1.343.022s.481.007.481.007l-.007.5h0Z" transform="translate(-4597.849 -3336.973)" fill-rule="evenodd" fill="url(#linear-gradient-7)"/>
      <path id="Path_6904" data-name="Path 6904" d="M4885.011,3847.406l-.46-.163a12.329,12.329,0,0,0,.115-1.644c.244-.544.549-1.2.935-1.909a18.086,18.086,0,0,1,4.432-5.685,7.445,7.445,0,0,1,4.606-1.744h0a7.057,7.057,0,0,1,2.656.536,6.832,6.832,0,0,0,2.568.5,8.771,8.771,0,0,0,3.341-.735,22.066,22.066,0,0,0,3.373-1.839,66.853,66.853,0,0,1,7.2-4.452,12.809,12.809,0,0,1,5.488-1.355,10.437,10.437,0,0,1,1.24.074c6.836.822,14.675,1.066,18.144,1.137.685.192,1.294.37,1.815.527v.5c-.013,0-10.888-.073-20.075-1.173a9.349,9.349,0,0,0-1.125-.069,10.951,10.951,0,0,0-3.841.746,21.12,21.12,0,0,0-3.632,1.836c-2.371,1.454-4.661,3.23-7.026,4.439a10.761,10.761,0,0,1-4.905,1.365h-.007a7.8,7.8,0,0,1-2.933-.577,6.076,6.076,0,0,0-2.284-.463,6.348,6.348,0,0,0-3.881,1.445,14.082,14.082,0,0,0-3.007,3.329,26.679,26.679,0,0,0-2.731,5.349l-.008.024v0h0Z" transform="translate(-4289.831 -3330.091)" fill="#ed5564" fill-rule="evenodd"/>
      <path id="Path_6905" data-name="Path 6905" d="M4881.8,3942.2l-.481-.166c.008-.009.2-.588.6-1.478a12.345,12.345,0,0,1-.115,1.643Z" transform="translate(-4287.082 -3425.053)" fill-rule="evenodd" fill="url(#linear-gradient-8)"/>
      <path id="Path_6906" data-name="Path 6906" d="M4291.237,3539.207c-.962-.074-1.809-.126-2.507-.164l.115-.484c.006,0,.914.215,2.392.646h0Z" transform="translate(-3783.024 -3083.111)" fill="#c2c3cf"/>
      <path id="Path_6907" data-name="Path 6907" d="M4343.182,3611.821l-.481-.107.006-.037a.708.708,0,0,0,.021-.117c.021-.1.054-.251.089-.447.067-.393.163-.967.257-1.676a42.889,42.889,0,0,0,.38-5.592,28.307,28.307,0,0,0-1.038-7.992,13.671,13.671,0,0,0-4.166-6.782,11.894,11.894,0,0,0-5.359-2.488,36.389,36.389,0,0,1-12-4.3,15.384,15.384,0,0,1-6.49-7.491,18.985,18.985,0,0,1-1.219-7.055,33.279,33.279,0,0,1,.48-5.4,9.655,9.655,0,0,0,.123-1.51,9.288,9.288,0,0,0-1-4.155,14.252,14.252,0,0,0-2.709-3.66,32.62,32.62,0,0,0-8.489-5.771,72.061,72.061,0,0,0-13.529-4.94c-.054-.014-.075-.017-.075-.017l.115-.484c.7.036,1.545.09,2.507.163,1.139.332,2.614.792,4.269,1.381a53.783,53.783,0,0,1,12.547,6.171,19.12,19.12,0,0,1,6.187,6.58,10.3,10.3,0,0,1,1.18,4.731,10.062,10.062,0,0,1-.136,1.67,32.193,32.193,0,0,0-.468,5.241,18.03,18.03,0,0,0,1.153,6.69,13.569,13.569,0,0,0,3.456,5.022c3.09,2.869,7.833,4.851,14.309,6.158a12.856,12.856,0,0,1,5.787,2.7,13.26,13.26,0,0,1,3.47,4.576,26.011,26.011,0,0,1,2.1,10.96,44.007,44.007,0,0,1-.3,4.976c-.312.931-.636,1.926-.968,3h0Z" transform="translate(-3782.386 -3085.867)" fill="#ed5564" fill-rule="evenodd"/>
      <path id="Path_6908" data-name="Path 6908" d="M4657.959,3993.514l-.488-.105c.331-1.073.657-2.068.968-3-.216,1.889-.474,3.091-.481,3.1h0Z" transform="translate(-4096.675 -3467.455)" fill-rule="evenodd" fill="url(#linear-gradient-9)"/>
      <path id="Path_6909" data-name="Path 6909" d="M5158.209,4265.626v-.1c0-.068,0-.168-.007-.3s-.015-.318-.021-.522c.353.572.529.924.529.924s.182-.785.4-2.066c.089,1.269.095,2.057.095,2.066h-1Z" transform="translate(-4522.58 -3699.797)" fill="#fff"/>
      <path id="Path_6910" data-name="Path 6910" d="M4868.92,4128.111s-.176-.351-.529-.925c-.005-.177-.02-.381-.032-.6-.056-.96-.177-2.306-.415-3.839a26.846,26.846,0,0,0-3.252-9.83,10.133,10.133,0,0,0-4.958-4.347,8.773,8.773,0,0,0-3.111-.586h-.005a11.681,11.681,0,0,0-4.683,1.153c-1.5.648-2.974,1.451-4.545,2a10.056,10.056,0,0,1-3.313.615h-.007a8.4,8.4,0,0,1-3.4-.736,14.356,14.356,0,0,1-3.8-2.544,22.08,22.08,0,0,0-7.549-4.5,20.136,20.136,0,0,0-6.518-1.083h-.008a17.022,17.022,0,0,0-5.135.715h-.006l-.162-.467h0a41.2,41.2,0,0,0,4.572-1.233c.238-.007.487-.01.738-.01a21.2,21.2,0,0,1,6.843,1.137,22.983,22.983,0,0,1,7.888,4.7,13.519,13.519,0,0,0,3.536,2.373,7.437,7.437,0,0,0,3.009.652h.006a10.978,10.978,0,0,0,4.446-1.15c1.477-.653,2.967-1.459,4.607-2.005a10.8,10.8,0,0,1,3.483-.617h.005a9.77,9.77,0,0,1,3.456.65,11.045,11.045,0,0,1,5.453,4.75,23.754,23.754,0,0,1,2.737,6.865,41.841,41.841,0,0,1,1.051,6.792c-.217,1.281-.4,2.067-.4,2.067h0Z" transform="translate(-4232.789 -3562.281)" fill="#ed5564" fill-rule="evenodd"/>
      <path id="Path_6911" data-name="Path 6911" d="M4816.509,4103.213l-.167-.471a17.519,17.519,0,0,1,4.741-.762,41.014,41.014,0,0,1-4.573,1.233h0Z" transform="translate(-4231.811 -3562.357)" fill-rule="evenodd" fill="url(#linear-gradient-10)"/>
      <path id="Path_6912" data-name="Path 6912" d="M4144.374,3957.753v-.033a.617.617,0,0,0-.008-.106c-.005-.093-.013-.231-.026-.411-.035-.362-.089-.888-.184-1.539a35.45,35.45,0,0,0-1.117-5.116c-1.184-4.011-3.435-8.794-7.569-11.95a17.812,17.812,0,0,0-11.145-3.512c-.318,0-.637.005-.968.019-5.631.218-9.9.42-13.34.42a32.914,32.914,0,0,1-8.3-.8,17.905,17.905,0,0,1-6.355-3.147,49.683,49.683,0,0,1-4.541-3.893,13.728,13.728,0,0,0-9.667-3.616h-.006a26.006,26.006,0,0,0-13.241,4.188,35.284,35.284,0,0,0-10.459,9.9c-.634.365-.988.588-.988.588a15.911,15.911,0,0,1,2.127-3.73,36.582,36.582,0,0,1,8.795-7.61,27.015,27.015,0,0,1,13.771-4.332h.014a14.7,14.7,0,0,1,10.332,3.886,37.248,37.248,0,0,0,6.43,5.132,16.457,16.457,0,0,0,6.342,2.117,41.848,41.848,0,0,0,5.747.315c3.4,0,7.668-.2,13.3-.421.345-.014.677-.019,1.01-.019h.013a18.8,18.8,0,0,1,11.735,3.716,21.532,21.532,0,0,1,6.294,8.141,34.559,34.559,0,0,1,3,11.758h0l-1,.043h0Z" transform="translate(-3585.455 -3410.185)" fill="#ed5564" fill-rule="evenodd"/>
      <path id="Path_6913" data-name="Path 6913" d="M4281.168,4178.212a25.126,25.126,0,0,1-1.117-2.378,18.114,18.114,0,0,1-.211-2.787,20.487,20.487,0,0,1,.854-5.8,7.03,7.03,0,0,1,1.26-2.445,9.7,9.7,0,0,1,1.876-1.736c1.369-1,2.914-1.766,4.274-2.76a9.838,9.838,0,0,0,2.418-2.406,10.263,10.263,0,0,0,1.626-5.553,18.433,18.433,0,0,1,.5-3.916,5.863,5.863,0,0,1,1.205-2.389,6.551,6.551,0,0,1,1.233-1.075c.623-.424,1.328-.812,2.141-1.277a37.092,37.092,0,0,0,3.91-2.484,47.73,47.73,0,0,0,7.583-7.11,17.676,17.676,0,0,1,5.387-4.271,11.963,11.963,0,0,1,5.292-1.249h.006a14.178,14.178,0,0,1,6,1.431,22.8,22.8,0,0,1,4.811,3.108,30.32,30.32,0,0,1,4.3,4.363c-.1.15-.2.3-.3.444l-.393.294-.007-.013-.033-.04a1.188,1.188,0,0,0-.123-.155c-.1-.136-.264-.334-.48-.584-.42-.5-1.043-1.183-1.823-1.948a24.035,24.035,0,0,0-6.375-4.572,13.221,13.221,0,0,0-5.576-1.335,10.957,10.957,0,0,0-4.865,1.146,16.636,16.636,0,0,0-5.074,4.039,46.912,46.912,0,0,1-8.652,7.9c-2.269,1.551-3.957,2.313-5.109,3.1a4.688,4.688,0,0,0-1.687,1.825,6.893,6.893,0,0,0-.548,1.717,20.547,20.547,0,0,0-.326,3.1,10.916,10.916,0,0,1-2.195,6.6,15,15,0,0,1-4.222,3.4,25.922,25.922,0,0,0-2.731,1.8,6.4,6.4,0,0,0-2.352,3.343,19.624,19.624,0,0,0-.812,5.512,15.285,15.285,0,0,0,.631,4.529c-.2.4-.3.636-.3.636Z" transform="translate(-3775.462 -3584.983)" fill="#ed5564" fill-rule="evenodd"/>
      <path id="Path_6914" data-name="Path 6914" d="M4643.82,4188.624c.095-.146.2-.3.3-.444.067.093.108.142.108.142v0Z" transform="translate(-4085.064 -3635.678)" fill-rule="evenodd" fill="url(#linear-gradient-11)"/>
      <path id="Path_6915" data-name="Path 6915" d="M4679.42,4134.94l.088-.489c.008,0,.075.013.2.043a4.979,4.979,0,0,0-.292.448h0Z" transform="translate(-4115.345 -3589.976)" fill-rule="evenodd" fill="url(#linear-gradient-12)"/>
      <path id="Path_6916" data-name="Path 6916" d="M4698.294,4195.4s.083-.576.115-1.52a33.045,33.045,0,0,0,2.908-12.071,11.143,11.143,0,0,0-1.212-5.423,7.921,7.921,0,0,0-4.044-3.532c-1.58-.662-2.969-1.186-4.174-1.735a10.349,10.349,0,0,1-3.022-1.914,5.6,5.6,0,0,1-1.287-1.883,9.439,9.439,0,0,1-.617-3.678,48.375,48.375,0,0,1,1.639-10.38,21.83,21.83,0,0,0,.644-5.043,12.913,12.913,0,0,0-1.565-6.463,11.685,11.685,0,0,0-3.462-3.791,14.493,14.493,0,0,0-5.284-2.307h0l.075-.49h0a4.673,4.673,0,0,1,.291-.448,15.133,15.133,0,0,1,3.32,1.159,13.324,13.324,0,0,1,5.875,5.3,13.868,13.868,0,0,1,1.748,7.036,22.914,22.914,0,0,1-.672,5.275,47.224,47.224,0,0,0-1.612,10.149,7.866,7.866,0,0,0,.677,3.591,5.266,5.266,0,0,0,1.965,2.074,15.286,15.286,0,0,0,2.095,1.081c1.071.47,2.331.952,3.747,1.547a8.959,8.959,0,0,1,4.54,3.969,12.209,12.209,0,0,1,1.329,5.9c0,4.128-1.4,8.86-3.361,13.349a4.556,4.556,0,0,1-.65.242h0Z" transform="translate(-4114.929 -3590.206)" fill="#ed5564" fill-rule="evenodd"/>
      <path id="Path_6917" data-name="Path 6917" d="M4054.5,4007.05l-.838-.537a34.1,34.1,0,0,1,2.544-3.463,15.887,15.887,0,0,0-2.127,3.731s.355-.225.987-.589c-.2.286-.385.569-.567.858h0Z" transform="translate(-3583.073 -3478.207)" fill-rule="evenodd" fill="url(#linear-gradient-13)"/>
      <path id="Path_6918" data-name="Path 6918" d="M3564.386,3015.04s-32.5,8.021-35.467,14.369-8.538,94.577-8.538,94.577,5.275,9.449,32.493,8.511,36.349-19.172,36.349-19.172-12.261-9.98-7.164-33.011,9.9-39.228,9.569-51.493-21.946-15.178-27.241-13.78h0Z" transform="translate(-3129.466 -2637.532)" fill="#ed5564" fill-rule="evenodd"/>
      <path id="Path_6919" data-name="Path 6919" d="M3383.009,3108.31s5.894-4.34,11.7,6.819-22.559,53-27.522,55.236-24.984,4.715-16.1-16.927,27.863-44.419,31.922-45.129h0Z" transform="translate(-2983.554 -2716.433)" fill="#ed5564" fill-rule="evenodd"/>
      <path id="Path_6920" data-name="Path 6920" d="M3489.563,3457.64s-6.826,6.544-8.693,10.692,7.018,7.7,8.945,7.285,5.109-6.25,1.76-10.245-2.011-7.732-2.011-7.732Z" transform="translate(-3095.638 -3014.28)" fill-rule="evenodd" fill="url(#linear-gradient-14)"/>
      <path id="Path_6921" data-name="Path 6921" d="M3598.337,2805.751s-4.377,6.447-3.58,8.664.584,14.726,3.695,15.781,7.341-.291,8.979.663,2.626,10.234,2.626,10.234l9.722-.527s7.782-26.937-.557-33.274-20.887-1.54-20.887-1.54h0Z" transform="translate(-3192.647 -2458.302)" fill-rule="evenodd" fill="url(#linear-gradient-15)"/>
      <path id="Path_6922" data-name="Path 6922" d="M3562.182,2666.3c-4.761,4.208-2.456,14.076,3.723,18.2s11.295,3.79,11.295,3.79-1.306-4.914,3.3-3.648-3.531,13.518,1.889,18.2-9.515,22.04,7.749,35.838,36.8,7.975,42.981-3.181,5.185-21.691-9.929-26.762-13.073-20.418-15.221-33.177c-3.094-18.371-26.219-26.555-45.788-9.261h0Z" transform="translate(-3162.857 -2333.069)" fill="#4b1e59" fill-rule="evenodd"/>
    </g>
  </g>
</svg>
