<svg xmlns="http://www.w3.org/2000/svg" width="176.297" height="107.063" viewBox="0 0 176.297 107.063">
  <g id="Group_55" data-name="Group 55" transform="translate(10946.745 1515.298)">
    <path id="Path_1111" data-name="Path 1111" d="M286.323,327.965H265.579a2.121,2.121,0,0,1-2.119-2.119v-28.6a2.121,2.121,0,0,1,2.119-2.119h20.744a2.121,2.121,0,0,1,2.119,2.119v28.6a2.121,2.121,0,0,1-2.119,2.118Z" transform="translate(-11210.205 -1736.201)" fill="#38e6f1"/>
    <path id="Path_1112" data-name="Path 1112" d="M332.038,322.31H311.294a2.121,2.121,0,0,1-2.119-2.119V264.474a2.121,2.121,0,0,1,2.119-2.119h20.744a2.121,2.121,0,0,1,2.119,2.119v55.718A2.121,2.121,0,0,1,332.038,322.31Z" transform="translate(-11218.092 -1730.546)" fill="#38e6f1"/>
    <path id="Path_1113" data-name="Path 1113" d="M377.754,327.965H357.01a2.121,2.121,0,0,1-2.119-2.119v-28.6a2.121,2.121,0,0,1,2.119-2.119h20.744a2.121,2.121,0,0,1,2.119,2.119v28.6a2.121,2.121,0,0,1-2.118,2.118Z" transform="translate(-11225.979 -1736.201)" fill="#38e6f1"/>
    <path id="Path_1114" data-name="Path 1114" d="M423.47,320.078H402.726a2.075,2.075,0,0,1-2.119-2.023V251.439a2.075,2.075,0,0,1,2.119-2.023H423.47a2.075,2.075,0,0,1,2.119,2.023v66.616A2.075,2.075,0,0,1,423.47,320.078Z" transform="translate(-11233.865 -1728.314)" fill="#38e6f1"/>
    <path id="Path_1115" data-name="Path 1115" d="M469.185,316.06H448.441a2.121,2.121,0,0,1-2.119-2.119v-85.7a2.121,2.121,0,0,1,2.119-2.119h20.744a2.121,2.121,0,0,1,2.119,2.119v85.7a2.121,2.121,0,0,1-2.118,2.118Z" transform="translate(-11241.752 -1724.296)" fill="#38e6f1"/>
    <path id="Path_1116" data-name="Path 1116" d="M175.009,113.119l-37.919-28.4-37.4,28.014-.856-1.143L137.09,82.934,174.828,111.2l37.5-41.039.151-.061L250.31,54.858l.534,1.325L213.165,71.364Z" transform="translate(-11033.515 -1566.076)" fill="#c7fdff"/>
    <circle id="Ellipse_126" data-name="Ellipse 126" cx="4.283" cy="4.283" r="4.283" transform="translate(-10938.536 -1458.198)" fill="#38e6f1"/>
    <circle id="Ellipse_127" data-name="Ellipse 127" cx="4.283" cy="4.283" r="4.283" transform="translate(-10900.707 -1486.035)" fill="#38e6f1"/>
    <circle id="Ellipse_128" data-name="Ellipse 128" cx="4.283" cy="4.283" r="4.283" transform="translate(-10862.879 -1458.198)" fill="#38e6f1"/>
    <circle id="Ellipse_129" data-name="Ellipse 129" cx="4.283" cy="4.283" r="4.283" transform="translate(-10825.05 -1499.596)" fill="#38e6f1"/>
    <circle id="Ellipse_130" data-name="Ellipse 130" cx="4.283" cy="4.283" r="4.283" transform="translate(-10787.22 -1515.298)" fill="#38e6f1"/>
  </g>
</svg>
