<svg xmlns="http://www.w3.org/2000/svg" width="113.085" height="135.114" viewBox="0 0 113.085 135.114">
  <g id="Group_56" data-name="Group 56" transform="translate(10881.584 1191.89)">
    <rect id="Rectangle_198" data-name="Rectangle 198" width="32.85" height="1.332" transform="translate(-10801.35 -1066.098)" fill="#38e6f1"/>
    <rect id="Rectangle_199" data-name="Rectangle 199" width="32.85" height="1.332" transform="translate(-10801.35 -1062.103)" fill="#38e6f1"/>
    <rect id="Rectangle_200" data-name="Rectangle 200" width="32.85" height="1.332" transform="translate(-10801.35 -1058.107)" fill="#38e6f1"/>
    <path id="Path_1103" data-name="Path 1103" d="M405.3,528.835v13.9a41.694,41.694,0,0,1,29.482,71.177l9.827,9.827a55.593,55.593,0,0,0-39.31-94.9Z" transform="translate(-11231.285 -1720.725)" fill="#c7fdff"/>
    <path id="Path_1104" data-name="Path 1104" d="M431.852,655.994l-9.827-9.827a41.684,41.684,0,0,1-54.708,3.709L358.9,660.944A55.591,55.591,0,0,0,431.852,655.994Z" transform="translate(-11218.53 -1752.982)" fill="#89faff"/>
    <path id="Path_1105" data-name="Path 1105" d="M342.523,584.428a41.694,41.694,0,0,1,41.694-41.694v-13.9a55.592,55.592,0,0,0-33.638,99.853l8.412-11.068A41.622,41.622,0,0,1,342.523,584.428Z" transform="translate(-11210.205 -1720.725)" fill="#38e6f1"/>
  </g>
</svg>
