<svg xmlns="http://www.w3.org/2000/svg" width="86.88" height="174.239" viewBox="0 0 86.88 174.239">
  <g id="Group_39" data-name="Group 39" transform="translate(-103.995)">
    <path id="Path_891" data-name="Path 891" d="M406.875,126.977h-.957V100.75a15.179,15.179,0,0,0-15.179-15.179H335.174a15.179,15.179,0,0,0-15.179,15.179v143.88a15.179,15.179,0,0,0,15.179,15.179h55.564a15.179,15.179,0,0,0,15.179-15.179V145.645h.957Z" transform="translate(-216 -85.571)" fill="#4B1E59"/>
    <path id="Path_892" data-name="Path 892" d="M404.657,102.066H397.4a5.386,5.386,0,0,1-4.986,7.42H360.585a5.386,5.386,0,0,1-4.986-7.419h-6.774A11.336,11.336,0,0,0,337.489,113.4V257.071a11.336,11.336,0,0,0,11.336,11.336h55.832a11.336,11.336,0,0,0,11.336-11.336h0V113.4a11.336,11.336,0,0,0-11.336-11.336Z" transform="translate(-229.306 -98.117)" fill="#fff"/>
    <path id="Path_894" data-name="Path 894" d="M423.685,206.736H355.962a1.256,1.256,0,0,1-1.254-1.254v-16.8a1.256,1.256,0,0,1,1.254-1.254h67.723a1.256,1.256,0,0,1,1.254,1.254v16.8a1.256,1.256,0,0,1-1.254,1.254ZM355.962,187.93a.753.753,0,0,0-.752.752v16.8a.753.753,0,0,0,.752.752h67.723a.753.753,0,0,0,.753-.752v-16.8a.753.753,0,0,0-.753-.752Z" transform="translate(-242.402 -163.043)" fill="#89faff"/>
    <path id="Path_895" data-name="Path 895" d="M423.685,438.951H355.962a1.256,1.256,0,0,1-1.254-1.254V406.6a1.256,1.256,0,0,1,1.254-1.254h67.723a1.256,1.256,0,0,1,1.254,1.254v31.1A1.256,1.256,0,0,1,423.685,438.951Zm-67.723-33.1a.753.753,0,0,0-.752.752v31.1a.753.753,0,0,0,.752.753h67.723a.753.753,0,0,0,.752-.753V406.6a.753.753,0,0,0-.752-.752Z" transform="translate(-242.402 -328.789)" fill="#89faff"/>
    <path id="Path_896" data-name="Path 896" d="M541.118,315.7h-30.1a1.256,1.256,0,0,1-1.254-1.254v-16.8a1.256,1.256,0,0,1,1.254-1.254h30.1a1.256,1.256,0,0,1,1.254,1.254v16.8A1.256,1.256,0,0,1,541.118,315.7Zm-30.1-18.806a.753.753,0,0,0-.753.753v16.8a.753.753,0,0,0,.753.752h30.1a.753.753,0,0,0,.753-.752v-16.8a.753.753,0,0,0-.753-.752Z" transform="translate(-360.336 -245.916)" fill="#89faff"/>
    <path id="Path_897" data-name="Path 897" d="M386.061,607.878h-30.1a1.256,1.256,0,0,1-1.254-1.254V575.277a1.256,1.256,0,0,1,1.254-1.254h30.1a1.256,1.256,0,0,1,1.254,1.254v31.347a1.256,1.256,0,0,1-1.254,1.254Zm-30.1-33.354a.753.753,0,0,0-.753.753v31.347a.753.753,0,0,0,.752.753h30.1a.753.753,0,0,0,.753-.753V575.277a.753.753,0,0,0-.753-.752Z" transform="translate(-242.402 -457.082)" fill="#89faff"/>
    <path id="Path_898" data-name="Path 898" d="M541.118,607.878h-30.1a1.256,1.256,0,0,1-1.254-1.254V575.277a1.256,1.256,0,0,1,1.254-1.254h30.1a1.256,1.256,0,0,1,1.254,1.254v31.347a1.256,1.256,0,0,1-1.254,1.254Zm-30.1-33.354a.753.753,0,0,0-.753.753v31.347a.753.753,0,0,0,.753.753h30.1a.753.753,0,0,0,.753-.753V575.277a.753.753,0,0,0-.753-.752Z" transform="translate(-360.336 -457.082)" fill="#89faff"/>
    <circle id="Ellipse_104" data-name="Ellipse 104" cx="5.109" cy="5.109" r="5.109" transform="translate(118.472 82.465)" fill="#38e6f1"/>
    <path id="Path_899" data-name="Path 899" d="M448.38,437.133a.851.851,0,0,0,0,1.7h40.14a.851.851,0,0,0,0-1.7Z" transform="translate(-313.001 -352.965)" fill="#38e6f1"/>
    <path id="Path_900" data-name="Path 900" d="M448.374,458.471a.851.851,0,0,0,0,1.7h17.276a.851.851,0,0,0,0-1.7Z" transform="translate(-312.995 -369.194)" fill="#38e6f1"/>
    <path id="Path_901" data-name="Path 901" d="M381.7,492.585c-.648,0-1.175.382-1.175.851s.527.851,1.175.851h55.38c.648,0,1.175-.382,1.175-.851s-.527-.851-1.175-.851Z" transform="translate(-262.042 -395.141)" fill="#89faff"/>
    <path id="Path_902" data-name="Path 902" d="M381.7,513.924c-.648,0-1.175.382-1.175.851s.527.851,1.175.851h55.38c.648,0,1.175-.382,1.175-.851s-.527-.851-1.175-.851Z" transform="translate(-262.042 -411.371)" fill="#89faff"/>
    <circle id="Ellipse_105" data-name="Ellipse 105" cx="5.109" cy="5.109" r="5.109" transform="translate(118.974 28.286)" fill="#38e6f1"/>
    <path id="Path_903" data-name="Path 903" d="M450.476,210.834a.851.851,0,0,0,0,1.7h40.14a.851.851,0,0,0,0-1.7H450.476Z" transform="translate(-314.595 -180.845)" fill="#38e6f1"/>
    <path id="Path_904" data-name="Path 904" d="M450.476,232.172a.851.851,0,0,0,0,1.7h17.272a.851.851,0,0,0,0-1.7H450.476Z" transform="translate(-314.595 -197.074)" fill="#38e6f1"/>
    <path id="Path_905" data-name="Path 905" d="M395.855,326.844H367.619l6.645-11.509a1.357,1.357,0,0,1,2.35,0l2.839,4.917,4.827-8.36a1.7,1.7,0,0,1,2.943,0Zm-27.367-.5h26.5l-8.2-14.2a1.2,1.2,0,0,0-2.073,0l-5.261,9.112-3.273-5.669a.855.855,0,0,0-1.481,0Z" transform="translate(-252.222 -257.062)" fill="#89faff"/>
    <path id="Path_906" data-name="Path 906" d="M546.721,326.845H518.485l6.645-11.509a1.357,1.357,0,0,1,2.35,0l2.839,4.917,4.826-8.36a1.7,1.7,0,0,1,2.943,0Zm-27.367-.5h26.5l-8.2-14.2a1.2,1.2,0,0,0-2.073,0l-5.261,9.112-3.273-5.669a.855.855,0,0,0-1.481,0Z" transform="translate(-366.969 -257.062)" fill="#89faff"/>
    <path id="Path_907" data-name="Path 907" d="M386.061,315.7h-30.1a1.256,1.256,0,0,1-1.254-1.254v-16.8a1.256,1.256,0,0,1,1.254-1.254h30.1a1.256,1.256,0,0,1,1.254,1.254v16.8A1.256,1.256,0,0,1,386.061,315.7Zm-30.1-18.806a.753.753,0,0,0-.752.752v16.8a.753.753,0,0,0,.752.753h30.1a.753.753,0,0,0,.752-.753v-16.8a.753.753,0,0,0-.753-.753Z" transform="translate(-242.402 -245.916)" fill="#89faff"/>
    <path id="Path_908" data-name="Path 908" d="M384.03,601.024a.851.851,0,0,0,0,1.7H401.3a.851.851,0,1,0,0-1.7Z" transform="translate(-264.057 -477.618)" fill="#89faff"/>
    <path id="Path_909" data-name="Path 909" d="M384.03,621.977a.851.851,0,1,0,0,1.7H401.3a.851.851,0,1,0,0-1.7Z" transform="translate(-264.057 -493.555)" fill="#89faff"/>
    <path id="Path_910" data-name="Path 910" d="M405.78,654.38a5.359,5.359,0,1,1,5.359-5.359h0A5.365,5.365,0,0,1,405.78,654.38Zm0-10.217a4.858,4.858,0,1,0,4.858,4.858h0a4.863,4.863,0,0,0-4.858-4.858Z" transform="translate(-277.171 -510.048)" fill="#89faff"/>
    <path id="Path_911" data-name="Path 911" d="M556.359,683.023a.851.851,0,0,0,0-1.7H539.087a.851.851,0,1,0,0,1.7Z" transform="translate(-381.991 -538.691)" fill="#89faff"/>
    <path id="Path_912" data-name="Path 912" d="M556.359,662.069a.851.851,0,0,0,0-1.7H539.087a.851.851,0,1,0,0,1.7Z" transform="translate(-381.991 -522.753)" fill="#89faff"/>
    <path id="Path_913" data-name="Path 913" d="M560.838,601.024a5.359,5.359,0,1,1-5.359,5.359h0A5.366,5.366,0,0,1,560.838,601.024Zm0,10.217a4.858,4.858,0,1,0-4.858-4.858h0A4.863,4.863,0,0,0,560.838,611.241Z" transform="translate(-395.106 -477.618)" fill="#89faff"/>
  </g>
</svg>
