<svg xmlns="http://www.w3.org/2000/svg" width="382.877" height="685.276" viewBox="0 0 382.877 685.276">
  <g id="Layer_x0020_1" transform="translate(-388.78 -91.722)">
    <path id="Path_6970" data-name="Path 6970" d="M1061.973,1028.137c-2.663-8.613-9.4-14.179-15.049-12.433s-6.375,9.688-5.407,18.757a12.178,12.178,0,0,0,1.915,4.5,18.968,18.968,0,0,1,2.325,9.442,26.236,26.236,0,0,0,1.2,8c1.818,5.884,7.681,9.765,11.987,11.905a7.2,7.2,0,0,0,9.7-3.431c2.391-5.095,3.595-12.781.21-18.9-1.383-2.5-6.38-16.222-6.887-17.845Z" transform="translate(-318.323 -450.696)" fill="#48475b"/>
    <path id="Path_6971" data-name="Path 6971" d="M930.432,984.95a46.747,46.747,0,0,0-4.8,4.844c-3.344,3.508-8,5.561-12.745,7.23-6.559,2.3-11.864,2.8-15.643,1.823a5.434,5.434,0,0,1-3.052-8.372c2.084-3,5.96-7,11.127-11.526,2.96-2.591,5.715-4.962,7.922-6.836a15.738,15.738,0,0,0,5.5-10.538c.21-2.238.486-4.255.835-4.388,8.009-3.042,19.412-1.362,21.455,2.5,0,0,2.274,11.9,2.274,14.844a6.329,6.329,0,0,1-4.02,6.309c-2.146.824-5.612,1.792-8.848,4.107Z" transform="translate(-246.134 -421.533)" fill="#48475b"/>
    <path id="Path_6972" data-name="Path 6972" d="M776.8,287.592a2.359,2.359,0,0,1,1.654-.778c-1.244-3.149-1.48-5.786-.282-7.507,4.4-6.293,24.123,11.875,24.123,11.875s-2.161-5.494-3-7.276c-.942-2.007-.364-4.265.758-5.11,2.161-1.623,4.726.983,5.249,2.478l7.184,11.788a17.09,17.09,0,0,1,2.094,5.172l.814,3.584a22.128,22.128,0,0,0,5.7,10.518s2.238,2.386,5.663,6L813.946,331c-5.013-8.049-8.208-13.616-8.208-13.616-3.748-3-8.27-5.858-11.823-9.488l-17.1-16.76a2.39,2.39,0,0,1-.164-3.38Z" transform="translate(-188.954 -90.885)" fill="#ffae92"/>
    <path id="Path_6973" data-name="Path 6973" d="M1016.379,421.22v28.639c0,4.322-7.276,283.74-7.276,283.74,0,7.087-26.8,7.737-26.7-1.444L968.307,527.82,962.772,701.7c.077,8.628-29.756,6.534-29.264-.655L929.33,469.148a52.747,52.747,0,0,1,1.147-12.059l85.908-35.864Z" transform="translate(-263.753 -160.777)" fill="#ed5564"/>
    <path id="Path_6974" data-name="Path 6974" d="M992.822,623.806,979.57,615.7l8.116,161.7Z" transform="translate(-288.272 -255.672)" fill="#a4a7b5"/>
    <path id="Path_6975" data-name="Path 6975" d="M848.537,303.725c-2.576.9-11.035,7.4-13.447,11.572,0,0,37.088,61.846,46.152,54.2,6.262-5.289,29.136-64.56,32.8-87.1a7.374,7.374,0,0,0-.978-5.617,7.621,7.621,0,0,0-4.921-3.467s-21.056-9.837-21.926-6.181c-2.253,9.422-12.817,49.034-14.517,58.764l-23.155-22.172Z" transform="translate(-217.774 -85.194)" fill="#4b1e59"/>
    <path id="Path_6976" data-name="Path 6976" d="M934.149,255.118,933.57,367.5c0,9.406,7.036,16.7,17.067,21.665a56.822,56.822,0,0,0,5.356,2.34c24.6,9.406,60.971,6.984,63.444-9.248l2.145-66.675,11.009-36.458c0-17.7-8.971-26.238-23.949-35.316-1.439-.9-2.96-1.767-4.506-2.663l-22.863-13.2c-1.116-.574-9.734,4.107-10.82,3.666A31.19,31.19,0,0,0,961.4,229.3c-14.082-1.47-27.252,6.7-27.252,25.818Z" transform="translate(-265.827 -66.445)" fill="#dec3de"/>
    <path id="Path_6977" data-name="Path 6977" d="M1010.6,240.842c5.6,2.058,13.488,1.541,17.692-1.183,1.695-1.106,2.509-2.432,2.509-3.764l.077,8.193a4.962,4.962,0,0,1-2.581,3.758c-4.2,2.729-12.09,3.241-17.692,1.178-3.241-1.178-5.013-3.021-5.013-4.941V235.89c0,1.92,1.772,3.764,5.013,4.941Z" transform="translate(-300.969 -70.346)" fill="#dec3de"/>
    <path id="Path_6978" data-name="Path 6978" d="M1005.57,167.083h25.29V162.06h-25.29Z" transform="translate(-300.959 -34.321)" fill="#e3e5f1"/>
    <path id="Path_6979" data-name="Path 6979" d="M1030.865,207.827a4.97,4.97,0,0,1-2.581,3.764c-4.2,2.724-12.09,3.241-17.692,1.178-3.241-1.178-5.013-3.021-5.013-4.941V171.86h25.285Z" transform="translate(-300.964 -39.103)" fill="#ffae92"/>
    <path id="Path_6980" data-name="Path 6980" d="M915.235,383.744c0,10.466,9.212,16.309,14.921,18.92a3.028,3.028,0,0,0,4.322-2.827c-.384-11.583-2.315-60.643,2.99-102.969,2.663-21.281,7.148-40.913,14.594-53.141,3.641-5.955,9.652-10.6,9.053-10.712-3.318-.681-5.141-1.879-7.614-2.371a6.5,6.5,0,0,0-1.06-.159c-14.082-1.47-27.835,7.036-27.835,26.146l-4.322,46.648-5.054,80.464Z" transform="translate(-256.878 -67.63)" fill="#702b85"/>
    <path id="Path_6981" data-name="Path 6981" d="M1007.277,428.134c17.154,3.17,41.825-2,43.98-16.079l1.045-57.043c.1-5.489.415-10.973.922-16.427.067-.635.123-1.234.189-1.869.507-5.141,1.178-10.246,2.064-15.316a227.692,227.692,0,0,1,6.529-27.938,34.058,34.058,0,0,0,1.49-9.765,28.329,28.329,0,0,0-.691-6.309,27.265,27.265,0,0,0-.891-3.108,31.774,31.774,0,0,0-7.768-11.951c-.8-.794-1.618-1.557-2.473-2.284a88.673,88.673,0,0,0-11.7-8.239c-1.429-.886-2.955-1.741-4.506-2.663l-8.4-4.865.727,4.854a15.231,15.231,0,0,1-.635,5.535,108.773,108.773,0,0,1-3.554,11.019c-.855,2.309-1.808,4.788-2.816,7.353-4.952,12.745-11.2,27.938-13.984,40.048-1.178,5.044-2.192,11.352-3.108,18.362-.476,3.8-.947,7.793-1.362,11.926-.8,7.865-1.459,16.1-2.033,24.1-1.772,25.111-2.443,47.754-2.443,47.754a11.715,11.715,0,0,0,9.417,12.909Z" transform="translate(-297.156 -74.44)" fill="#702b85"/>
    <path id="Path_6982" data-name="Path 6982" d="M1005.57,181.31v26.509a7.275,7.275,0,0,0,10.615,6.452c7.179-3.661,14.67-10.128,14.67-16.657v-16.3H1005.57Z" transform="translate(-300.959 -43.714)" fill="#ff936e"/>
    <path id="Path_6983" data-name="Path 6983" d="M972.261,149.445c2.693,16.2,11.6,21.245,21.624,19.883a30.655,30.655,0,0,0,8.531-2.473c9.611-4.219,16.934-12.812,21.184-21.7a41.478,41.478,0,0,0,4.061-13.539c1.966-18.705-9.417-31.389-24.922-33.007-35.352-3.707-31.645,43.632-30.472,50.832Z" transform="translate(-284.363 -3.262)" fill="#ffae92"/>
    <path id="Path_6984" data-name="Path 6984" d="M969.662,100.738c4.271-7.251,12.807-8.654,20.892-8.946,14.03-.5,24.6,1.582,29.085,9.063,13.59-.451,14.128,47.8-8.28,54.421,0,0,10.748-11.066,10.548-24.169-.031-1.879-5.192-.317-8.229.609a7.892,7.892,0,0,0-.881,3.344c-.22,2.161-6.539,2.719-6.662-4.921a16.614,16.614,0,0,0-2.791-9.709,3.864,3.864,0,0,1-.353-4.127l2.437-4.44-4.532,3.154a4.308,4.308,0,0,1-4.107.445c-5.29-2.192-11.885-2.386-17.169-2.786a8.859,8.859,0,0,0-9.227,6.7c-.456,1.828-1.751,10.251-1.751,10.251s-7.45-14.5,1.014-28.89Z" transform="translate(-281.462)" fill="#a16db7"/>
    <path id="Path_6985" data-name="Path 6985" d="M1055.5,166.046c-3.2,4.511-3.421,9.867-.481,11.951s7.916.1,11.117-4.424,3.421-9.867.486-11.951S1058.71,161.52,1055.5,166.046Z" transform="translate(-324.077 -33.704)" fill="#ffae92"/>
    <path id="Path_6986" data-name="Path 6986" d="M1015.16,209.951a30.655,30.655,0,0,0,8.531-2.473c9.611-4.219,16.934-12.812,21.184-21.7a4.385,4.385,0,0,0-3.042-3.677,7.411,7.411,0,0,0-2.571-.445c-3.8,0-5.735,2.888-6.877,4.629l-.635.922c-3.456.031-6.882,2.437-10.431,7.353-.794,1.111-1.557,2.284-2.217,3.328a20.592,20.592,0,0,0-2.919,8.024,16.953,16.953,0,0,1-.727,3.139l-.287.886Z" transform="translate(-305.638 -43.885)" fill="#ff936e"/>
    <path id="Path_6987" data-name="Path 6987" d="M1055.154,168.86c-3.886,5.146-14.2,19.361-18.521,25.311a3.241,3.241,0,0,0,.778,4.562l11.547,7.988a2.468,2.468,0,0,0,3.385-.558l18.3-24.85a3.236,3.236,0,0,0-.681-4.521l-11.393-8.413a2.46,2.46,0,0,0-3.421.481Z" transform="translate(-315.816 -37.168)" fill="#ed5564"/>
    <path id="Path_6988" data-name="Path 6988" d="M1002.71,439.257c17.6,7.584,37.191-14.87,51.943-27.969l.983-.922c.543-5.771,1.27-11.48,2.253-17.185.092-.609.184-1.178.313-1.782l-54.037,29.679c-.533,6.027-1.009,12.177-1.454,18.168Z" transform="translate(-299.563 -146.226)" fill="#4b1e59"/>
    <path id="Path_6989" data-name="Path 6989" d="M1009.34,341.348a105.234,105.234,0,0,0,1.618,14.619l23.37-41.8L1032.8,264.56c-1.541,2.473-3.554,2.914-5.1,7.159-.855,2.315-2.949,9.186-3.968,11.762-4.941,12.745-8.5,27.39-11.286,39.505C1011.271,328.029,1010.257,334.338,1009.34,341.348Z" transform="translate(-302.798 -84.335)" fill="#4b1e59"/>
    <path id="Path_6990" data-name="Path 6990" d="M1016.733,210.558a16.76,16.76,0,0,1,2.606-7.138c.666-1.075,1.429-2.253,2.217-3.333,2.6-3.641,5.74-6.626,8.72-6.37,3.206.312,3.487-7.481,9.166-5.581,2.914.983.952,10.338.922,13.948,0,2.094,7.829-14.112,11.634-11.03,2.581,2.089-3.63,11.255-8.336,18.434.8-.691,2.335-2.023,3.482-3.062l.932-.85.179-.174a3.766,3.766,0,0,1,4.434-.84c1.956,1.28.553,4.143-.558,5.018l-7.584,9.314a15.338,15.338,0,0,1-3.651,3.236l-2.714,1.695a19.1,19.1,0,0,0-6.979,7.763s-.287.584-.845,1.633c-.292.5-.609,1.167-1.019,1.925l-.2.62a13.017,13.017,0,0,0-.353,2.289l-.758-.195-7.01-1.649-9.514-2.284a106.455,106.455,0,0,0,5.228-23.365Z" transform="translate(-303.852 -46.899)" fill="#ffae92"/>
    <path id="Path_6991" data-name="Path 6991" d="M987.191,373.263c22.74,11.875,59.875-32.459,64.248-39.126,15.213-23.13,12.725-40.852-4.624-56.121-4.076-3.871-36.791,57.3-36.791,57.3l6.247-53.935c-.773-3.656-17.231-6.375-20.708-4.1,0,0-21.957,88.888-8.377,95.98Z" transform="translate(-289.826 -90.136)" fill="#702b85"/>
    <path id="Path_6992" data-name="Path 6992" d="M390.562,743.3a2.234,2.234,0,0,0,1.68-.179c.533,3.077,1.608,5.269,3.38,6.042,6.483,2.852,13.313-20.917,13.313-20.917s.927,5.366,1.121,7.169c.22,2.033,1.761,3.538,3.047,3.661,2.483.246,3.252-3.042,2.949-4.465l.01-12.735a15.966,15.966,0,0,0-.83-5.074l-1.075-3.211a20.384,20.384,0,0,1-.548-11.025s.62-2.955,1.582-7.44l-16.171-3.835c-.092,8.746.061,14.66.061,14.66-1.516,4.158-3.712,8.587-4.767,13.15l-5.443,21.4a2.2,2.2,0,0,0,1.485,2.74l.2.067Z" transform="translate(0 -292.556)" fill="#ffae92"/>
    <path id="Path_6993" data-name="Path 6993" d="M582.86,373.151l20.237-.031s8.357,72.533,10.19,74.53c5.52,6.017,25.69,50.837,36.018,62.645l-14.051,9.75C620.732,509.1,588.129,466.33,582.532,458.2c-4.772-6.928-10.922-77.392-10.922-77.392.43-2.453,8.813-8.157,11.255-7.655Z" transform="translate(-89.211 -137.306)" fill="#c4414e"/>
    <path id="Path_6994" data-name="Path 6994" d="M450.571,1104.4c2.622-8.49,9.263-13.979,14.834-12.254s6.278,9.545,5.325,18.485a11.975,11.975,0,0,1-1.889,4.429,18.738,18.738,0,0,0-2.294,9.309,25.817,25.817,0,0,1-1.188,7.886c-1.792,5.792-7.568,9.622-11.813,11.731a7.1,7.1,0,0,1-9.56-3.385c-2.361-5.018-3.543-12.6-.21-18.623,1.357-2.463,6.288-15.986,6.785-17.584Z" transform="translate(-25.829 -487.997)" fill="#363645"/>
    <path id="Path_6995" data-name="Path 6995" d="M559.988,1062.928a47.39,47.39,0,0,1,4.731,4.767c3.3,3.456,7.88,5.479,12.561,7.123,6.462,2.274,11.69,2.76,15.413,1.8a5.356,5.356,0,0,0,3.011-8.254c-2.053-2.949-5.868-6.9-10.963-11.362-2.914-2.55-5.633-4.885-7.8-6.734a15.519,15.519,0,0,1-5.418-10.385c-.2-2.207-.481-4.194-.824-4.322-7.891-3-19.125-1.342-21.143,2.463,0,0-2.233,11.731-2.233,14.629a6.238,6.238,0,0,0,3.958,6.221c2.12.809,5.535,1.767,8.72,4.051Z" transform="translate(-77.359 -459.786)" fill="#363645"/>
    <path id="Path_6996" data-name="Path 6996" d="M441.475,503.05v28.363c0,4.286,7.21,277.9,7.21,277.9,0,7.02,26.54,7.671,26.453-1.424L489.1,608.636l5.479,169.091c-.077,8.541,29.474,6.467,28.988-.65L527.7,550.528a52.282,52.282,0,0,0-1.137-11.946L441.47,503.05Z" transform="translate(-25.71 -200.705)" fill="#702b85"/>
    <path id="Path_6997" data-name="Path 6997" d="M534.48,703.709,547.6,695.68l-8.039,160.171Z" transform="translate(-71.093 -294.698)" fill="#4b1e59"/>
    <path id="Path_6998" data-name="Path 6998" d="M430.759,360.114l5.709,37.293L429.3,463.093c.271,24.727,81.775,29.008,86.251-2.514L531.158,350.7c2.663-18.741-9.632-28.987-23.642-29.53a30.923,30.923,0,0,0-9.2,1.019c-1.152.276-8.94-5.525-10.118-5.115l-24.246,9.765c-1.649.681-3.267,1.321-4.813,1.977-15.93,6.826-25.931,13.948-28.394,31.3Z" transform="translate(-19.771 -109.947)" fill="#ffce54"/>
    <path id="Path_6999" data-name="Path 6999" d="M543.886,261.658l-5.709,40.2c-.266,1.879-2.258,3.441-5.607,4.148-5.776,1.239-13.441-.358-17.185-3.62-1.505-1.321-2.12-2.734-1.936-4.035l5.633-40.207,24.8,3.518Z" transform="translate(-60.816 -81.203)" fill="#ffae92"/>
    <path id="Path_7000" data-name="Path 7000" d="M588.706,480.562c-.952,6.713-9.862,12.479-15.915,15.664a3.159,3.159,0,0,1-4.568-3.339C571.3,474.648,578.388,429.305,579,392.268c.353-21.245-1.311-41.118-6.913-54.15-2.745-6.344-7.983-11.741-7.389-11.767,3.349-.2,5.3-1.121,7.793-1.255a6.132,6.132,0,0,1,1.07-.021c14.01.522,28.481,10.83,25.818,29.576l-4.424,46.305-6.252,79.6Z" transform="translate(-85.814 -113.857)" fill="#ed5564"/>
    <path id="Path_7001" data-name="Path 7001" d="M422.82,367.419l1.014,3.467,9.273,32.572-9.683,78.734-1.014,8.254a7.013,7.013,0,0,0,2.453,4.987c4.475,4.245,14.512,6.949,24.307,8.628,6.826,1.178,13.534,1.869,18.168,2.243a6.32,6.32,0,0,0,6.821-5.612c2-18.736,7.758-76.24,5.638-101.126-1.982-22.746-14.071-57.5-11.675-65.6l1.342-4.506-8.864,3.426c-1.659.661-3.252,1.306-4.813,1.977-15.951,6.81-30.5,15.2-32.966,32.551Z" transform="translate(-16.409 -116.003)" fill="#ed5564"/>
    <path id="Path_7002" data-name="Path 7002" d="M434.068,474.09,424.4,552.767l1.439,13.242c4.475,4.245,14.512,6.949,24.307,8.628l1-59.486a50.274,50.274,0,0,1,.22-7.159c.5-4.885,1.869-18.782,3.1-31.773l-20.405-2.13Z" transform="translate(-17.38 -186.574)" fill="#c4414e"/>
    <path id="Path_7003" data-name="Path 7003" d="M447.86,430.166c-2.13,9.791-11.393,45.937-13.549,54.38a48.9,48.9,0,0,0-1.316,7.046l-10.041,70.546c-.681,6.268-23.278,3.938-22.986-1.608l2.453-72.471a53.471,53.471,0,0,1,.732-6.636l8.715-77.833,35.992,26.571Z" transform="translate(-5.457 -152.174)" fill="#ed5564"/>
    <path id="Path_7004" data-name="Path 7004" d="M545.721,270.923l-3.692,26a7.208,7.208,0,0,1-11.311,4.844c-6.539-4.583-12.976-11.972-12.069-18.378l2.274-15.986,24.8,3.523Z" transform="translate(-63.327 -85.721)" fill="#ff936e"/>
    <path id="Path_7005" data-name="Path 7005" d="M554.719,249.268c-5.868,19.924-19.094,20.569-30.769,13.237-7.394-4.639-15.843-12.223-16.007-20.257-.143-6.575-3.646-12.32-3.5-17.6.5-18.639,12.894-29.617,27.81-29.218,33.985.906,24.5,46.94,22.469,53.838Z" transform="translate(-56.436 -50.599)" fill="#ffae92"/>
    <path id="Path_7006" data-name="Path 7006" d="M493.356,193.736c5.858-9.949,21.686-18.4,43.556-10.154a46.075,46.075,0,0,1,4.409,1.946,20.847,20.847,0,0,1,10.876,22.95c-.845,3.707-1.219,7.312-2.273,9.97,0,0-.64-7.394-1.362-10.717-8.178,2.115-29.53-6.964-33.57,13.682a4.657,4.657,0,0,1-6.462,3.385,9.047,9.047,0,0,1-3.912-2.8c-1.654-2.683-4.711-3.482-5.238-1.705-1.459,4.962,1.106,9.975,1.157,13.836a13.938,13.938,0,0,0,2.443,8.08c-16.073-15.725-16.749-36.356-9.616-48.476Z" transform="translate(-48.915 -43.195)" fill="#4b1e59"/>
    <path id="Path_7007" data-name="Path 7007" d="M515.481,256.171c1.429,5.668-.4,11.014-4.076,11.941s-7.824-2.919-9.248-8.582.4-11.019,4.081-11.941,7.824,2.914,9.248,8.582Z" transform="translate(-55.084 -75.987)" fill="#ffae92"/>
    <path id="Path_7008" data-name="Path 7008" d="M423.45,819.79v196.4l150.058,88.826.8-197.715Z" transform="translate(-16.917 -355.256)" fill="#43aed1"/>
    <path id="Path_7009" data-name="Path 7009" d="M831.77,755.12V884.783l133.14,75.457.778-197.725Z" transform="translate(-216.154 -323.701)" fill="#43aed1"/>
    <path id="Path_7010" data-name="Path 7010" d="M774.28,677.091,623.449,589.57l-200,117.886,150.857,87.516Z" transform="translate(-16.917 -242.922)" fill="#4fc1e8"/>
    <path id="Path_7011" data-name="Path 7011" d="M767.212,857.824l-.579.353a3.179,3.179,0,0,0-1.746-1.311l-32.039-9.918a6.494,6.494,0,0,0-6.319,1.531l-8.725,8.362-.379.476H716.8V859.7a3.234,3.234,0,0,0,2.3,2.581l32.1,10.154a6.492,6.492,0,0,0,6.462-1.608l8.6-8.551a3.271,3.271,0,0,0,.958-2.084v-2.366Z" transform="translate(-160.055 -368.379)" fill="#4b1e59"/>
    <path id="Path_7012" data-name="Path 7012" d="M717.791,853.165l8.725-8.352a6.472,6.472,0,0,1,6.319-1.536l32.039,9.924a3.244,3.244,0,0,1,1.367,5.407l-8.6,8.551a6.481,6.481,0,0,1-6.462,1.608l-32.1-10.154a3.243,3.243,0,0,1-1.3-5.443Z" transform="translate(-160.048 -366.588)" fill="#702b85"/>
    <path id="Path_7013" data-name="Path 7013" d="M755.029,868.971a4.007,4.007,0,0,1-1.2-.179l-31.681-10.036a1.9,1.9,0,0,1-.742-3.18l8.741-8.423a4.127,4.127,0,0,1,2.847-1.142,4.075,4.075,0,0,1,1.168.169l31.8,9.826a1.806,1.806,0,0,1,.743,3l-8.761,8.777a4.116,4.116,0,0,1-2.9,1.193Z" transform="translate(-162.015 -368.05)" fill="#4b1e59"/>
    <path id="Path_7014" data-name="Path 7014" d="M774.411,700.33a7.066,7.066,0,0,0-3.559-6.467l-55.573-31.9a14.311,14.311,0,0,0-14.281,0l-45.819,26.581a7.265,7.265,0,0,0,.005,12.52l55.614,31.87a14.262,14.262,0,0,0,14.281,0l45.783-26.555a7.036,7.036,0,0,0,3.533-5.622l.02-.425Z" transform="translate(-128.241 -277.313)" fill="#a16db7"/>
    <path id="Path_7015" data-name="Path 7015" d="M772.009,734.628,726.231,761.2a14.336,14.336,0,0,1-14.281,0l-55.614-31.891a7.05,7.05,0,0,1-2.366-2.217l.015.323a5.821,5.821,0,0,0,2.955,4.89l55.609,31.881a13.06,13.06,0,0,0,13.083,0l45.788-26.56a5.859,5.859,0,0,0,2.939-4.675l.015-.522a7.122,7.122,0,0,1-2.366,2.207Z" transform="translate(-129.398 -310.024)" fill="#8116af"/>
    <path id="Path_7016" data-name="Path 7016" d="M665.423,693.3l43.858-25.326a11.3,11.3,0,0,1,11.322,0l48.758,27.687,3.3,1.889a2.908,2.908,0,0,1,0,5.039L728.8,727.917a11.32,11.32,0,0,1-11.322,0l-52.061-29.576a2.914,2.914,0,0,1,0-5.039Z" transform="translate(-134.276 -280.435)" fill="#dadae2"/>
    <path id="Path_7017" data-name="Path 7017" d="M664.071,696.482a2.868,2.868,0,0,0,1.372,1.854L717.5,727.912a11.306,11.306,0,0,0,11.327,0l43.858-25.331a2.908,2.908,0,0,0,0-5.039l-3.3-1.889-48.758-27.687a11.338,11.338,0,0,0-11.327,0l-43.858,25.326a2.9,2.9,0,0,0-1.372,3.185Z" transform="translate(-134.291 -280.435)" fill="#fff"/>
    <path id="Path_7018" data-name="Path 7018" d="M723.452,715.481a1.644,1.644,0,0,1,.784-1.813l14.332-8.28-20.4-11.588a6.479,6.479,0,0,0-6.452,0l-24.968,14.425a1.65,1.65,0,0,0-.789,1.813,1.627,1.627,0,0,0,.789,1.055l29.638,16.842a6.469,6.469,0,0,0,6.447,0l10.641-6.15-9.243-5.254a1.636,1.636,0,0,1-.784-1.055Z" transform="translate(-144.986 -293.361)" fill="#ac92eb"/>
    <path id="Path_7019" data-name="Path 7019" d="M821.112,720.734l-1.874-1.08-7.358-4.184-14.338,8.28a1.651,1.651,0,0,0-.783,1.818,1.678,1.678,0,0,0,.783,1.055l9.243,5.254,14.327-8.28a1.654,1.654,0,0,0,0-2.867Z" transform="translate(-199.05 -304.354)" fill="#a0d568"/>
    <path id="Path_7020" data-name="Path 7020" d="M717.367,878.37l-.727,197.6,7.906-4.834.7-187.873L909.434,774.828l-.7,188.032,7.906-4.829.7-197.541Z" transform="translate(-159.977 -326.321)" fill="#2f93b5"/>
    <path id="Path_7021" data-name="Path 7021" d="M729.913,657.688c-.189,1.045-.343,1.941-.343,1.941,1.879,2.422,12.023,6.877,11.322,8.859-2.079,5.853-23.611-6.708-23.611-6.708s3.282,4.219,4.46,5.556a3.964,3.964,0,0,1,.64,4.629c-1.459,1.961-4.353.348-5.182-.814l-9.243-8.4a15.611,15.611,0,0,1-3.134-3.953l-1.613-2.9c-1.787-3.211-6.882-8.464-8.449-10.564l10.656-7.957a13.593,13.593,0,0,0,5.546,3.825,64.937,64.937,0,0,1,9.34,3.948s7.128,3.784,8.428,6.416a8.545,8.545,0,0,1,1.183,6.14Z" transform="translate(-149.301 -266.246)" fill="#ffae92"/>
    <path id="Path_7022" data-name="Path 7022" d="M687.96,627.454l4.066,3.441c4.271.2,13.36-5.525,14.051-9.75L693,600.3l-5.034,27.154Z" transform="translate(-145.983 -248.158)" fill="#c4414e"/>
    <path id="Path_7023" data-name="Path 7023" d="M772.6,731.827l-7.077,11.48c-4.153-2.873-6.693-4.757-6.693-4.757-3.661-.983-7.824-1.613-11.537-3.088l-17.625-6.611a1.9,1.9,0,0,1-1.178-2.376,2.062,2.062,0,0,1,.983-1.26c-1.889-1.884-2.9-3.687-2.57-5.33,1.178-5.9,21.127.9,21.127.9s-3.3-3.277-4.475-4.291a3.442,3.442,0,0,1-1.07-3.912c1.04-1.859,3.718-.794,4.568.113l8.91,6.2a13.318,13.318,0,0,1,3.144,3.062l1.721,2.325a17.566,17.566,0,0,0,7.461,5.74s1.639.707,4.317,1.8Z" transform="translate(-164.955 -302.446)" fill="#ffae92"/>
    <path id="Path_7024" data-name="Path 7024" d="M1033.76,1023.774l3.3,54.984a62.951,62.951,0,0,0,2.489,14.629l21.5,82.467c-2.483-1.536-6.124-3.236-8.7-3.369-.937-.046-1.792-.092-2.668-.092h-1.516a6.029,6.029,0,0,0-5.586,4.1,9.4,9.4,0,0,0-.225,1.06s0,6.068,7.456,11.542c1.055.789,2.483,1.751,4,2.719a75.657,75.657,0,0,1,11.777,9.2,11.3,11.3,0,0,0,7.369,3.405,7.628,7.628,0,0,0,8-8.1c-.046-.461-.092-1.29-.184-2.115-.046-.369-.092-.737-.143-1.106-.046-.461-.092-.737-.138-1.055-.271-1.895-.579-4.009-.9-5.986a110.82,110.82,0,0,1-1.383-13.441c-.968-19.509-4.143-68.738-12.469-95.98l6.713-57.064-38.681,4.2Z" transform="translate(-314.714 -452.738)" fill="#ff936e"/>
    <path id="Path_7025" data-name="Path 7025" d="M1050.51,1323.084s0,6.068,7.456,11.542c1.055.789,2.483,1.751,4,2.719a75.649,75.649,0,0,1,11.777,9.2,11.3,11.3,0,0,0,7.369,3.405c4.552.23,8.572-1.229,8-8.1-.046-.461-.092-1.29-.184-2.115-.046-.369-.092-.737-.143-1.106-.092-.507-.092-.783-.138-1.055-.548,2.3-3.1,2.893-5.08,2.8-2.99-.133-5.627-.855-7.655-2.74-3.63-3.451-29.7-18.332-13.58-19.31l-1.89-.307c-7.742-.911-8.925,1.654-9.709,4a9.424,9.424,0,0,0-.225,1.06Z" transform="translate(-322.887 -598.273)" fill="#7ba84c"/>
    <path id="Path_7026" data-name="Path 7026" d="M1010.7,1238.4c-3.682,5.51-11.777,2.4-18.209,1.075l-19.171-2.56c-6.949-1.4-11.511-6.319-12.791-10.548a5.47,5.47,0,0,1,4.475-5.991l14.609-1.2a14.114,14.114,0,0,0,10.272-4.716,5.579,5.579,0,0,0,1.239-4.952c-4.834-21.133-21.332-97.035-29.361-163.51l43.223-2.079-3.277,54.176c4.834,29.52,9.15,119.76,10.712,128.424C1013.143,1230.431,1012.333,1235.961,1010.7,1238.4Z" transform="translate(-278.965 -464.619)" fill="#ffae92"/>
    <path id="Path_7027" data-name="Path 7027" d="M965,1387.783l9.365-.773c-3.728,1.04-4.977,4.455-1.208,7.056,4.3,2.965,39.126,7.87,39.259-.138.169,1.577.241,2.837.276,3.462a14.115,14.115,0,0,1-2,8.413c-3.62,5.694-11.793,2.376-18.209,1.075l-19.171-2.56c-6.969-1.413-11.526-6.308-12.791-10.548a5.459,5.459,0,0,1,4.475-5.991Z" transform="translate(-278.963 -632.028)" fill="#7ba84c"/>
    <path id="Path_7028" data-name="Path 7028" d="M976.2,705.063s69.066,17.492,79.978,2.837c4.885-6.554-17.5-82.958-17.5-82.958l-4.132-3.9-17.891,3.748c-2.381.486-5.5-3.292-5.5-3.292,2.212,9.616,13.984,56.51,16.775,67.515.44,1.705-51.492,1.557-51.492,1.557,3.861,1.367,3.595,13.134-.236,14.491Z" transform="translate(-286.628 -258.278)" fill="#4b1e59"/>
    <path id="Path_7029" data-name="Path 7029" d="M952.355,783.3l.072.533.189,1.613.2-1.034a3.818,3.818,0,0,1-.471-1.111Z" transform="translate(-274.991 -337.451)" fill="#433083"/>
    <path id="Path_7030" data-name="Path 7030" d="M967.622,825.095c0,2.038.4,12.243.64,18.275a10.034,10.034,0,0,1-3.282,8.08c-18.992,16.232-72.016,19.832-92.81,2.637a10.172,10.172,0,0,1-3.6-7.517c-.123-3.036-.282-7.036-.358-9.519-1.92-59.66,2.437-94.372,11.6-122.161.159-.517.323-1,.522-1.48l.082-.276c.317-2.361.558-4.68.676-6.718a10.227,10.227,0,0,0,.041-1.08v-.794l-.041-.845c-.236-5.479-2.637-17.113-2.637-17.113s-2.637,7.834-5.32,14.916c-.758,2.079-1.557,4.076-2.238,5.8-1.157,2.719-2.12,4.716-2.678,5.121-18.316,13.354-73.777-27.149-73.777-27.149-.758-3.277,3.159-10.876,6.36-12,0,0,49.265,18.915,49.705,16.4,1.157-5.919,11.875-52.066,11.875-52.066a28.886,28.886,0,0,1,7.44-16.273,54.176,54.176,0,0,1,9.76-8.157c3.753-2.591,8.654.271,12.771-1.6,7.358-3.282,18.378-13.559,18.378-13.559,1.121-.6,2.161,3.436,3.318,2.955,2-.84,4.393-2.315,6.636-3.2a12.745,12.745,0,0,1,2.325-.671c14.435-1.879,28.788,6.554,28.629,27.508l.758,14.962a118.7,118.7,0,0,1-1.879,27.907c-1.08,8.92-3.682,20.4-3.682,29.274v.476a21.6,21.6,0,0,0,.241,3.359l.082.681a14.359,14.359,0,0,0,1.239,4.639,23.935,23.935,0,0,0,1.08,2.76l.241.517c25.751,49.664,17.236,68.861,17.912,115.924Z" transform="translate(-197.892 -246.47)" fill="#702b85"/>
    <path id="Path_7031" data-name="Path 7031" d="M938.93,1061.839l.015.584c.077,2.478.241,6.478.358,9.519a10.189,10.189,0,0,0,3.6,7.517c20.795,17.195,73.823,13.6,92.815-2.637a10.079,10.079,0,0,0,3.277-8.08c-.118-2.852-.266-6.616-.389-10.021-22.807,16.365-76.691,20.37-99.677,3.118Z" transform="translate(-268.442 -471.841)" fill="#4b1e59"/>
    <path id="Path_7032" data-name="Path 7032" d="M1031.408,807.505c-20.354,9-50.386,12.156-69.138,4.757l.082-.276c.318-2.361.558-4.68.676-6.718a10.212,10.212,0,0,0,.041-1.08c18.352,6.437,46.223,3.518,65.937-4.757l.082.681a14.363,14.363,0,0,0,1.239,4.639,23.957,23.957,0,0,0,1.08,2.76Z" transform="translate(-279.831 -345.322)" fill="#ed5564"/>
    <path id="Path_7033" data-name="Path 7033" d="M1013.779,610.095c0,7.671-12.064,13.9-26.965,13.9-12.264,0-22.566-4.2-25.884-9.985a77.462,77.462,0,0,1,11.818-6.508C980.1,604.18,992,598.881,992,598.881c1.121-.6,2.161,3.436,3.318,2.955,2-.835,4.4-2.314,6.636-3.2,7.148,2.514,11.818,6.7,11.818,11.455Z" transform="translate(-279.177 -247.348)" fill="#ffae92"/>
    <path id="Path_7034" data-name="Path 7034" d="M958.561,515.586c4.4,18.4,16.79,19.729,28.173,13.733,12.689-6.687,20.067-22.126,20.441-33.248.574-16.929-10.461-27.584-24.5-28.061-31.983-1.086-25.639,41.195-24.118,47.57Z" transform="translate(-277.274 -183.598)" fill="#ffae92"/>
    <path id="Path_7035" data-name="Path 7035" d="M1018.571,540.99v36.889c0,1.726-1.593,3.385-4.511,4.445-5.044,1.859-12.146,1.393-15.93-1.06a4.213,4.213,0,0,1-2.253-3.385l-.067-36.889h22.756Z" transform="translate(-296.197 -219.218)" fill="#ffae92"/>
    <path id="Path_7036" data-name="Path 7036" d="M980.592,579.3a49.819,49.819,0,0,0,.21-7.046,51.775,51.775,0,0,0-2.3-13.37,54.076,54.076,0,0,1-2.929,12.981,47.155,47.155,0,0,1-3.036,6.877c-4.706-.737-8.515-2.125-10.784-4.363-4.921-4.854,9.109-38.635,3.559-64.673a43.036,43.036,0,0,1-9.176-13.646,10.29,10.29,0,0,0-4.224-5.059c-.456-.282-.906-.558-1.326-.84-7.712-5.443-9.074-17-2.791-25.582,5.407-7.368,21.22-17.451,37.134-11.132,41.953-15.075,31.691,86.061,41.953,109.447,3.559,8.1-25.234,16.678-46.28,16.4Z" transform="translate(-270.829 -175.531)" fill="#ed5564"/>
    <path id="Path_7037" data-name="Path 7037" d="M967.588,545.777c-2.919,3.876-3.236,8.556-.717,10.451s6.923.287,9.837-3.595,3.236-8.562.717-10.451S970.5,541.9,967.588,545.777Z" transform="translate(-281.247 -219.412)" fill="#ffae92"/>
    <path id="Path_7038" data-name="Path 7038" d="M496.02,824.63v6.6l56.751,32.884v-6.764Z" transform="translate(-52.327 -357.618)" fill="#c4414e"/>
    <path id="Path_7039" data-name="Path 7039" d="M651.286,838.65v6.928L606.85,870.951v-6.764Z" transform="translate(-106.406 -364.459)" fill="#c4414e"/>
    <path id="Path_7040" data-name="Path 7040" d="M597.207,807.168,540.461,774.13,496.02,799.989,552.771,832.7Z" transform="translate(-52.327 -332.977)" fill="#ed5564"/>
    <path id="Path_7041" data-name="Path 7041" d="M522.34,817.31v5.909l50.832,29.464v-6.068Z" transform="translate(-65.17 -354.046)" fill="#ac92eb"/>
    <path id="Path_7042" data-name="Path 7042" d="M661.417,829.88v6.206l-39.807,22.73v-6.068Z" transform="translate(-113.608 -360.18)" fill="#ac92eb"/>
    <path id="Path_7043" data-name="Path 7043" d="M612.979,801.677l-50.827-29.6L522.34,795.24l50.832,29.3Z" transform="translate(-65.17 -331.977)" fill="#dec3de"/>
    <path id="Path_7044" data-name="Path 7044" d="M519.34,781.54v9.816l40.9,23.7V805.12Z" transform="translate(-63.706 -336.593)" fill="#4b1e59"/>
    <path id="Path_7045" data-name="Path 7045" d="M631.244,791.64V801.7L599.22,819.987v-9.939Z" transform="translate(-102.683 -341.521)" fill="#4b1e59"/>
    <path id="Path_7046" data-name="Path 7046" d="M592.267,768.946,551.374,745.13,519.34,763.774l40.9,23.58Z" transform="translate(-63.706 -318.827)" fill="#702b85"/>
  </g>
</svg>
