<svg xmlns="http://www.w3.org/2000/svg" width="711.967" height="628.558" viewBox="0 0 711.967 628.558">
  <g id="Layer_x0020_1" transform="translate(-14111.393 -224.053)">
    <path id="Path_127" data-name="Path 127" d="M17223,6392.686v-2.058a8.612,8.612,0,0,1,8.625-8.627h72.531a8.617,8.617,0,0,1,8.625,8.627v2.058Z" transform="translate(-2930.507 -5559.213)" fill="#38e6f1"/>
    <path id="Path_128" data-name="Path 128" d="M17403.189,5571.943,17377,5653.4h56.084l-24.34-81.356A2.929,2.929,0,0,0,17403.189,5571.943Z" transform="translate(-3068.688 -4830.62)" fill="#89faff"/>
    <path id="Path_129" data-name="Path 129" d="M17460.17,5848h21.977l9.463,31.637h-41.617Z" transform="translate(-3134.179 -5080.066)" fill="#38e6f1"/>
    <path id="Path_130" data-name="Path 130" d="M16075.711,814.889a29.61,29.61,0,1,1,10.99-40.37A29.611,29.611,0,0,1,16075.711,814.889Zm51.043-43.966-7.184-12.533-11.291,1.643-9.352-11.71,4.822-11.71-12.625-8.321-9.348,9.45-12.437-2.157L16064.314,721l-15,1.644-.932,12.738-11.187,5.65-11.814-8.423-12.121,8.834,6.254,13.457-7.184,10.786-12.949-.719L15996,781.093l12.328,4.725,1.123,13.559-12.83,7.293,6.043,13.971,13.361-2.054,8.729,10.17-4.508,12.635,12.121,8.628,9.539-10.273,13.154,3.6,4.115,13.56,14.693-1.027,1.84-12.224,12.539-7.191,10.266,8.218,13.051-9.656-6.578-11.5,6.369-11.4,13.246.924,4.012-15-11.3-6.06-1.543-13.662Z" transform="translate(-1829.55 -479.727)" fill="rgba(137,250,255,0.73)"/>
    <path id="Path_132" data-name="Path 132" d="M16731.42,979.989c.2.1-3.793,6.574-8.934,14.381-5.152,7.7-9.461,13.97-9.549,13.868-.209-.1,3.775-6.574,8.93-14.278C16727.008,986.152,16731.314,979.886,16731.42,979.989Z" transform="translate(-2472.833 -712.111)" fill="#ededeb"/>
    <path id="Path_133" data-name="Path 133" d="M16795.43,1426.341a36.921,36.921,0,0,1-4.01-1.13c-2.461-.719-5.838-1.748-9.555-2.671-3.8-.925-7.289-1.541-9.762-2.055a22.908,22.908,0,0,1-4.1-.82,21.176,21.176,0,0,1,4.221.308,91.8,91.8,0,0,1,9.762,1.849c3.8.924,7.17,2.054,9.643,2.875A24.437,24.437,0,0,1,16795.43,1426.341Z" transform="translate(-2522.245 -1106.588)" fill="#ededeb"/>
    <path id="Path_134" data-name="Path 134" d="M16687.859,1518a19.969,19.969,0,0,1,1.336,3.493c.617,2.157,1.549,5.239,2.26,8.629.82,3.389,1.441,6.471,1.752,8.731a21.664,21.664,0,0,1,.4,3.594,21.035,21.035,0,0,1-.932-3.492c-.5-2.259-1.119-5.342-1.934-8.732-.723-3.389-1.549-6.368-2.066-8.628A28.62,28.62,0,0,1,16687.859,1518Z" transform="translate(-2450.325 -1194.858)" fill="#ededeb"/>
    <path id="Path_138" data-name="Path 138" d="M16527.855,1264.225a12.214,12.214,0,0,1-21.148,12.225,12.278,12.278,0,0,1,4.514-16.745A12.144,12.144,0,0,1,16527.855,1264.225Z" transform="translate(-2286.326 -961.627)" fill="#37e0f6"/>
    <path id="Path_152" data-name="Path 152" d="M18101.967,752.12a19.255,19.255,0,1,1,7.109-26.3A19.162,19.162,0,0,1,18101.967,752.12Zm33.3-28.556-4.73-8.217-7.395,1.027-6.061-7.6,3.176-7.6-8.219-5.445-6.148,6.164-8.01-1.439-3.3-9.45-9.865,1.028-.5,8.32-7.3,3.7-7.709-5.445-7.906,5.649,4.1,8.835-4.605,6.985-8.52-.411-2.275,10.478,8.115,3.081.723,8.834-8.426,4.725,4.014,9.142,8.729-1.335,5.65,6.575-2.99,8.217,7.914,5.649,6.273-6.676,8.521,2.26,2.668,8.833,9.555-.616,1.227-7.909,8.232-4.726,6.668,5.342,8.432-6.266-4.221-7.5,4.1-7.5,8.643.616,2.682-9.656-7.416-4.006-1.023-8.936Z" transform="translate(-2288.071 7262.613) rotate(-25)" fill="#89faff"/>
    <path id="Path_160" data-name="Path 160" d="M18397.131,1044.966a7.912,7.912,0,0,1-2.98,10.786,7.8,7.8,0,0,1-10.793-2.876,7.914,7.914,0,0,1,2.889-10.889A8.03,8.03,0,0,1,18397.131,1044.966Z" transform="translate(-3970.683 -766.493)" fill="#89faff"/>
    <path id="Path_230" data-name="Path 230" d="M16486.775,4622.939c-.092,0-.4-.621-1.332-1.542a8.267,8.267,0,0,0-5.039-2.36,8.094,8.094,0,0,0-7.3,2.873,8.191,8.191,0,0,0-.814,9.347,8.266,8.266,0,0,0,15.105-6.363c-.311-1.237-.711-1.954-.619-1.954a3.209,3.209,0,0,1,.309.409,6.468,6.468,0,0,1,.617,1.441,8.848,8.848,0,0,1-11.918,10.579,8.937,8.937,0,0,1-4.109-3.7,9.682,9.682,0,0,1-1.135-5.442,8.369,8.369,0,0,1,2.061-4.726,8.824,8.824,0,0,1,7.906-3.084,9.034,9.034,0,0,1,5.137,2.773,11.511,11.511,0,0,1,.912,1.231C16486.684,4622.732,16486.775,4622.939,16486.775,4622.939Z" transform="translate(-2255.298 -3976.731)" fill="#74767b"/>
    <path id="Path_231" data-name="Path 231" d="M16615.148,4487.98a80.767,80.767,0,0,1-4.738,7.908c-2.859,4.21-5.227,7.6-5.441,7.5a66.822,66.822,0,0,1,4.727-7.914C16612.57,4491.165,16614.938,4487.877,16615.148,4487.98Z" transform="translate(-2375.957 -3859.748)" fill="#74767b"/>
    <path id="Path_233" data-name="Path 233" d="M16591.689,4781c.207,0,1.225,2.875,2.164,6.571.8,3.7,1.123,6.786.92,6.786s-.828-2.981-1.65-6.683C16592.209,4784.08,16591.48,4781.1,16591.689,4781Z" transform="translate(-2364.013 -4122.671)" fill="#ededeb"/>
    <path id="Path_234" data-name="Path 234" d="M16447.732,4771.97c.219.1-1.139,2.675-3.084,5.757-1.846,3.078-3.494,5.546-3.687,5.441-.117-.206,1.229-2.773,3.068-5.856S16447.525,4771.867,16447.732,4771.97Z" transform="translate(-2228.794 -4114.565)" fill="#74767b"/>
    <path id="Path_235" data-name="Path 235" d="M16494.688,4503.975c.2-.1,1.242,2.57,2.262,5.958,1.027,3.289,1.648,6.059,1.441,6.165a45.048,45.048,0,0,1-2.152-5.961C16495.2,4506.75,16494.488,4503.975,16494.688,4503.975Z" transform="translate(-2276.979 -3874.101)" fill="#74767b"/>
    <path id="Path_237" data-name="Path 237" d="M16504.742,4642.687a6.655,6.655,0,1,1-9.055-2.467A6.619,6.619,0,0,1,16504.742,4642.687Z" transform="translate(-2274.895 -3995.556)" fill="#74767b"/>
    <path id="Path_238" data-name="Path 238" d="M16528.73,4688.633a12.724,12.724,0,0,0-3.275-1.132c-1.963-.2-3.393.62-3.51.415s1.342-1.335,3.6-1.131C16527.7,4686.988,16528.938,4688.531,16528.73,4688.633Z" transform="translate(-2301.461 -4038.113)" fill="#74767b"/>
    <path id="Path_239" data-name="Path 239" d="M16547.707,4666.944c.2.1-.516,1.335-.828,3.083s-.1,3.185-.3,3.284c-.219,0-.725-1.437-.426-3.389S16547.6,4666.841,16547.707,4666.944Z" transform="translate(-2323.104 -4020.327)" fill="#74767b"/>
    <path id="Path_241" data-name="Path 241" d="M18821.563,2876.339a21.316,21.316,0,1,1,21.369-21.265A21.313,21.313,0,0,1,18821.563,2876.339Zm47.666-9.143V2856.82l-7.717-3.083-1.639-10.579,7.2-5.548-4.83-9.759-9.242,2.57-6.988-5.855,2.055-10.887-9.859-4.315-5.143,7.6-9.033-.513-4.42-9.45-10.686,1.129-.918,10.684-8.332,4.211-7.814-5.136-7.9,8.834,6.074,7.4-4.223,8.731h-10.674l-1.135,10.888,9.045,3.493,1.844,9.553-7.4,6.267,4.52,9.655,9.549-2.979,6.992,6.986-2.354,9.862,9.537,4.724,5.557-6.984h10.363l3.5,8.833,11.617-1.438v-9.451l8.115-4.929,7.891,5.341,7.8-7.909-4.807-7.808,3.893-9.04Z" transform="translate(-4322.184 -2351.447)" fill="#fff"/>
    <path id="Path_249" data-name="Path 249" d="M19169.559,3191.732a8.778,8.778,0,1,1-17.555,0,8.777,8.777,0,0,1,17.555,0Z" transform="translate(-4661.359 -2688.824)" fill="#fff"/>
    <path id="Path_252" data-name="Path 252" d="M18065.965,1800.731a28.969,28.969,0,1,1,10.68-39.445A28.908,28.908,0,0,1,18065.965,1800.731Zm49.811-42.939-7.082-12.326-10.988,1.643-9.141-11.4,4.719-11.4-12.33-8.218-9.141,9.245-12.113-2.055-4.932-14.279-14.684,1.542-.826,12.532-10.988,5.547-11.615-8.219-11.7,8.526,6.059,13.149-6.988,10.58-12.742-.615-3.285,15.614,12.123,4.725,1.016,13.148-12.52,7.191,5.953,13.559,13.047-1.953,8.533,9.861-4.424,12.431,11.814,8.423,9.35-10.067,12.842,3.493,4,13.251,14.379-.925,1.855-11.915,12.229-7.089,10.063,8.012,12.623-9.449-6.357-11.2,6.266-11.2,12.83.925,4.025-14.587-11.105-5.958-1.439-13.353Z" transform="translate(24417.195 15549.698) rotate(-129)" fill="rgba(137,250,255,0.41)"/>
    <path id="Path_260" data-name="Path 260" d="M18507.816,2239.682a11.963,11.963,0,1,1-16.34-4.417A12.046,12.046,0,0,1,18507.816,2239.682Z" transform="translate(-4063.297 -1843.4)" fill="#38e5f2"/>
    <path id="Path_263" data-name="Path 263" d="M19285.693,2391.434a9.934,9.934,0,0,1-9.842-17.259,9.934,9.934,0,1,1,9.842,17.259Zm17.17-14.689-2.463-4.21-3.812.512-3.076-3.9,1.537-3.9-4.2-2.877-3.1,3.184-4.2-.719-1.637-4.827-5.043.514-.3,4.211-3.812,1.953-3.9-2.776-4.111,2.878,2.143,4.517-2.451,3.7-4.316-.309-1.125,5.445,4.111,1.539.41,4.521-4.316,2.466,2.043,4.725,4.434-.721,2.957,3.392-1.537,4.312,4.121,2.878,3.18-3.494,4.432,1.232,1.332,4.521,4.92-.308.607-4.109,4.225-2.362,3.492,2.671,4.314-3.184-2.156-3.905,2.051-3.8,4.525.307,1.33-5.033-3.8-2.054-.514-4.519Z" transform="translate(-4757.364 -1950.364)" fill="#89faff"/>
    <path id="Path_271" data-name="Path 271" d="M19437.164,2541.85a4.1,4.1,0,0,1-7.092,4.107,4.1,4.1,0,1,1,7.092-4.107Z" transform="translate(-4910.36 -2111.67)" fill="#89faff"/>
    <path id="Path_274" data-name="Path 274" d="M20320.83,2471.985s-4.83-1.746-4.83-4.931c-.088-3.183,36.256-7.7,43.248,10.067,0,0-1.334.926-6.992.513Z" transform="translate(-5705.783 -2043.757)" fill="#f05b66"/>
    <path id="Path_275" data-name="Path 275" d="M20712.992,2567.286V2564a17.159,17.159,0,0,1,2.471,2.773A5.518,5.518,0,0,1,20712.992,2567.286Z" transform="translate(-6061.994 -2133.408)" fill="#5dd5da"/>
    <path id="Path_276" data-name="Path 276" d="M20351.25,2490.019l-30.42-5.548s-4.83-1.744-4.83-4.931c.117-.1,1.123-1.027,4.83-1.541v4.727a13.587,13.587,0,0,0,6.369,1.437,18.224,18.224,0,0,0,6.67-1.437,27.069,27.069,0,0,1,9.561-2.161,3.668,3.668,0,0,1,2.162.413c1.227,1.127,1.123,6.062,5.748,7.806A7.947,7.947,0,0,0,20351.25,2490.019Z" transform="translate(-5705.783 -2056.242)" fill="#5dd5da"/>
    <path id="Path_277" data-name="Path 277" d="M20382.393,2534.151l-22.2-1.746c-.1-2.568.117-12.635.117-12.635s-9.254-1.439-9.342-10.58c-.123-9.245,1.432-30.508,1.432-30.508a32.344,32.344,0,0,1,32.264,4.107l1.32,1.029Z" transform="translate(-5737.157 -2054.562)" fill="#efceb2"/>
    <path id="Path_278" data-name="Path 278" d="M20441.1,2870.389a21.245,21.245,0,0,0,12.016-3.388s-2.869,6.573-12.119,5.751Z" transform="translate(-5817.936 -2405.284)" fill="#cea888"/>
    <path id="Path_279" data-name="Path 279" d="M20362.992,2461.191s5.441,3.08,13.039,0c4.936-2.056,10.6-2.775,11.719-1.746,1.227,1.129,1.123,6.061,5.764,7.806,0,0-1.037,9.348,2.646,9.348,3.813-.1,2.572-14.793,2.572-14.793l-8.836-5.136-9.848-2.671-9.561.617-7.5,1.438Z" transform="translate(-5747.949 -2034.707)" fill="#5a6194"/>
    <path id="Path_280" data-name="Path 280" d="M20678.3,2641.381c.205-.1,6.371-1.851,6.166,4.417-.211,6.368-6.475,4.827-6.475,4.622C20678,2650.319,20678.3,2641.381,20678.3,2641.381Z" transform="translate(-6030.595 -2202.571)" fill="#efceb2"/>
    <path id="Path_281" data-name="Path 281" d="M20697,2666.032c.09-.1.09,0,.3.1a1.111,1.111,0,0,0,.826.1,2.579,2.579,0,0,0,1.328-2.466,3.752,3.752,0,0,0-.205-1.541,1.473,1.473,0,0,0-.8-.924,1.242,1.242,0,0,0-.74.309v.307c-.086,0-.2-.1-.086-.307a.5.5,0,0,1,.2-.412,1.4,1.4,0,0,1,.623-.205,1.629,1.629,0,0,1,1.123,1.027,3.624,3.624,0,0,1-1.33,4.521,1.55,1.55,0,0,1-1.035-.207C20697,2666.135,20697,2666.032,20697,2666.032Z" transform="translate(-6047.65 -2220.444)" fill="#cea888"/>
    <path id="Path_282" data-name="Path 282" d="M20687.912,2449.953c0,.207-1.033.1-2.043.412-1.045.308-1.756.924-1.963.82-.094-.1.518-1.129,1.732-1.539C20686.969,2449.235,20688.029,2449.75,20687.912,2449.953Z" transform="translate(-6035.889 -2030.662)" fill="#313f44"/>
    <path id="Path_283" data-name="Path 283" d="M20676,2415c.205,0,.516,1.337.205,2.982-.311,1.744-1.445,2.77-1.533,2.566-.213-.1.516-1.129.813-2.67S20675.8,2415,20676,2415Z" transform="translate(-6027.578 -1999.714)" fill="#313f44"/>
    <path id="Path_284" data-name="Path 284" d="M20327.59,2268.1c-16.643-1.849-19.848,1.13-19.941,1.233a3.751,3.751,0,0,1-.928-1.644c-.52-4.931,5.453-6.266,5.453-6.266,3.7-17.052,19.006-15.3,19.006-15.3v-.1a2.879,2.879,0,0,1,3.285-2.259l2.363.514a2.754,2.754,0,0,1,2.158,3.184c17.971,5.958,12.031,22.6,12.031,22.6l2.541,3.184c2.379,4.725-2.648,6.164-2.648,6.164S20344.648,2269.946,20327.59,2268.1Z" transform="translate(-5697.432 -1846.032)" fill="#89faff"/>
    <path id="Path_285" data-name="Path 285" d="M20591.615,2297.484h0c-.232,0,.3-3.287,1.215-7.294.941-4,1.859-7.19,2.068-7.19h0c.2.1-.416,3.388-1.359,7.292C20592.713,2294.3,20591.793,2297.484,20591.615,2297.484Z" transform="translate(-5953.036 -1881.274)" fill="#5dd5da"/>
    <path id="Path_286" data-name="Path 286" d="M20504.684,2280.97h0c-.2-.1.518-3.287,1.547-7.088,1.127-3.8,2.162-6.882,2.367-6.882h0c.193.1-.516,3.287-1.65,7.088C20505.922,2277.887,20504.891,2280.97,20504.684,2280.97Z" transform="translate(-5875.055 -1866.919)" fill="#5dd5da"/>
    <path id="Path_287" data-name="Path 287" d="M20403.984,2416.552c-.2,0-2.066-1.129-5.037-2.773a57.681,57.681,0,0,0-12.74-4.929,47.832,47.832,0,0,0-10.18-1.232,33.55,33.55,0,0,0-3.389.2c-3.189.307-5.23.823-5.553.823h-.092c0-.1.506-.31,1.445-.515a21.658,21.658,0,0,1,4.111-.823,27.318,27.318,0,0,1,4.3-.308,40.773,40.773,0,0,1,9.561,1.131,52.94,52.94,0,0,1,12.828,5.241c1.434.819,2.674,1.643,3.5,2.155.828.617,1.236.924,1.236,1.027Z" transform="translate(-5751.538 -1992.535)" fill="#5dd5da"/>
    <path id="Path_288" data-name="Path 288" d="M20601.648,2462.657c-.309,0-3.592-3.083-8.422-5.651-4.836-2.67-9.344-3.7-9.238-4.005h.09a17.75,17.75,0,0,1,2.879.615,30.092,30.092,0,0,1,6.68,2.774,34.484,34.484,0,0,1,5.959,4.109c1.33,1.234,2.145,2.056,2.053,2.158Z" transform="translate(-5946.242 -2033.811)" fill="#5dd5da"/>
    <path id="Path_290" data-name="Path 290" d="M20639.285,2316.285h0c-1.02-.2-.711-5.033-3.266-9.861-2.465-4.828-6.684-7.191-6.266-8.117.1-.205.41-.308.824-.308a7.306,7.306,0,0,1,2.762.719,14.543,14.543,0,0,1,7.5,14.381C20640.523,2315.155,20639.816,2316.285,20639.285,2316.285Z" transform="translate(-5987.282 -1894.733)" fill="#5dd5da"/>
    <path id="Path_291" data-name="Path 291" d="M19289.609,3458.825s-10.994-5.648-12.932-8.218C19274.83,3448.04,19274,3439,19274,3439l18.7,6.985Z" transform="translate(-4770.822 -2918.527)" fill="#417ba0"/>
    <path id="Path_292" data-name="Path 292" d="M19507.678,3298.813c-.623.309-12.74,27.223-22.408,27.428-9.848.1-59.268-3.8-59.268-3.8l3.074-12.84,47.461-1.541,15.617-21.058Z" transform="translate(-4907.208 -2782.139)" fill="#efceb2"/>
    <path id="Path_293" data-name="Path 293" d="M20072.7,3102.712l-69.646,4.007c-.2-7.7,2.666-69.133,2.666-69.133l-3.789,7.192-19.936-17.771,17.365-23.626a35.2,35.2,0,0,1,23.115-13.664c2.766-.3,4.82-.515,6.152-.719a38.655,38.655,0,0,0,23.629,0,31.649,31.649,0,0,1,9.756,1.951,39.028,39.028,0,0,1,15.607,10.069h0l20.973,35.13-25.373,15.923-3.609-11.094Z" transform="translate(-5406.09 -2514.749)" fill="#89faff"/>
    <path id="Path_294" data-name="Path 294" d="M20552.064,4692c.219,0,.309.924.309,2.158-.09,1.234-.309,2.155-.516,2.155s-.309-1.024-.209-2.155C20551.648,4692.924,20551.857,4692,20552.064,4692Z" transform="translate(-5917.19 -4042.814)" fill="#44616b"/>
    <path id="Path_295" data-name="Path 295" d="M20556.063,4607c.2,0,.313,1.026.313,2.259-.109,1.129-.312,2.159-.516,2.159-.211-.1-.309-1.03-.211-2.261C20555.648,4608.026,20555.859,4607,20556.063,4607Z" transform="translate(-5920.78 -3966.545)" fill="#44616b"/>
    <path id="Path_296" data-name="Path 296" d="M20562.277,4523c.211,0,.211,1.027.1,2.26-.1,1.128-.3,2.053-.516,2.053s-.309-1.028-.205-2.157C20561.771,4523.924,20562.082,4523,20562.277,4523Z" transform="translate(-5926.172 -3891.176)" fill="#44616b"/>
    <path id="Path_297" data-name="Path 297" d="M20571.158,4460.883c.207,0,.309.517.207,1.032-.1.616-.311,1.129-.5,1.023-.219,0-.311-.51-.219-1.13C20570.76,4461.3,20570.951,4460.783,20571.158,4460.883Z" transform="translate(-5934.237 -3835.425)" fill="#44616b"/>
    <path id="Path_298" data-name="Path 298" d="M20237.592,3496.136l-3.918-73.138h-41.9l-6.768,75.193Z" transform="translate(-5588.242 -2904.168)" fill="#417ba0"/>
    <path id="Path_299" data-name="Path 299" d="M20573.768,2994.581s-16.953,4.417-17.264,44.377h-6.887s-1.742-33.486,16.746-46.74C20566.363,2992.217,20571.7,2990.987,20573.768,2994.581Z" transform="translate(-5915.364 -2517.456)" fill="#417ba0"/>
    <path id="Path_300" data-name="Path 300" d="M20277.164,2984.576s-12.133,5.751-12.441,45.609h-5.752s-.518-37.289,10.893-44.684A8.163,8.163,0,0,1,20277.164,2984.576Z" transform="translate(-5654.607 -2510.328)" fill="#417ba0"/>
    <path id="Path_301" data-name="Path 301" d="M20933.75,4654.932c.219-.107.52.822.828,1.951.191,1.127.191,2.158,0,2.158-.207,0-.516-.823-.719-2.054C20933.547,4655.855,20933.547,4654.932,20933.75,4654.932Z" transform="translate(-6259.949 -4009.544)" fill="#44616b"/>
    <path id="Path_302" data-name="Path 302" d="M20917.754,4574c.207,0,.621.822.824,2.055.2,1.131.2,2.053,0,2.053-.2.1-.512-.819-.723-1.95C20917.547,4575.023,20917.547,4574,20917.754,4574Z" transform="translate(-6245.597 -3936.934)" fill="#44616b"/>
    <path id="Path_303" data-name="Path 303" d="M20901.762,4493.933c.2-.1.605.825.824,1.951.191,1.131.191,2.055,0,2.159-.219,0-.516-.822-.723-2.053C20901.555,4494.858,20901.555,4493.933,20901.762,4493.933Z" transform="translate(-6231.246 -3865.085)" fill="#44616b"/>
    <path id="Path_304" data-name="Path 304" d="M20885.75,4413c.193,0,.5.822.814,2.053.207,1.133.207,2.058,0,2.058-.207.1-.508-.822-.723-1.954C20885.531,4414.027,20885.531,4413.1,20885.75,4413Z" transform="translate(-6216.868 -3792.473)" fill="#44616b"/>
    <path id="Path_305" data-name="Path 305" d="M20869.662,4332.934c.209-.1.518.819.727,1.948.311,1.134.311,2.159.1,2.159s-.52-.825-.83-1.954C20869.445,4333.856,20869.445,4332.934,20869.662,4332.934Z" transform="translate(-6202.426 -3720.626)" fill="#44616b"/>
    <path id="Path_306" data-name="Path 306" d="M20856.729,4272c.207,0,.52.408.619,1.024.1.514.1,1.028-.1,1.028-.209.1-.52-.307-.623-.923S20856.625,4272,20856.729,4272Z" transform="translate(-6190.834 -3665.958)" fill="#ecc538"/>
    <path id="Path_307" data-name="Path 307" d="M20263.939,3413a5.721,5.721,0,0,1-.105,4.519,3.521,3.521,0,0,1-2.377,1.953,3.279,3.279,0,0,1-2.764-1.232,3.4,3.4,0,0,1-.812-2.26,3.026,3.026,0,0,1,.4-2.056c.223,0-.09.824.105,2.056a2.706,2.706,0,0,0,.84,1.848,2.159,2.159,0,0,0,2.146.822,2.575,2.575,0,0,0,1.846-1.439,5.621,5.621,0,0,0,.617-2.053A7.734,7.734,0,0,1,20263.939,3413Z" transform="translate(-5653.625 -2895.194)" fill="#5da7d5"/>
    <path id="Path_308" data-name="Path 308" d="M20277.092,3422.748c-.117-.1.416-.307.92.105a1.228,1.228,0,0,1,.3,1.13,1.091,1.091,0,0,1-1.008.924,1.317,1.317,0,0,1-1.332-.515,1.418,1.418,0,0,1,0-1.128c.3-.618.813-.618.813-.517a7.68,7.68,0,0,0-.311.72c-.088.412.105.823.715.721a.593.593,0,0,0,.41-.924C20277.391,3422.853,20277.092,3422.853,20277.092,3422.748Z" transform="translate(-5669.76 -2903.816)" fill="#5da7d5"/>
    <path id="Path_309" data-name="Path 309" d="M20553.416,3416a7.684,7.684,0,0,1,.209,1.953,5.065,5.065,0,0,1-.506,2.26,3.1,3.1,0,0,1-2.467,1.437,3.434,3.434,0,0,1-2.686-.925,4.108,4.108,0,0,1-1.123-1.951c-.418-1.232-.209-2.054-.094-2.054.094,0,.094.718.619,1.851a4.524,4.524,0,0,0,1.01,1.643,3.036,3.036,0,0,0,2.273.719,2.309,2.309,0,0,0,1.85-1.13,4.75,4.75,0,0,0,.617-1.849C20553.33,3416.821,20553.213,3416,20553.416,3416Z" transform="translate(-5912.69 -2897.889)" fill="#5da7d5"/>
    <path id="Path_310" data-name="Path 310" d="M20570.543,3422.55s.314-.205.713.208a.909.909,0,0,1,.205.924,1.152,1.152,0,0,1-.824.822,1.029,1.029,0,0,1-1.127-.515,1,1,0,0,1-.1-.923c.205-.517.6-.517.6-.413.117.1-.09.309-.09.615a.486.486,0,0,0,.506.517.526.526,0,0,0,.426-.719C20570.727,3422.861,20570.543,3422.758,20570.543,3422.55Z" transform="translate(-5933.103 -2903.721)" fill="#5da7d5"/>
    <path id="Path_311" data-name="Path 311" d="M20341.273,3595.724s-.309.205-.916.615c-.723.413-1.654.924-3,1.539a37.9,37.9,0,0,1-10.156,3.287,41.766,41.766,0,0,1-10.8.722c-1.322-.1-2.457-.207-3.283-.309-.711-.206-1.123-.308-1.123-.308,0-.105,1.742.1,4.406.1a46.037,46.037,0,0,0,10.594-.924,43,43,0,0,0,10.158-3.082C20339.734,3596.339,20341.273,3595.518,20341.273,3595.724Z" transform="translate(-5702.191 -3059.122)" fill="#5da7d5"/>
    <path id="Path_313" data-name="Path 313" d="M20310.508,4160.336c-.084,0-1.227,0-3.178-.1-2.055-.1-4.727-.311-8.021-.515l.412-.408c.412,2.67.918,5.647,1.539,8.729,0,.207.1.517.1.721l-.309-.307c3.707.2,7.09.407,10.18.612l-.412.413c-.09-2.773-.207-4.933-.314-6.577a10.1,10.1,0,0,1,0-2.566c0-.1.107.821.314,2.359s.412,3.908.617,6.681l.107.412-.416-.1c-2.986-.1-6.473-.309-10.184-.515h-.309v-.309c0-.2-.1-.407-.1-.717-.506-3.082-1.02-6.062-1.525-8.732V4159h.4c3.4.412,6.172.718,8.109.922A13.8,13.8,0,0,1,20310.508,4160.336Z" transform="translate(-5690.539 -3564.566)" fill="#ecc538"/>
    <path id="Path_314" data-name="Path 314" d="M20268,4187.656c0-.208,1.951-.208,4.3,0,2.285.1,4.223.408,4.223.615-.1.206-1.937.206-4.316.1C20269.85,4188.171,20268,4187.861,20268,4187.656Z" transform="translate(-5662.717 -3590.139)" fill="#ecc538"/>
    <path id="Path_315" data-name="Path 315" d="M20263,4212.656c.1-.207,2.057-.207,4.6,0,2.479.307,4.447.612,4.447.821s-2.055.2-4.539,0C20265.059,4213.17,20263,4212.862,20263,4212.656Z" transform="translate(-5658.23 -3612.57)" fill="#ecc538"/>
    <path id="Path_316" data-name="Path 316" d="M19176.369,3356.552l-28.242-9.552-1.125,3.6s11.082,17.462,23.939,21.058Z" transform="translate(-4656.869 -2835.977)" fill="#5da7d5"/>
    <path id="Path_317" data-name="Path 317" d="M19325.105,3102.81s-43.648-30.713-46.312-31.637c-2.57-.924-21.371-.924-26.086-.412-4.641.513-18.09-.924-18.09-.924l13.867-38.418-29.477-7.5,1.523-5.239s23.734-14.279,37.406-10.17c13.66,4.007,20.133,21.983,23,26.4,2.777,4.518,8.941,20.338,38.219,39.035l17.25,11.608Z" transform="translate(-4721.479 -2531.592)" fill="#5da7d5"/>
    <path id="Path_318" data-name="Path 318" d="M19701.469,3330a1.068,1.068,0,0,1-.2.515c-.1.307-.307.617-.525,1.129-.4,1.129-1.115,2.673-1.937,4.521-1.643,4.007-4.123,9.552-7.084,16.436l-.309-.412a40.262,40.262,0,0,1,5.025-.1,16.563,16.563,0,0,1,5.336,1.133c3.191,1.847,6.371,4.107,9.873,6.366,6.781,4.625,14.084,9.76,21.682,15.1a6.029,6.029,0,0,0,3.176,1.543,5.642,5.642,0,0,0,3.4-.615,5.406,5.406,0,0,0,2.557-5.854,6.1,6.1,0,0,0-1.754-2.776c-.8-.616-1.838-1.334-2.77-1.95-1.846-1.338-3.7-2.672-5.437-3.9-7.08-5.136-13.451-9.655-18.9-13.561a14.789,14.789,0,0,1-3.295-3.388,37.091,37.091,0,0,1-2.469-3.388c-1.525-2.16-2.648-4.111-3.592-5.752a41.559,41.559,0,0,1-2.055-3.7c-.205-.411-.414-.721-.516-.924-.207-.308-.207-.411-.207-.411a.976.976,0,0,1,.207.307c.217.308.412.618.633.925.5.925,1.227,2.159,2.158,3.7,1.031,1.538,2.248,3.492,3.682,5.648q1.087,1.542,2.467,3.392a17.258,17.258,0,0,0,3.283,3.183c5.465,3.8,11.926,8.321,19.018,13.354,1.746,1.334,3.592,2.566,5.441,3.9.93.72,1.85,1.337,2.867,2.056a5.626,5.626,0,0,1,1.863,3.186,5.8,5.8,0,0,1-2.881,6.573,6.056,6.056,0,0,1-3.8.721,6.872,6.872,0,0,1-3.492-1.644c-7.6-5.446-14.91-10.582-21.68-15.2-3.4-2.26-6.578-4.519-9.768-6.37a14.1,14.1,0,0,0-5.027-1.028,40.134,40.134,0,0,0-4.922,0H19691l.193-.41c3.18-6.88,5.762-12.43,7.521-16.437.914-1.848,1.525-3.285,2.029-4.314.219-.512.426-.822.525-1.129A1.018,1.018,0,0,0,19701.469,3330Z" transform="translate(-5144.989 -2820.724)" fill="#417ba0"/>
    <path id="Path_324" data-name="Path 324" d="M19383.672,3421.98c.205,0-.725,3.9-2.352,8.525-1.654,4.625-3.3,8.219-3.5,8.116s1.139-3.8,2.781-8.422C19382.25,3425.677,19383.467,3421.875,19383.672,3421.98Z" transform="translate(-4863.958 -2903.252)" fill="#417ba0"/>
    <path id="Path_327" data-name="Path 327" d="M16980.3,4289.553l-7.191-4.009-.1.1,2.977-5.65h0a8.057,8.057,0,0,1,4.01,4.007A8.569,8.569,0,0,1,16980.3,4289.553Z" transform="translate(-2706.189 -3673.134)" fill="#f7e057"/>
    <path id="Path_329" data-name="Path 329" d="M17004.9,4353.593c-.113,0-.312-.106-.408-.106h-.207c-2.262-.819-7.922-3.7-14.174-6.98-7.3-4.11-15-8.632-17.891-10.48l-1.225-.717.205-.309h0l7.184,4.107a.315.315,0,0,0,.1-.2l19.73,10.785s1.537-1.745,2.785-1.745a.6.6,0,0,1,.4.1h0c.4.41.826.822,1.137,1.129,1.123,1.234,2.771,3.078,2.861,4C17005.4,4353.391,17005.313,4353.593,17004.9,4353.593Z" transform="translate(-2704.388 -3722.486)" fill="#ecc538"/>
    <path id="Path_330" data-name="Path 330" d="M16980.191,4338.209,16973,4334.1h0l.1-.1,7.191,4.006A.313.313,0,0,1,16980.191,4338.209Z" transform="translate(-2706.189 -3721.587)" fill="#74767b"/>
    <path id="Path_332" data-name="Path 332" d="M17233.889,4462.1a8.738,8.738,0,0,1,1.629-1.437,9.318,9.318,0,0,1,2.059-.722,3.92,3.92,0,0,0-2.15.514A2.968,2.968,0,0,0,17233.889,4462.1Z" transform="translate(-2940.265 -3834.588)" fill="#74767b"/>
    <path id="Path_333" data-name="Path 333" d="M17191.871,4409.9c0,.1.506-.1,1.021-.408s.92-.621.92-.723-.506.1-1.021.412C17192.168,4409.489,17191.758,4409.8,17191.871,4409.9Z" transform="translate(-2902.558 -3788.651)" fill="#74767b"/>
    <path id="Path_334" data-name="Path 334" d="M17179.992,4398.517c0,.1.531,0,1.035-.1s.93-.309.93-.412a5.378,5.378,0,0,0-1.047.1C17180.406,4398.205,17179.992,4398.412,17179.992,4398.517Z" transform="translate(-2891.917 -3779.014)" fill="#74767b"/>
    <path id="Path_335" data-name="Path 335" d="M17179.992,4378.764s.414.31,1.035.721c.5.312,1.031.513,1.125.412,0-.1-.414-.412-1.023-.718S17180.1,4378.664,17179.992,4378.764Z" transform="translate(-2891.917 -3761.731)" fill="#74767b"/>
    <path id="Path_336" data-name="Path 336" d="M17183.859,4363.862c-.105,0,.311.514.928.92.725.413,1.336.618,1.336.516s-.52-.306-1.127-.717C17184.373,4364.169,17183.859,4363.755,17183.859,4363.862Z" transform="translate(-2895.371 -3748.367)" fill="#74767b"/>
    <path id="Path_337" data-name="Path 337" d="M17208,4399.408c0,.105.4.413,1.234.722a7.45,7.45,0,0,0,1.639.407,1.368,1.368,0,0,0,.932.1c.193,0,.4,0,.5-.2a.5.5,0,0,0,.113-.615,2.643,2.643,0,0,0-3.291-.925,4.336,4.336,0,0,0-.926.618.631.631,0,0,0-.2.407,2.265,2.265,0,0,1,1.129-.818,2.589,2.589,0,0,1,1.553-.1,2.423,2.423,0,0,1,1.527.922.38.38,0,0,1-.4.515c-.324,0-.621-.1-.932-.1a5.544,5.544,0,0,1-1.551-.413C17208.518,4399.615,17208,4399.408,17208,4399.408Z" transform="translate(-2917.052 -3779.603)" fill="#74767b"/>
    <path id="Path_338" data-name="Path 338" d="M17203.82,4380.109a2.147,2.147,0,0,0,.619-.818,2.31,2.31,0,0,0,.092-1.238,1.25,1.25,0,0,0-.711-1.232c-.295-.1-.621.208-.725.412a1.775,1.775,0,0,0-.1.722,3.7,3.7,0,0,0,.205,1.129c.223.615.414.922.506.922a4.7,4.7,0,0,1-.283-1.025,2.8,2.8,0,0,1-.117-1.026c0-.411.117-.925.4-.825.424.1.531.617.617,1.032a3.761,3.761,0,0,1-.086,1.025C17204.016,4379.8,17203.705,4380.005,17203.82,4380.109Z" transform="translate(-2912.555 -3759.996)" fill="#74767b"/>
    <path id="Path_339" data-name="Path 339" d="M17004,4280s.623.306,1.447.822a7.685,7.685,0,0,1,2.555,3.185,8.156,8.156,0,0,1,.529,4.005c-.211,1.028-.529,1.645-.432,1.645,0,0,.123-.208.221-.411.094-.308.211-.722.4-1.234a7.269,7.269,0,0,0-3.182-7.293,3.962,3.962,0,0,0-1.115-.617A1.622,1.622,0,0,0,17004,4280Z" transform="translate(-2734.003 -3673.134)" fill="#74767b"/>
    <path id="Path_340" data-name="Path 340" d="M17028.564,4208.962a22.456,22.456,0,0,0-2.469,4.006c-1.232,2.363-2.266,4.21-2.152,4.21a43.176,43.176,0,0,0,2.361-4.007C17027.633,4210.81,17028.564,4208.962,17028.564,4208.962Z" transform="translate(-2751.889 -3609.392)" fill="#f7e057"/>
    <path id="Path_341" data-name="Path 341" d="M17078.953,4369a9.139,9.139,0,0,0,2.771,1.953,15.888,15.888,0,0,0,3.068,1.336,24.65,24.65,0,0,0-2.977-1.645C17080.277,4369.719,17078.953,4369,17078.953,4369Z" transform="translate(-2801.25 -3752.993)" fill="#74767b"/>
    <path id="Path_342" data-name="Path 342" d="M17038.7,4348c-.1,0,0,.41-.1.719,0,.41-.105.72,0,.72.1.1.309-.207.309-.72C17038.912,4348.3,17038.807,4348,17038.7,4348Z" transform="translate(-2765.01 -3734.148)" fill="#74767b"/>
    <path id="Path_343" data-name="Path 343" d="M17034.633,4322c-.1,0,0,.309.1.615,0,.307.205.618.295.618a2.044,2.044,0,0,0-.09-.618C17034.84,4322.207,17034.736,4322,17034.633,4322Z" transform="translate(-2761.451 -3710.821)" fill="#74767b"/>
    <path id="Path_344" data-name="Path 344" d="M17019,4302.463a3.619,3.619,0,0,0,.514.411c.209.311.3.616.414.513.1,0,0-.309-.205-.719C17019.416,4302.362,17019,4302.362,17019,4302.463Z" transform="translate(-2747.466 -3693.237)" fill="#74767b"/>
    <path id="Path_345" data-name="Path 345" d="M17005.625,4290.648c-.1,0,0,.207.117.31.191.206.3.306.387.206a.37.37,0,0,0-.2-.309C17005.832,4290.648,17005.742,4290.544,17005.625,4290.648Z" transform="translate(-2735.423 -3682.654)" fill="#74767b"/>
    <path id="Path_346" data-name="Path 346" d="M17925,4382.374h51.471V4372H17925Z" transform="translate(-3560.397 -3755.685)" fill="#5da7d5"/>
    <path id="Path_347" data-name="Path 347" d="M18140,5042.374h51.471V5032H18140Z" transform="translate(-3753.311 -4347.889)" fill="#5da7d5"/>
    <path id="Path_348" data-name="Path 348" d="M18268,5627.376h61.848V5617H18268Z" transform="translate(-3868.161 -4872.794)" fill="#5da7d5"/>
    <path id="Path_349" data-name="Path 349" d="M17756.994,3700.375h43.77V3690h-43.77Z" transform="translate(-3409.646 -3143.743)" fill="#5da7d5"/>
    <path id="Path_350" data-name="Path 350" d="M17543.992,3019.271h43.758V3009h-43.758Z" transform="translate(-3218.523 -2532.698)" fill="#5da7d5"/>
    <path id="Path_351" data-name="Path 351" d="M16135.046,2331,15994,2760.177h13.465l132.3-399.591,100.045,399.591h16.125L16147.876,2331Z" transform="translate(-1827.754 -1924.343)" fill="#417ba0"/>
    <path id="Path_352" data-name="Path 352" d="M16731.5,2331l-109.5,429.177h20.854l97.377-398.976,131.588,398.976h18.4L16746.705,2331Z" transform="translate(-2391.238 -1924.343)" fill="#5da7d5"/>
    <path id="Path_353" data-name="Path 353" d="M16507.994,5075.134a5.159,5.159,0,0,0,5.135,5.136h46.736a5.137,5.137,0,1,0,0-10.272h-46.736A5.163,5.163,0,0,0,16507.994,5075.134Z" transform="translate(-2288.948 -4381.983)" fill="#417ba0"/>
    <path id="Path_354" data-name="Path 354" d="M16309,5723.133h0a5.171,5.171,0,0,0,5.238,5.136h46.736a5.136,5.136,0,1,0,0-10.272h-46.736A5.172,5.172,0,0,0,16309,5723.133Z" transform="translate(-2110.397 -4963.416)" fill="#417ba0"/>
    <path id="Path_355" data-name="Path 355" d="M16727,4407.138h0a5.247,5.247,0,0,0,5.129,5.239h46.742a5.189,5.189,0,1,0,0-10.376h-46.742A5.222,5.222,0,0,0,16727,4407.138Z" transform="translate(-2485.457 -3782.602)" fill="#417ba0"/>
    <path id="Path_356" data-name="Path 356" d="M16946.992,3715.24h0a5.154,5.154,0,0,0,5.135,5.136h43.76a5.172,5.172,0,0,0,5.244-5.136,5.257,5.257,0,0,0-5.244-5.239h-43.76A5.242,5.242,0,0,0,16946.992,3715.24Z" transform="translate(-2682.85 -3161.688)" fill="#417ba0"/>
    <path id="Path_357" data-name="Path 357" d="M17152,3031.24h0a5.236,5.236,0,0,0,5.232,5.136h33.387a5.188,5.188,0,0,0,0-10.376h-33.387A5.255,5.255,0,0,0,17152,3031.24Z" transform="translate(-2866.801 -2547.952)" fill="#417ba0"/>
    <path id="Path_358" data-name="Path 358" d="M17245,1942.814c.617.2,12.74,27.219,22.385,27.323,9.865.1,59.277-3.8,59.277-3.8l.613-14.484-51.148.205L17260.516,1931Z" transform="translate(-2950.247 -1565.432)" fill="#efceb2"/>
    <path id="Path_359" data-name="Path 359" d="M17985,2051.608s8.424-2.774,9.338-4.11,4.73-7.5,4.73-7.5a4.758,4.758,0,0,1,.922,3.7c-.191,1.028-.711,2.876-1.02,4.212a1.222,1.222,0,0,0,1.432,1.539c1.971-.308,4.834-.719,5.232.207.533,1.54-1.732,10.991-3.482,12.635-1.75,1.746-13.348,1.849-13.348,1.849Z" transform="translate(-3614.232 -1663.236)" fill="#efceb2"/>
    <path id="Path_360" data-name="Path 360" d="M18111.816,2137.319c.133.1-.49.618-1.717,1.233a8.129,8.129,0,0,1-2.182.616,2.082,2.082,0,0,1-1.529-.206,1.645,1.645,0,0,1-.617-1.643,1.913,1.913,0,0,1,.93-1.335,2.273,2.273,0,0,1,1.217-.615c.932-.207,1.658-.413,2.271-.516a6.143,6.143,0,0,1,2.068-.2,8.846,8.846,0,0,1-1.971.72c-.711.2-1.437.409-2.162.615a2.33,2.33,0,0,0-1.629,1.437c-.107.822.613,1.235,1.334,1.131a11.185,11.185,0,0,0,2.158-.514A14.651,14.651,0,0,1,18111.816,2137.319Z" transform="translate(-3722.574 -1748.125)" fill="#cea888"/>
    <path id="Path_361" data-name="Path 361" d="M18116.439,2166.786c.1.1-.414.411-1.34.719a2.457,2.457,0,0,1-.916.2,1.263,1.263,0,0,1-1.037-.308,1.857,1.857,0,0,1-.412-2.363,3.551,3.551,0,0,1,1.855-1.335c.51-.205,1.035-.411,1.641-.616.932-.411,1.551-.514,1.551-.411a6.079,6.079,0,0,1-1.342.924,11.508,11.508,0,0,1-1.539.72,4.545,4.545,0,0,0-1.545,1.026,1.4,1.4,0,0,0,.207,1.542.878.878,0,0,0,.621.205,1.73,1.73,0,0,0,.717-.1C18115.816,2166.786,18116.439,2166.682,18116.439,2166.786Z" transform="translate(-3728.612 -1773.276)" fill="#cea888"/>
    <path id="Path_362" data-name="Path 362" d="M18070.488,2147.736a11.683,11.683,0,0,1-.619-1.131,6.65,6.65,0,0,0-2.475-2.259l-.4-.309.4-.309c.311-.306.621-.512.943-.82,2.344-2.261,2.965-5.034,3.186-4.931.09,0,.09.719-.312,1.746a10.154,10.154,0,0,1-2.369,3.7,7.4,7.4,0,0,1-1.023.821v-.514a5.478,5.478,0,0,1,2.461,2.673C18070.592,2147.221,18070.592,2147.736,18070.488,2147.736Z" transform="translate(-3687.802 -1751.145)" fill="#cea888"/>
    <path id="Path_363" data-name="Path 363" d="M18118.936,2202.362c0,.1-.418.512-1.346.822a2.624,2.624,0,0,1-1.74-.1,1.32,1.32,0,0,1-.736-.72,1.582,1.582,0,0,1-.088-1.335,4.446,4.446,0,0,1,1.537-1.337c.613-.308,1.027-.513,1.441-.719.932-.309,1.434-.41,1.434-.309.117.1-.414.411-1.125.822-.412.206-.828.513-1.344.823a3.337,3.337,0,0,0-1.234,1.028.936.936,0,0,0,.52,1.129,1.311,1.311,0,0,0,1.23.206C18118.313,2202.463,18118.83,2202.258,18118.936,2202.362Z" transform="translate(-3730.797 -1805.566)" fill="#cea888"/>
    <path id="Path_364" data-name="Path 364" d="M16556.213,1312a37.063,37.063,0,0,1-1.43,7.5,10.961,10.961,0,0,1-4.631,5.855c-2.152,1.232-5.033,1.644-5.855,4.007-.812,2.26.926,5.239-.723,6.882a4.525,4.525,0,0,1-2.564,1.13,11.353,11.353,0,0,0-7.393,5.751c-1.654,3.39-1.031,7.4.713,10.787,1.75,3.287,4.42,5.958,7.092,8.628l27.123-5.854s-8.012-42.938-7.816-42.629C16560.844,1314.26,16556.213,1312,16556.213,1312Z" transform="translate(-2311.071 -1010.019)" fill="#5a6194"/>
    <path id="Path_365" data-name="Path 365" d="M16873.521,1335a4.467,4.467,0,0,0,2.365,3.083c1.123.822,2.357,1.336,3.393,2.157a8.5,8.5,0,0,1,2.652,6.575,24.146,24.146,0,0,1-1.217,7.088,15.365,15.365,0,0,1,11.408,5.957,20.456,20.456,0,0,1,4,12.43c0,3.081-.828,6.574-3.17,8.63-1.969,1.539-4.531,2.054-6.99,2.465-4.945.719-9.865,1.13-14.8,1.541-5.039.41-10.381.822-14.7-1.644-3.7-1.952-6.164-5.65-7.8-9.45a40.893,40.893,0,0,1-2.256-18.285,83.722,83.722,0,0,1,3.988-18.08Z" transform="translate(-2592.435 -1030.654)" fill="#5a6194"/>
    <path id="Path_366" data-name="Path 366" d="M16655.432,1248.993a17.309,17.309,0,0,0-7.8-2.054c-2.672,0-5.547,1.54-6.258,4.109a5.856,5.856,0,0,0,.506,4.211,12.122,12.122,0,0,0,2.564,3.493,5.839,5.839,0,0,0,3.7,2.055,4.854,4.854,0,0,0,3.086-.822,8.453,8.453,0,0,0,3.906-4.931,5.862,5.862,0,0,0-1.744-5.856Z" transform="translate(-2408.45 -951.633)" fill="#5a6194"/>
    <path id="Path_367" data-name="Path 367" d="M16745.314,1138.812s4.84-1.643,4.926-4.828c0-3.184-36.352-7.7-43.236,9.964,0,0,1.334,1.028,6.99.617Z" transform="translate(-2467.515 -847.616)" fill="#f05b66"/>
    <path id="Path_368" data-name="Path 368" d="M16711.521,1160.813c-3.6,0-4.518-.718-4.518-.718a21.285,21.285,0,0,1,4.715-4.623,46.532,46.532,0,0,0,.209,5.342Zm9.85-1.438c1.354-2.671.936-6.985,1.143-9.04a46.956,46.956,0,0,1,5.951-1.233,26.83,26.83,0,0,1,6.273,1.849,17.111,17.111,0,0,0,6.674,1.335,13.377,13.377,0,0,0,6.264-1.438V1149a6.093,6.093,0,0,1,2.564,1.129c-.086,3.185-4.926,4.829-4.926,4.829l-20.539,3.8Z" transform="translate(-2467.515 -863.762)" fill="#5dd5da"/>
    <path id="Path_369" data-name="Path 369" d="M16777.592,1177.465l22.186-1.848c.1-2.568-.09-12.532-.09-12.532s9.244-1.438,9.336-10.684-1.436-30.406-1.436-30.406a32.046,32.046,0,0,0-32.25,4.006l-1.346,1.027Z" transform="translate(-2527.621 -837.168)" fill="#efceb2"/>
    <path id="Path_370" data-name="Path 370" d="M16919.127,1513.391A21.507,21.507,0,0,1,16907,1510s2.877,6.677,12.127,5.855Z" transform="translate(-2646.968 -1187.679)" fill="#cea888"/>
    <path id="Path_371" data-name="Path 371" d="M16789.068,1104.19s-5.439,3.184-12.934.1c-5.027-2.054-10.68-2.875-11.811-1.746-1.135,1.028.822,10.581-3.8,12.43,0,0-.814,4.725-4.631,4.622-3.793,0-2.553-14.792-2.553-14.792l8.83-5.136,9.957-2.67,9.457.718,7.488,1.439Z" transform="translate(-2508.915 -817.104)" fill="#5a6194"/>
    <path id="Path_372" data-name="Path 372" d="M16731.109,1284.82c-.205,0-6.373-1.849-6.158,4.519.2,6.266,6.463,4.725,6.463,4.623C16731.414,1293.757,16731.109,1284.82,16731.109,1284.82Z" transform="translate(-2483.614 -985.407)" fill="#efceb2"/>
    <path id="Path_373" data-name="Path 373" d="M16743.633,1309.93a1.235,1.235,0,0,1-.3.206,1.177,1.177,0,0,1-.84,0c-.723-.206-1.227-1.233-1.328-2.363a4.343,4.343,0,0,1,.3-1.644,1.217,1.217,0,0,1,.717-.821.572.572,0,0,1,.725.308c.115.1,0,.206.115.308,0,0,.09-.1,0-.411a.809.809,0,0,0-.219-.411,1.281,1.281,0,0,0-.621-.1c-.506,0-.918.512-1.119,1.026a3.418,3.418,0,0,0-.311,1.747c.105,1.233.713,2.466,1.652,2.671a1.069,1.069,0,0,0,1.029-.205C16743.633,1310.033,16743.633,1309.93,16743.633,1309.93Z" transform="translate(-2497.781 -1003.737)" fill="#333435"/>
    <path id="Path_374" data-name="Path 374" d="M16742.953,1093.669c-.105-.206,1.014-.616,2.254-.206,1.33.411,1.85,1.335,1.75,1.439-.211.2-.936-.411-1.955-.719C16743.967,1093.772,16743.059,1093.875,16742.953,1093.669Z" transform="translate(-2499.764 -813.773)" fill="#313f44"/>
    <path id="Path_375" data-name="Path 375" d="M16775.037,1058c.219,0,.219,1.336.531,2.877.3,1.54,1.027,2.568.818,2.773a3.644,3.644,0,0,1-1.529-2.568C16774.545,1059.335,16774.857,1058,16775.037,1058Z" transform="translate(-2528.28 -782.109)" fill="#313f44"/>
    <path id="Path_376" data-name="Path 376" d="M16855.51,1133.4a43.782,43.782,0,0,1,5.551,4.211,9.377,9.377,0,0,0,6.268,2.26,4.778,4.778,0,0,1-.518-1.028,35.624,35.624,0,0,0,10.369,2.466c1.33.1,2.887.1,3.713-.925.8-1.129-.309-2.979-.424-5.033-.105-1.438-.619-1.747-1.959-2.26a6.284,6.284,0,0,0-1.949-.206,81.1,81.1,0,0,1-14.99-.821,13.478,13.478,0,0,0-3.5-.309,4.5,4.5,0,0,0-3.076,1.541Z" transform="translate(-2600.3 -848.269)" fill="#5a6194"/>
    <path id="Path_377" data-name="Path 377" d="M16728.053,1184.411c.115,5.034,1.131,10.067,1.23,15.1,0,5.033-1.027,10.375-4.316,14.278a6.559,6.559,0,0,1-4.408,2.568,2.626,2.626,0,0,1-2.67-1.233,3.186,3.186,0,0,1,.311-2.362,60.448,60.448,0,0,1,3.9-6.677,15.679,15.679,0,0,0,2.676-7.191,21.54,21.54,0,0,0-.826-5.546,13.242,13.242,0,0,1-.221-5.649c.529-1.747,1.971-3.494,3.822-3.7Z" transform="translate(-2477.167 -895.166)" fill="#5a6194"/>
    <path id="Path_378" data-name="Path 378" d="M16700.885,934.764c16.635-1.747,19.82,1.13,20.025,1.336a4.854,4.854,0,0,0,.828-1.644c.621-4.931-5.348-6.369-5.348-6.369-3.7-16.949-18.99-15.2-18.99-15.2l-.115-.206a2.7,2.7,0,0,0-3.186-2.157l-2.354.514a2.719,2.719,0,0,0-2.266,3.185c-17.867,5.958-11.912,22.6-11.912,22.6l-2.682,3.184c-2.248,4.725,2.787,6.061,2.787,6.061S16683.834,936.716,16700.885,934.764Z" transform="translate(-2438.176 -649.731)" fill="#89faff"/>
    <path id="Path_379" data-name="Path 379" d="M16822.045,964.484h0c.219-.1-.4-3.288-1.326-7.293s-1.848-7.191-2.053-7.191h0c-.207.1.387,3.287,1.318,7.294S16821.83,964.484,16822.045,964.484Z" transform="translate(-2567.67 -685.204)" fill="#5dd5da"/>
    <path id="Path_380" data-name="Path 380" d="M16904.584,947.867c-.205,0-1.234-2.979-2.361-6.78-1.035-3.9-1.75-6.985-1.531-7.088h0c.186,0,1.211,3.082,2.246,6.882,1.137,3.8,1.854,6.985,1.646,6.985Z" transform="translate(-2641.27 -670.847)" fill="#5dd5da"/>
    <path id="Path_381" data-name="Path 381" d="M16716.867,1083.553h0c-.113-.1.3-.411,1.113-1.027.824-.513,2.074-1.335,3.6-2.157a47.749,47.749,0,0,1,12.848-5.239,40.6,40.6,0,0,1,9.449-1.13,26.724,26.724,0,0,1,4.311.308,39.438,39.438,0,0,1,4.1.719c1.035.308,1.549.514,1.549.514a.1.1,0,0,1-.1.1,44.552,44.552,0,0,0-5.551-.821,33.047,33.047,0,0,0-3.389-.205,42.275,42.275,0,0,0-10.18,1.232,61.129,61.129,0,0,0-12.828,4.931C16718.8,1082.32,16717.072,1083.553,16716.867,1083.553Z" transform="translate(-2476.35 -796.466)" fill="#5dd5da"/>
    <path id="Path_382" data-name="Path 382" d="M16687.92,1129.656h0c-.1-.1.615-.925,2.063-2.157a31.47,31.47,0,0,1,5.957-4.212,34.012,34.012,0,0,1,6.666-2.67,15.6,15.6,0,0,1,2.775-.617h.217c0,.205-4.43,1.335-9.35,4.007C16691.518,1126.575,16688.232,1129.656,16687.92,1129.656Z" transform="translate(-2450.382 -837.741)" fill="#5dd5da"/>
    <path id="Path_383" data-name="Path 383" d="M16705.6,982.387c-.408,0-1.234-1.13-1.543-3.287a14.7,14.7,0,0,1,1.543-8.32,14.472,14.472,0,0,1,6.053-5.958,7.458,7.458,0,0,1,2.773-.822c.412,0,.734.206.734.308.408,1.028-3.8,3.39-6.271,8.218-2.578,4.828-2.166,9.656-3.184,9.861Z" transform="translate(-2464.774 -697.766)" fill="#5dd5da"/>
    <path id="Path_384" data-name="Path 384" d="M16308.482,1746.612l67.393,6.06c.1-4.52-1.334-32.666-2.166-51.156-.2-3.493,3.295-9.552,3.184-12.43-.311-7.292-1.424-7.6-1.424-7.6l3.795,7.191,19.918-17.771-17.344-23.522a34.433,34.433,0,0,0-23.125-13.663c-2.674-.411-4.727-.616-6.057-.719a40.61,40.61,0,0,1-23.73,0,29.516,29.516,0,0,0-9.77,1.849,39.048,39.048,0,0,0-15.6,10.067h0l-28.564,33.692,26.508,16.95,10.168-10.683,1.23,27.736Z" transform="translate(-2079.88 -1298.044)" fill="#89faff"/>
    <path id="Path_385" data-name="Path 385" d="M16822.371,1989.411c0,.206-9.969.41-22.18.41-12.234,0-22.2-.2-22.2-.41s9.965-.411,22.2-.411C16812.4,1989,16822.371,1989.206,16822.371,1989.411Z" transform="translate(-2531.21 -1617.475)" fill="#5dd5da"/>
    <path id="Path_386" data-name="Path 386" d="M17082.842,1919.41c0,.206-2.873.411-6.381.411-3.584,0-6.461-.205-6.461-.411s2.877-.411,6.461-.411C17079.969,1919,17082.842,1919.205,17082.842,1919.41Z" transform="translate(-2793.225 -1554.665)" fill="#5dd5da"/>
    <path id="Path_387" data-name="Path 387" d="M16552.869,2021.948c.1,0-1.035,1.335-2.785,3.492-1.742,2.053-4.193,4.929-6.875,8.013-2.764,3.183-5.342,5.957-7.2,8.012a34.558,34.558,0,0,1-3.074,3.081,32.156,32.156,0,0,1,2.66-3.492c1.75-2.055,4.223-4.932,7-8.115,2.756-3.082,5.322-5.856,7.184-7.91C16551.641,2023.078,16552.764,2021.845,16552.869,2021.948Z" transform="translate(-2311.325 -1647.033)" fill="#5dd5da"/>
    <path id="Path_389" data-name="Path 389" d="M16460,5037.977c.092,0,.209.51.826.82a2.783,2.783,0,0,0,2.865-.409,85.992,85.992,0,0,0,7.5-7.087c2.877-2.979,5.131-5.754,6.889-7.911.717-.924,1.338-1.748,1.854-2.468a2.915,2.915,0,0,0,.506-.613c.205-.2.205-.308.205-.308.092,0,0,.1-.092.308a4.281,4.281,0,0,0-.527.716c-.4.617-1.021,1.441-1.842,2.571-1.654,2.055-3.908,4.93-6.785,7.912a76.63,76.63,0,0,1-7.6,7.087,3.679,3.679,0,0,1-1.654.617,2.318,2.318,0,0,1-1.326-.31,1.542,1.542,0,0,1-.734-.617A.548.548,0,0,1,16460,5037.977Z" transform="translate(-2245.884 -4337.122)" fill="#313f44"/>
    <path id="Path_390" data-name="Path 390" d="M16481,5132.85a2.641,2.641,0,0,1,1.229-.1,5.887,5.887,0,0,1,2.887.924,5.249,5.249,0,0,1,2.049,2.264,3.187,3.187,0,0,1,.309,1.127,6.409,6.409,0,0,0-.518-1.028,4.406,4.406,0,0,0-2.047-2.054,6.719,6.719,0,0,0-2.68-1.026,4.128,4.128,0,0,0-1.023-.1Z" transform="translate(-2264.728 -4438.26)" fill="#313f44"/>
    <path id="Path_391" data-name="Path 391" d="M16615.6,5008.245a.95.95,0,0,1-.209-.409c0-.308-.205-.718-.205-1.234a7.024,7.024,0,0,1,.621-4.21,6.532,6.532,0,0,1,3.08-2.981,4.357,4.357,0,0,1,1.225-.409h.525a5.2,5.2,0,0,0-1.645.613,6.474,6.474,0,0,0-2.881,2.882,6.668,6.668,0,0,0-.721,4A12.773,12.773,0,0,1,16615.6,5008.245Z" transform="translate(-2385.044 -4318.277)" fill="#313f44"/>
    <path id="Path_392" data-name="Path 392" d="M16659.156,4967c0,.1-.311,1.338-.621,2.982a10.121,10.121,0,0,1-.717,2.875,19.225,19.225,0,0,1,.523-2.875A7.838,7.838,0,0,1,16659.156,4967Z" transform="translate(-2423.365 -4289.563)" fill="#313f44"/>
    <path id="Path_393" data-name="Path 393" d="M16525.994,5034.2a5.289,5.289,0,0,1,1.949,0c1.125.31,1.857.823,1.74.924a8.447,8.447,0,0,0-1.74-.614A18.65,18.65,0,0,1,16525.994,5034.2Z" transform="translate(-2305.099 -4349.782)" fill="#313f44"/>
    <path id="Path_394" data-name="Path 394" d="M16522.992,5049.335a2.164,2.164,0,0,1,1.654-.1c.91.206,1.531.72,1.42.823,0,.1-.605-.307-1.42-.514C16523.715,5049.335,16522.992,5049.438,16522.992,5049.335Z" transform="translate(-2302.405 -4363.271)" fill="#313f44"/>
    <path id="Path_395" data-name="Path 395" d="M16511.93,5067.6c-.105-.1.723-.414,1.637-.21,1.023.21,1.547.928,1.441.928-.113.106-.617-.514-1.541-.618A13.022,13.022,0,0,0,16511.93,5067.6Z" transform="translate(-2292.471 -4379.584)" fill="#74767b"/>
    <path id="Path_396" data-name="Path 396" d="M16536,4995.579a15.889,15.889,0,0,1,1.844-.617,9.658,9.658,0,0,0,1.756-.924,9.111,9.111,0,0,0,1.02-.618,1.172,1.172,0,0,0,.619-.923c0-.31-.408-.517-.717-.41a1.5,1.5,0,0,0-.922.613,18.446,18.446,0,0,0-1.445,1.437,10.22,10.22,0,0,0-1.223,1.441,1.047,1.047,0,0,1,.2-.514,11.434,11.434,0,0,0,.814-1.027,10.267,10.267,0,0,1,1.447-1.541,1.561,1.561,0,0,1,1.02-.717c.416-.106,1.143.1,1.143.717a1.351,1.351,0,0,1-.727,1.13c-.416.307-.711.51-1.025.717-.725.307-1.342.618-1.961.824a3.51,3.51,0,0,1-1.328.308A1.408,1.408,0,0,1,16536,4995.579Z" transform="translate(-2314.076 -4311.774)" fill="#313f44"/>
    <path id="Path_397" data-name="Path 397" d="M16519.773,4983.351s-.105-.614-.311-1.645a4.1,4.1,0,0,0-.525-1.748,3.96,3.96,0,0,0-.5-.921c-.215-.31-.615-.517-.82-.31-.309.1-.309.517-.309.924.088.307.205.721.309,1.03a3.84,3.84,0,0,0,.916,1.438c.717.82,1.34,1.23,1.236,1.23a1.13,1.13,0,0,0-.416-.2,8.867,8.867,0,0,0-.916-.824,5.815,5.815,0,0,1-1.129-1.541c-.1-.41-.221-.72-.312-1.131a1.431,1.431,0,0,1,.4-1.23,1.066,1.066,0,0,1,1.242.41,3.41,3.41,0,0,1,.611,1.027,3.9,3.9,0,0,1,.414,1.748,6.628,6.628,0,0,1,.105,1.334Z" transform="translate(-2297.028 -4299.754)" fill="#74767b"/>
    <path id="Path_398" data-name="Path 398" d="M16472.41,5143.142c.205,0,.309-.1.5-.1A3.679,3.679,0,0,1,16472.41,5143.142Zm6.465-4.623c.113-.1.316-.309.416-.413h0C16479.191,5138.21,16478.988,5138.417,16478.875,5138.519Zm-6.873-1.85c.508-1.335,1.027-2.462,1.131-2.669h0C16472.719,5135.024,16472.307,5135.851,16472,5136.669Z" transform="translate(-2256.652 -4439.409)" fill="#2c3134"/>
    <path id="Path_399" data-name="Path 399" d="M16457.377,5143.246c-.736,0-1.447-.312-1.447-1.335-.092-.927.828-3.288,1.627-5.242.324-.818.738-1.645,1.15-2.669h.3a2.4,2.4,0,0,1,.727.1,6.732,6.732,0,0,1,2.66,1.025,7.718,7.718,0,0,1,1.857,1.643.105.105,0,0,0,.113.1c-1.658,1.542-3.094,2.771-4.33,3.806a2.728,2.728,0,0,1-1.857.611,2.984,2.984,0,0,1-1.008-.2c-.619-.305-.723-.821-.84-.821h0a.479.479,0,0,0,.117.31,1.473,1.473,0,0,0,.723.611,1.962,1.962,0,0,0,1.125.31h.193a3.768,3.768,0,0,0,1.66-.613,44.446,44.446,0,0,0,4.309-3.8v.1a1.691,1.691,0,0,1,.4.92c-.1.1-.309.312-.4.413a36.683,36.683,0,0,1-5.969,4.52h0c-.193,0-.311.1-.492.1A1.383,1.383,0,0,1,16457.377,5143.246Z" transform="translate(-2242.227 -4439.409)" fill="#ecc538"/>
    <path id="Path_400" data-name="Path 400" d="M16461.945,5166.623a2.063,2.063,0,0,1-1.119-.311,1.544,1.544,0,0,1-.734-.617.537.537,0,0,1-.092-.3h0c.092,0,.209.507.826.818a3.027,3.027,0,0,0,1.016.207,2.66,2.66,0,0,0,1.85-.618c1.246-1.027,2.682-2.258,4.318-3.8v.1h0a.1.1,0,0,1,.113.1,47.788,47.788,0,0,1-4.316,3.8,3.68,3.68,0,0,1-1.654.617Z" transform="translate(-2245.884 -4464.534)" fill="#2c3134"/>
    <path id="Path_401" data-name="Path 401" d="M16543.992,5169.408h0c.094-.1.313-.2.426-.409h0C16544.3,5169.206,16544.086,5169.306,16543.992,5169.408Z" transform="translate(-2321.248 -4470.813)" fill="#2c3134"/>
    <path id="Path_402" data-name="Path 402" d="M16548,5166.308h0c.1-.1.2-.2.3-.307C16548.2,5166.1,16548.1,5166.207,16548,5166.308Z" transform="translate(-2324.845 -4468.125)" fill="#334247"/>
    <path id="Path_403" data-name="Path 403" d="M16541.313,5089.554a2.355,2.355,0,0,0-.312-.924v-.1c1.035-1.023,2.063-2.058,3.082-3.183,1.85-1.85,3.377-3.7,4.736-5.346a1.281,1.281,0,0,1,.09.518.977.977,0,0,0,.219.409h0a104.082,104.082,0,0,1-7.092,7.908h0c-.117.1-.209.2-.311.311C16541.623,5089.351,16541.414,5089.449,16541.313,5089.554Zm2.254-4.006,2.676-2.978c-.711.82-1.551,1.642-2.365,2.564A1.382,1.382,0,0,0,16543.566,5085.548Z" transform="translate(-2318.563 -4390.956)" fill="#ecc538"/>
    <path id="Path_404" data-name="Path 404" d="M16540.09,5086.727c-.09-.1-.09-.1-.09-.2l2.668-2.774a1.367,1.367,0,0,1,.309-.411c.828-.927,1.643-1.748,2.367-2.571l2.566-2.668v.1c-1.344,1.643-2.879,3.491-4.723,5.342C16542.158,5084.676,16541.137,5085.7,16540.09,5086.727Z" transform="translate(-2317.667 -4389.16)" fill="#74767b"/>
    <path id="Path_405" data-name="Path 405" d="M16493.082,5133.028a5.225,5.225,0,0,0-2.775-.924h-.314a.633.633,0,0,1,.412-.1A4.493,4.493,0,0,1,16493.082,5133.028Z" transform="translate(-2272.795 -4437.619)" fill="#a43d43"/>
    <path id="Path_407" data-name="Path 407" d="M16636,5070.1a.1.1,0,0,1,.1-.1h0A.1.1,0,0,0,16636,5070.1Z" transform="translate(-2403.806 -4381.983)" fill="#334247"/>
    <path id="Path_409" data-name="Path 409" d="M16618,5025.957v-.307c.623-.823,1.23-1.541,1.848-2.261.717-.924,1.34-1.748,1.842-2.468a2.426,2.426,0,0,0,.529-.613c.2-.2.2-.308.2-.308h0c.113,0,0,.1-.105.308a4.269,4.269,0,0,0-.5.716c-.416.617-1.035,1.441-1.855,2.571C16619.434,5024.312,16618.723,5025.14,16618,5025.957Z" transform="translate(-2387.655 -4337.122)" fill="#2c3134"/>
    <path id="Path_410" data-name="Path 410" d="M16489.156,5137.21h0a1.625,1.625,0,0,0-.406-.921v-.1a.106.106,0,0,0-.105-.109l.207-.2c0,.1,0,.1.105.2v.109a2.458,2.458,0,0,1,.309.921h0A.1.1,0,0,1,16489.156,5137.21Zm-.605-1.335a7.285,7.285,0,0,0-1.859-1.644,6.645,6.645,0,0,0-2.656-1.027,2.4,2.4,0,0,0-.723-.1H16483a1.769,1.769,0,0,1,.723-.1h.313a5.3,5.3,0,0,1,2.773.921A6.886,6.886,0,0,1,16488.551,5135.875Z" transform="translate(-2266.522 -4438.515)" fill="#74767b"/>
    <path id="Path_411" data-name="Path 411" d="M16616.75,5008.245a.987.987,0,0,1-.219-.409,1.255,1.255,0,0,0-.09-.514v-.2a9.526,9.526,0,0,1,.711-4.727c.605-1.953,2.768-2.877,3.908-3.185h0a3.347,3.347,0,0,0-.918.407,6.4,6.4,0,0,0-2.889,2.882,6.745,6.745,0,0,0-.723,4v.617c.1.718.309,1.127.219,1.127Zm4.611-9.142h0a1.083,1.083,0,0,1,.41-.1h0A1.083,1.083,0,0,0,16621.361,4999.1Z" transform="translate(-2386.195 -4318.277)" fill="#74767b"/>
    <path id="Path_412" data-name="Path 412" d="M16657.777,5002.465h0a7.722,7.722,0,0,1,.41-2.362h0a.353.353,0,0,1,.3-.1h0A9.361,9.361,0,0,1,16657.777,5002.465Z" transform="translate(-2423.315 -4319.176)" fill="#2c3134"/>
    <path id="Path_413" data-name="Path 413" d="M16160.647,2146.705a22.4,22.4,0,0,1,.1-29.584l11.2-12.12,20.336,13.044c-.723.411-14.062,14.9-14.062,14.9l23.418,29.171a16.463,16.463,0,0,1,2.771,16.025l-4.006,16.334-19.309-8.731,1.23-1.952h12.943l.723-3.082Z" transform="translate(-1972.32 -1721.559)" fill="#efceb2"/>
    <path id="Path_414" data-name="Path 414" d="M16330.938,2325.947c.2-.1,1.551,1.132,3.186,2.67,1.646,1.646,2.674,3.185,2.469,3.289-.1.205-1.436-1.131-2.98-2.672C16331.973,2327.592,16330.834,2326.154,16330.938,2325.947Z" transform="translate(-2130.072 -1919.804)" fill="#cea888"/>
    <path id="Path_415" data-name="Path 415" d="M16770,2139.138l3.809-73.139h41.906l3.074,77.557Z" transform="translate(-2524.039 -1686.564)" fill="#417ba0"/>
    <path id="Path_416" data-name="Path 416" d="M16896,2249.931c0,.1-.3.31-1.02.823-.625.411-1.648,1.027-2.891,1.747a36.939,36.939,0,0,1-10.469,3.7,39.29,39.29,0,0,1-11.09.719,17.282,17.282,0,0,1-3.3-.511c-.812-.1-1.227-.208-1.227-.311s1.75.206,4.527.311a44.243,44.243,0,0,0,10.984-.925,43.067,43.067,0,0,0,10.371-3.493A41.341,41.341,0,0,1,16896,2249.931Z" transform="translate(-2610.179 -1851.595)" fill="#5da7d5"/>
    <path id="Path_427" data-name="Path 427" d="M16680.994,1638.141s16.957,4.52,17.258,44.376h6.885s1.756-33.487-16.738-46.636C16688.4,1635.881,16683.061,1634.546,16680.994,1638.141Z" transform="translate(-2444.177 -1300.412)" fill="#417ba0"/>
    <path id="Path_428" data-name="Path 428" d="M17031,1628.442s12.014,5.649,12.326,45.609h5.748s.506-37.392-10.887-44.787A8.132,8.132,0,0,0,17031,1628.442Z" transform="translate(-2758.231 -1293.486)" fill="#417ba0"/>
    <path id="Path_429" data-name="Path 429" d="M16852.9,2062c.117,0,.426.822.426,2.261a4.064,4.064,0,0,1-.721,2.462,3.4,3.4,0,0,1-2.887,1.338,3.2,3.2,0,0,1-2.982-1.13,3.354,3.354,0,0,1-.93-2.361,3.728,3.728,0,0,1,.313-2.262c.117,0,0,.824.221,2.159a3.357,3.357,0,0,0,.916,2.053,2.812,2.812,0,0,0,2.463.822,2.849,2.849,0,0,0,2.367-1.028,3.288,3.288,0,0,0,.713-2.053C16852.9,2062.924,16852.8,2062,16852.9,2062Z" transform="translate(-2592.046 -1682.975)" fill="#5da7d5"/>
    <path id="Path_430" data-name="Path 430" d="M16872.893,2072.579c0-.1.406-.309.922,0a1.138,1.138,0,0,1,.4,1.026,1.178,1.178,0,0,1-1.021,1.029,1.164,1.164,0,0,1-1.223-.616,1.335,1.335,0,0,1,0-1.132c.4-.512.92-.411.814-.307.105.1-.2.2-.311.616-.1.1,0,.308.113.516a.76.76,0,0,0,.51.2.441.441,0,0,0,.406-.411.45.45,0,0,0-.1-.512C16873.2,2072.684,16872.893,2072.684,16872.893,2072.579Z" transform="translate(-2615.422 -1692.321)" fill="#5da7d5"/>
    <path id="Path_431" data-name="Path 431" d="M17154.916,2062a3.569,3.569,0,0,1,.311,1.952,3.63,3.63,0,0,1-.711,2.055,3.405,3.405,0,0,1-2.371,1.437,2.59,2.59,0,0,1-2.561-1.027,4.249,4.249,0,0,1-.826-2.053c-.121-1.231.1-1.952.207-1.952s.1.82.4,1.85a3.837,3.837,0,0,0,.707,1.746,2.392,2.392,0,0,0,1.965.716,2.894,2.894,0,0,0,1.947-1.127,4.167,4.167,0,0,0,.719-1.746C17154.916,2062.719,17154.707,2062,17154.916,2062Z" transform="translate(-2863.859 -1682.975)" fill="#5da7d5"/>
    <path id="Path_432" data-name="Path 432" d="M17172.2,2068.164c-.117,0,.2-.411.814-.308a.963.963,0,0,1,.814.718,1.179,1.179,0,0,1-.406,1.336,1.266,1.266,0,0,1-1.34,0,.9.9,0,0,1-.41-1.028c.111-.617.617-.719.617-.617a1.064,1.064,0,0,0-.09.719.319.319,0,0,0,.314.31.442.442,0,0,0,.5,0,.786.786,0,0,0,.207-.515,1.464,1.464,0,0,0-.309-.411C17172.516,2068.164,17172.291,2068.266,17172.2,2068.164Z" transform="translate(-2884.424 -1688.215)" fill="#5da7d5"/>
    <path id="Path_435" data-name="Path 435" d="M16651.176,2808a4.983,4.983,0,0,1-.711,2.566,12.1,12.1,0,0,1-4.432,4.931,12.636,12.636,0,0,1-6.352,1.748,7.9,7.9,0,0,1-2.682-.412c.1-.2,1.035,0,2.682-.1a12.423,12.423,0,0,0,10.264-6.368C16650.762,2808.924,16651.07,2808,16651.176,2808Z" transform="translate(-2404.702 -2352.345)" fill="#74767b"/>
    <path id="Path_437" data-name="Path 437" d="M16436.631,4933.373c0,.306-7.715.2-17.27,0s-17.359-.514-17.359-.717c.09-.207,7.8-.207,17.359,0S16436.631,4933.169,16436.631,4933.373Z" transform="translate(-2193.844 -4258.608)" fill="#74767b"/>
    <path id="Path_438" data-name="Path 438" d="M17025.9,4175.9c-.105.1-.613-.1-1.545-.408-.92-.413-2.152-.925-3.795-1.644-3.186-1.541-7.607-3.6-12.223-6.269-4.719-2.669-8.848-5.237-11.711-7.188-1.439-1.029-2.67-1.848-3.389-2.364-.83-.616-1.236-.922-1.236-1.025a5.686,5.686,0,0,1,1.336.719c1.035.615,2.154,1.333,3.588,2.26,2.977,1.847,7.094,4.314,11.709,6.983,4.73,2.57,9.053,4.829,12.123,6.369,1.549.721,2.783,1.337,3.8,1.849C17025.389,4175.594,17025.9,4175.9,17025.9,4175.9Z" transform="translate(-2723.237 -3562.772)" fill="#74767b"/>
    <path id="Path_439" data-name="Path 439" d="M16702.5,4927c.213,0,.3.514.213,1.13,0,.614-.213,1.027-.412,1.027s-.311-.517-.311-1.13C16702.1,4927.408,16702.3,4927,16702.5,4927Z" transform="translate(-2463.02 -4253.673)" fill="#74767b"/>
    <path id="Path_481" data-name="Path 481" d="M17224,2760a10.485,10.485,0,0,0,.717.926c.506.719,1.127,1.644,1.957,2.773,1.633,2.464,4.113,5.957,6.883,10.374,5.748,8.836,13.246,21.368,21.768,34.927,4.217,6.778,8.527,13.147,12.436,18.8a23.4,23.4,0,0,1,4.314,9.04,16.682,16.682,0,0,1,0,4.521,16.243,16.243,0,0,1-1.129,4,46.723,46.723,0,0,1-3.279,6.37c-1.133,1.746-2.064,3.187-2.879,4.521-.717,1.232-1.334,2.156-1.75,2.875a11.365,11.365,0,0,0-.623,1.027c-.1-.1.107-.412.516-1.129.313-.72.922-1.644,1.646-2.98.711-1.232,1.643-2.773,2.678-4.623a40.531,40.531,0,0,0,3.289-6.266,15.009,15.009,0,0,0,.922-8.216,25.332,25.332,0,0,0-4.211-8.733c-4.012-5.649-8.336-12.02-12.539-18.8-8.535-13.66-15.926-26.194-21.574-35.027-2.77-4.419-5.139-8.013-6.678-10.479-.828-1.232-1.434-2.158-1.844-2.876A8.762,8.762,0,0,1,17224,2760Z" transform="translate(-2931.404 -2309.275)" fill="#5da7d5"/>
    <path id="Path_482" data-name="Path 482" d="M16225.1,5797.349l-.1-6.777,14.484-21.571,16.539,21.465v6.883Z" transform="translate(-2035.025 -5009.183)" fill="#f05b66"/>
    <path id="Path_483" data-name="Path 483" d="M16256.024,5797.349H16225.1l-.1-6.777,8.729-13.047h7.094v-6.167h-2.986l1.648-2.358,16.539,21.465Z" transform="translate(-2035.025 -5009.183)" fill="#38e6f1"/>
    <path id="Path_485" data-name="Path 485" d="M15771.686,5798.317h-64.337L15702,5792h69.684Z" transform="translate(-1565.819 -5029.896)" fill="#38e6f1"/>
    <path id="Path_486" data-name="Path 486" d="M15477.574,5769,15460,5791.085v53.932h33.9v-55.169Z" transform="translate(-1348.608 -5009.183)" fill="#f05b66"/>
    <path id="Path_487" data-name="Path 487" d="M15729.09,5845.018v-55.373l-15.2-20.644h-7.5l16.643,21.465v6.883h-69.645v-8.731L15636.131,5769H15631l16.332,20.848v55.169Z" transform="translate(-1502.044 -5009.183)" fill="#89faff"/>
    <path id="Path_490" data-name="Path 490" d="M15493.9,5845.018H15460v-53.932l17.574-22.085,16.326,20.848v11.919c-.311,0-.512,0-.512.1h.512v40.062h-.822c0,.1.311.1.822.1Z" transform="translate(-1348.608 -5009.183)" fill="#38e6f1"/>
    <path id="Path_491" data-name="Path 491" d="M15785.512,6088.1h-.51c0-.1.2-.1.51-.1Z" transform="translate(-1640.224 -5295.41)" fill="#425055"/>
    <path id="Path_492" data-name="Path 492" d="M15782.828,6479.1h0c-.516,0-.824,0-.824-.106h.824Z" transform="translate(-1637.534 -5646.243)" fill="#425055"/>
    <path id="Path_493" data-name="Path 493" d="M21516,6409.686v-2.054a8.677,8.677,0,0,1,8.617-8.632h72.641a8.68,8.68,0,0,1,8.617,8.632v2.054Z" transform="translate(-6782.52 -5574.465)" fill="#89faff"/>
    <path id="Path_494" data-name="Path 494" d="M21696.3,5589.5,21670,5670.859h56.1l-24.367-81.355A2.846,2.846,0,0,0,21696.3,5589.5Z" transform="translate(-6920.699 -4846.326)" fill="#38e6f1"/>
    <path id="Path_495" data-name="Path 495" d="M21753.27,5865h21.891l9.551,31.637H21743Z" transform="translate(-6986.203 -5095.321)" fill="#89faff"/>
    <path id="Path_496" data-name="Path 496" d="M20851,6380.795v-2.881a11.915,11.915,0,0,1,11.91-11.913h100.148a11.852,11.852,0,0,1,11.824,11.913v2.881Z" transform="translate(-6185.831 -5544.858)" fill="#89faff"/>
    <path id="Path_497" data-name="Path 497" d="M21100.16,5249.216l-36.166,112.276h77.346l-33.578-112.173A3.991,3.991,0,0,0,21100.16,5249.216Z" transform="translate(-6376.943 -4540.349)" fill="#89faff"/>
    <path id="Path_498" data-name="Path 498" d="M21221.523,5672.657h0l-13.15-43.656h0Zm-57.521,0h0l14.176-43.656h0Z" transform="translate(-6466.675 -4883.563)" fill="#fefefe"/>
    <path id="Path_499" data-name="Path 499" d="M21221.523,5672.657H21164l14.176-43.656h30.2Z" transform="translate(-6466.675 -4883.563)" fill="#38e6f1"/>
    <path id="Path_500" data-name="Path 500" d="M21792.781,6285.248,21790,6276h0Z" transform="translate(-7028.372 -5464.1)" fill="#9e9f9e"/>
    <path id="Path_501" data-name="Path 501" d="M21141.34,6285.248h-77.346l1.445-4.625,73.121-4.623Z" transform="translate(-6376.943 -5464.1)" fill="#38e6f1"/>
    <path id="Path_503" data-name="Path 503" d="M21124.842,6103.824h0c-.223-.1,1.223-4.625,3.266-10.069,1.951-5.442,3.8-9.758,4.006-9.758h0c.209.1-1.328,4.523-3.283,10.069C21126.766,6099.4,21125.021,6103.824,21124.842,6103.824Z" transform="translate(-6431.52 -5291.822)" fill="#f27681"/>
    <path id="Path_505" data-name="Path 505" d="M20545.414,5114c.209,0,.414,1.023.414,2.151,0,1.24-.205,2.264-.414,2.264-.191,0-.412-1.024-.412-2.264C20545,5115.024,20545.223,5114,20545.414,5114Z" transform="translate(-5911.262 -4421.466)" fill="#44616b"/>
    <path id="Path_506" data-name="Path 506" d="M20546.313,5030c.219,0,.4.921.4,2.161s-.178,2.154-.4,2.154-.312-.926-.312-2.154S20546.105,5030,20546.313,5030Z" transform="translate(-5912.16 -4346.093)" fill="#44616b"/>
    <path id="Path_507" data-name="Path 507" d="M20546.4,4945c.219,0,.424,1.027.424,2.161,0,1.23-.205,2.254-.424,2.254a4.143,4.143,0,0,1-.4-2.254C20546.105,4946.026,20546.221,4945,20546.4,4945Z" transform="translate(-5912.16 -4269.823)" fill="#44616b"/>
    <path id="Path_508" data-name="Path 508" d="M20548.182,4861c.191,0,.295.923.295,2.157s-.207,2.158-.412,2.158-.416-.927-.312-2.158C20547.752,4861.922,20547.961,4861,20548.182,4861Z" transform="translate(-5913.703 -4194.451)" fill="#44616b"/>
    <path id="Path_509" data-name="Path 509" d="M20549.416,4776c.207,0,.414,1.024.311,2.258,0,1.131-.209,2.158-.414,2.158s-.309-1.027-.309-2.265C20549.107,4777.026,20549.225,4776,20549.416,4776Z" transform="translate(-5914.854 -4118.188)" fill="#44616b"/>
    <path id="Path_510" data-name="Path 510" d="M21011.656,5057.933c.211-.1.506.824.713,1.954s.219,2.158,0,2.158-.5-.823-.713-2.057C21011.449,5058.859,21011.449,5057.933,21011.656,5057.933Z" transform="translate(-6329.839 -4371.148)" fill="#74767b"/>
    <path id="Path_511" data-name="Path 511" d="M20996.027,4977c.217,0,.621.824.824,1.954.207,1.231.207,2.155,0,2.155-.2.1-.514-.82-.725-1.951C20995.934,4978.026,20995.818,4977,20996.027,4977Z" transform="translate(-6315.856 -4298.538)" fill="#44616b"/>
    <path id="Path_512" data-name="Path 512" d="M20980.66,4896c.207,0,.518.924.709,2.054.313,1.13.313,2.055.105,2.158-.2,0-.607-.928-.814-2.055S20980.443,4896.1,20980.66,4896Z" transform="translate(-6302.023 -4225.858)" fill="#44616b"/>
    <path id="Path_513" data-name="Path 513" d="M20965.654,4815.933c.191-.1.5.823.707,1.951s.211,2.16,0,2.16-.516-.827-.707-1.954C20965.436,4816.856,20965.436,4815.933,20965.654,4815.933Z" transform="translate(-6288.557 -4154.009)" fill="#44616b"/>
    <path id="Path_514" data-name="Path 514" d="M20949.65,4735c.221,0,.529.923.711,2.054.313,1.131.313,2.055.117,2.055-.207.1-.607-.82-.828-1.951S20949.441,4735.1,20949.65,4735Z" transform="translate(-6274.204 -4081.396)" fill="#44616b"/>
    <path id="Path_517" data-name="Path 517" d="M21109.754,6486.979a1.535,1.535,0,0,0-.223.308.935.935,0,0,1-.605.511,1.87,1.87,0,0,1-1.332.31,2.665,2.665,0,0,1-1.641-.62,73.388,73.388,0,0,1-7.715-7.084,87.449,87.449,0,0,1-6.668-7.907c-.809-1.03-1.434-1.955-1.859-2.571a2.148,2.148,0,0,1-.5-.718c-.1-.1-.207-.206-.207-.206s.105.1.207.206a1.778,1.778,0,0,1,.5.718c.621.72,1.242,1.541,1.98,2.467,1.617,2.052,3.992,4.823,6.77,7.808a85,85,0,0,0,7.6,7.088,2.571,2.571,0,0,0,2.867.406C21109.531,6487.391,21109.648,6486.979,21109.754,6486.979Z" transform="translate(-6399.38 -5637.277)" fill="#313f44"/>
    <path id="Path_518" data-name="Path 518" d="M21213.145,6581.1c0,.1-.117.1-.312.1h-.934a7.68,7.68,0,0,0-2.77,1.025,5.945,5.945,0,0,0-1.957,2.057,3.294,3.294,0,0,0-.5,1.128c-.117,0,0-.511.293-1.231a5.074,5.074,0,0,1,2.055-2.155,7.58,7.58,0,0,1,2.879-1.029A7.224,7.224,0,0,1,21213.145,6581.1Z" transform="translate(-6504.924 -5737.772)" fill="#74767b"/>
    <path id="Path_519" data-name="Path 519" d="M21087.039,6456.35c-.113,0,.1-.717.2-1.748a6.856,6.856,0,0,0-3.594-6.984c-1.018-.515-1.641-.515-1.641-.618h.414c.295.1.828.207,1.344.413a6.358,6.358,0,0,1,2.971,2.976,6.823,6.823,0,0,1,.725,4.213,9.61,9.61,0,0,1-.312,1.233A1.832,1.832,0,0,0,21087.039,6456.35Z" transform="translate(-6393.096 -5617.536)" fill="#74767b"/>
    <path id="Path_520" data-name="Path 520" d="M21079.859,6415.952a9.29,9.29,0,0,1,.814,2.873,19.217,19.217,0,0,1,.514,2.987,11.548,11.548,0,0,1-.824-2.987C21080.17,6417.29,21079.754,6415.952,21079.859,6415.952Z" transform="translate(-6391.161 -5589.673)" fill="#313f44"/>
    <path id="Path_521" data-name="Path 521" d="M21192.516,6482.58c0,.1-.814,0-1.844.307-1.037.2-1.76.617-1.76.511-.1-.1.621-.614,1.76-.817C21191.7,6482.273,21192.621,6482.473,21192.516,6482.58Z" transform="translate(-6489.018 -5649.314)" fill="#74767b"/>
    <path id="Path_522" data-name="Path 522" d="M21200.891,6497.332c0,.1-.709,0-1.537.206s-1.449.621-1.449.517a3.063,3.063,0,0,1,1.449-.826C21200.182,6497.028,21201,6497.229,21200.891,6497.332Z" transform="translate(-6497.088 -5662.528)" fill="#74767b"/>
    <path id="Path_523" data-name="Path 523" d="M21211.982,6515.7c0,.1-.725-.1-1.652.1-.828.207-1.451.724-1.451.618-.1,0,.418-.717,1.451-.92A2.337,2.337,0,0,1,21211.982,6515.7Z" transform="translate(-6506.932 -5678.948)" fill="#74767b"/>
    <path id="Path_524" data-name="Path 524" d="M21166.441,6443.63h-.514c-.312-.1-.717-.207-1.334-.414a12.858,12.858,0,0,1-1.836-.82c-.311-.207-.736-.411-1.047-.618a1.666,1.666,0,0,1-.709-1.233c0-.514.709-.816,1.137-.721a10.339,10.339,0,0,1,1.02.721c.52.62,1.023,1.13,1.436,1.541.311.407.617.82.814,1.13.113.207.207.414.207.414s-.4-.517-1.229-1.441a18.251,18.251,0,0,0-1.434-1.437,1.969,1.969,0,0,0-.932-.616.538.538,0,0,0-.709.514c-.105.31.311.613.619.923.3.206.607.413.918.617.723.3,1.332.614,1.834.821C21165.822,6443.423,21166.441,6443.63,21166.441,6443.63Z" transform="translate(-6463.985 -5611.081)" fill="#74767b"/>
    <path id="Path_526" data-name="Path 526" d="M21207.611,6592.042a.631.631,0,0,1-.414-.1A.765.765,0,0,0,21207.611,6592.042Zm-6.369-4.522c-.223-.2-.309-.307-.533-.51h0C21200.934,6587.213,21201.137,6587.316,21201.242,6587.52Zm-.533-.51a4.66,4.66,0,0,1-.707-.721c.2.2.4.411.707.721Zm7.408-1.44c-.311-.722-.727-1.645-1.125-2.568h0C21207.08,6583.207,21207.611,6584.335,21208.117,6585.569Z" transform="translate(-6498.978 -5739.563)" fill="#74767b"/>
    <path id="Path_527" data-name="Path 527" d="M21146.395,6542.795a1.656,1.656,0,0,1-.711-.106.808.808,0,0,1-.41-.1h0a28.628,28.628,0,0,1-5.961-4.419c-.09-.208-.32-.311-.5-.514a3.564,3.564,0,0,1,.5-.925h0a42.439,42.439,0,0,0,4.3,3.7,2.767,2.767,0,0,0,1.656.618h.2a2.038,2.038,0,0,0,1.125-.307,1.06,1.06,0,0,0,.621-.518,1.769,1.769,0,0,1,.207-.31h0c-.094,0-.207.41-.828.72a1.637,1.637,0,0,1-1.008.311,2.848,2.848,0,0,1-1.863-.721,53.661,53.661,0,0,1-4.3-3.8h.09a4.634,4.634,0,0,1,1.742-1.748,7.8,7.8,0,0,1,2.77-1.027h1.031c.414.924.828,1.854,1.125,2.568a21.576,21.576,0,0,1,1.652,5.239A1.3,1.3,0,0,1,21146.395,6542.795Zm-7.586-5.14c-.324-.307-.527-.514-.734-.718h0c-2.457-2.57-5.012-5.448-7.082-7.91h0a1.6,1.6,0,0,1,.117-.514c.09-.1.09-.311.18-.518,1.355,1.645,2.895,3.493,4.629,5.344,1.145,1.13,2.156,2.161,3.191,3.185v.1A2.686,2.686,0,0,0,21138.809,6537.655Zm2.367-3.288a4.672,4.672,0,0,1,2.762-.925h.094A6.987,6.987,0,0,0,21141.176,6534.367Zm-4.641-.821a1.318,1.318,0,0,0-.414-.409c-.711-.825-1.523-1.647-2.234-2.469Z" transform="translate(-6437.055 -5690.21)" fill="#ecc538"/>
    <path id="Path_528" data-name="Path 528" d="M21148.154,6539.254h-.18a2.791,2.791,0,0,1-1.656-.614,41.919,41.919,0,0,1-4.3-3.7v-.207h.094v-.1c1.652,1.54,3.088,2.875,4.3,3.8a2.842,2.842,0,0,0,1.859.717,1.733,1.733,0,0,0,1.031-.307c.621-.307.709-.717.826-.717h0a.886.886,0,0,0-.205.307c-.117.1-.205.411-.621.511A2.041,2.041,0,0,1,21148.154,6539.254Zm-6.371-4.52c-1.006-1.026-2.041-2.053-3.176-3.185-1.746-1.847-3.258-3.7-4.615-5.342v-.1l2.572,2.771c.736.824,1.537,1.644,2.26,2.464.207.108.3.313.4.415l2.676,2.875Z" transform="translate(-6439.748 -5688.42)" fill="#2c3134"/>
    <path id="Path_529" data-name="Path 529" d="M21206.992,6585.216h0a2.681,2.681,0,0,1,.313-1.031v-.1l.1-.1.1.1v.206h0a5.182,5.182,0,0,0-.518.928Zm.723-1.238a7.682,7.682,0,0,1,1.654-2.055,7.148,7.148,0,0,1,2.857-.923h.313c.2,0,.408.1.734.1v.1h-1.047a7.808,7.808,0,0,0-2.766,1.025A4.818,4.818,0,0,0,21207.715,6583.979Z" transform="translate(-6505.249 -5737.772)" fill="#74767b"/>
    <path id="Path_530" data-name="Path 530" d="M21085.387,6454.4a7.731,7.731,0,0,1-.814-1.027h0C21084.869,6453.678,21085.074,6454.088,21085.387,6454.4Zm-1.33-1.645h0c-.416-.514-.727-.924-1.037-1.336L21082,6447h0l1.02,4.417S21083.447,6451.933,21084.057,6452.753Z" transform="translate(-6393.096 -5617.536)" fill="#74767b"/>
    <path id="Path_531" data-name="Path 531" d="M21102.5,6503.614c-.2-.2-.3-.407-.5-.614h0c.2.207.309.41.5.614Z" transform="translate(-6411.041 -5667.781)" fill="#74767b"/>
    <path id="Path_532" data-name="Path 532" d="M21086.926,6456.35c-.508-.717-1.037-1.335-1.539-1.952-.312-.31-.518-.721-.814-1.027-.207-.207-.312-.414-.516-.618-.609-.82-1.037-1.336-1.037-1.336L21082,6447c0,.1.219.1.414.207a9.181,9.181,0,0,0,.723,2.461h0a10.21,10.21,0,0,0-.428-2.461,3.75,3.75,0,0,1,.932.411,6.856,6.856,0,0,1,3.594,6.984v.206a26.765,26.765,0,0,1-1.848-2.154c-.709-.931-1.33-1.748-1.939-2.469a1.951,1.951,0,0,0-.516-.717c-.094-.1-.094-.206-.223-.206h0a2.27,2.27,0,0,1,.223.206,1.713,1.713,0,0,0,.516.717c.416.618,1.02,1.538,1.836,2.568q.776,1.076,1.857,2.464C21087.039,6455.835,21086.926,6456.246,21086.926,6456.35Z" transform="translate(-6393.096 -5617.536)" fill="#ecc538"/>
    <path id="Path_533" data-name="Path 533" d="M21093.418,6474.96c-.719-.93-1.328-1.746-1.848-2.464-.809-1.03-1.434-1.955-1.859-2.571a2.148,2.148,0,0,1-.5-.718c-.1-.1-.207-.206-.207-.206h0c.105,0,.105.1.207.206a1.778,1.778,0,0,1,.5.718c.621.72,1.242,1.541,1.98,2.467a26.409,26.409,0,0,0,1.832,2.155C21093.523,6474.753,21093.523,6474.856,21093.418,6474.96Z" transform="translate(-6399.38 -5637.277)" fill="#74767b"/>
    <path id="Path_534" data-name="Path 534" d="M21087.039,6456.35h-.113c0-.1.113-.515.215-1.133.094-.1.094-.2.094-.41v-.206a6.856,6.856,0,0,0-3.594-6.984,3.75,3.75,0,0,0-.932-.411h0c1.154.411,3.3,1.33,3.906,3.285a10.376,10.376,0,0,1,.721,4.625v.207c-.1.2-.1.41-.2.51A1.832,1.832,0,0,0,21087.039,6456.35Zm-4.625-9.143c-.2-.1-.414-.1-.414-.207h0a.607.607,0,0,0,.414.1Z" transform="translate(-6393.096 -5617.536)" fill="#74767b"/>
    <path id="Path_535" data-name="Path 535" d="M21086.738,6450.568a9.7,9.7,0,0,1-.734-2.464v-.1c.1,0,.215.1.309.1h0a11.017,11.017,0,0,1,.426,2.464Z" transform="translate(-6396.692 -5618.432)" fill="#74767b"/>
    <path id="Path_537" data-name="Path 537" d="M20493.313,6439.474v-.207l-8.316.1a8.494,8.494,0,0,1,2.879-4.623,7.738,7.738,0,0,1,4.82-1.748h.516Z" transform="translate(-5857.42 -5604.974)" fill="#ecc538"/>
    <path id="Path_542" data-name="Path 542" d="M20231,6472.408c.826-.2,1.447-.407,1.539-.407C20232.035,6472.1,20231.518,6472.308,20231,6472.408Z" transform="translate(-5629.519 -5639.967)" fill="#9c9d9d"/>
    <path id="Path_547" data-name="Path 547" d="M20322,6452.708c-.1.1-.414-.307-.709-.82-.416-.618-.619-1.027-.518-1.027,0-.1.311.311.725.82A8.985,8.985,0,0,1,20322,6452.708Z" transform="translate(-5710.043 -5620.985)" fill="#313f44"/>
    <path id="Path_548" data-name="Path 548" d="M20338.268,6448.058c-.117.107-.426-.206-.828-.514s-.711-.72-.605-.72c0-.1.4.207.814.517A2.332,2.332,0,0,1,20338.268,6448.058Z" transform="translate(-5724.461 -5617.36)" fill="#313f44"/>
    <path id="Path_553" data-name="Path 553" d="M20493.121,6431.1c0,.106-.621,0-1.652.106a6.982,6.982,0,0,0-6.062,4.933c-.309.924-.309,1.641-.41,1.641v-.514a6.815,6.815,0,0,1,.215-1.233,7.055,7.055,0,0,1,2.367-3.491,7.23,7.23,0,0,1,3.785-1.541h1.332A1.663,1.663,0,0,0,20493.121,6431.1Z" transform="translate(-5857.42 -5603.177)" fill="#313f44"/>
    <path id="Path_554" data-name="Path 554" d="M20539.121,6339s.191,2.154.191,4.722a29.59,29.59,0,0,1,0,4.729,40.875,40.875,0,0,1-.309-4.729A34.35,34.35,0,0,1,20539.121,6339Z" transform="translate(-5905.882 -5520.63)" fill="#74767b"/>
    <path id="Path_555" data-name="Path 555" d="M20397.684,6476a9.284,9.284,0,0,1-3.3.413,9.833,9.833,0,0,1-3.383-.207c0-.1,1.445,0,3.383-.1C20396.236,6476.1,20397.684,6476,20397.684,6476Z" transform="translate(-5773.079 -5643.554)" fill="#313f44"/>
    <path id="Path_556" data-name="Path 556" d="M20494.838,6475.769c.09,0-.117.307-.219.617-.2.407-.2.717-.309.717-.094,0-.094-.41,0-.821C20494.525,6475.872,20494.838,6475.665,20494.838,6475.769Z" transform="translate(-5865.713 -5643.324)" fill="#74767b"/>
    <path id="Path_557" data-name="Path 557" d="M20508.918,6454.757a1.433,1.433,0,0,1-.295.516c-.311.307-.52.408-.619.408,0-.1.1-.307.41-.617C20508.623,6454.863,20508.826,6454.657,20508.918,6454.757Z" transform="translate(-5878.065 -5624.473)" fill="#74767b"/>
    <path id="Path_558" data-name="Path 558" d="M20529,6443.964c0,.1-.295.1-.6.2a3.287,3.287,0,0,0-.623.307c-.088-.1.1-.407.516-.511C20528.7,6443.76,20529.115,6443.861,20529,6443.964Z" transform="translate(-5895.781 -5614.705)" fill="#74767b"/>
    <path id="Path_559" data-name="Path 559" d="M20550.7,6440.324a.9.9,0,0,1-.311.21c-.191.1-.309.1-.4,0a.359.359,0,0,1,.313-.21C20550.51,6440.225,20550.7,6440.225,20550.7,6440.324Z" transform="translate(-5915.739 -5611.479)" fill="#74767b"/>
    <path id="Path_561" data-name="Path 561" d="M20578.3,6381c.219,0,.412.517.412,1.027,0,.614-.1,1.128-.309,1.128s-.4-.407-.4-1.025S20578.094,6381,20578.3,6381Z" transform="translate(-5940.873 -5558.316)" fill="#74767b"/>
    <path id="Path_590" data-name="Path 590" d="M16994.109,4205.775l5.855-10.886L16979.613,4184l-8.617,15.818,1.225.719c5.453,3.392,27.846,16.539,32.271,17.465C17009.311,4219.028,16994.109,4205.775,16994.109,4205.775Z" transform="translate(-2704.385 -3586.996)" fill="#89faff"/>
    <path id="Path_591" data-name="Path 591" d="M16906.16,2798l42.844,70.774a9.918,9.918,0,0,1-.1,10.479l-39.75,82.179-32.664-17.26,32.453-63.378a10.292,10.292,0,0,0-.812-10.684L16866,2819.06l1.75-21.059Z" transform="translate(-2610.175 -2343.371)" fill="#417ba0"/>
    <path id="Path_593" data-name="Path 593" d="M16478.387,4952l-2.152,9.242s-15.1,19.624-19.82,18.7c-3.084-.613.715-5.75,6.459-20.644l1.225-6.167Z" transform="translate(-2241.679 -4276.105)" fill="#89faff"/>
    <path id="Path_594" data-name="Path 594" d="M16420.65,2707,16400,2942.235h34.1l29.078-199.59-.412-28.353Z" transform="translate(-2192.048 -2261.719)" fill="#417ba0"/>
    <path id="Path_595" data-name="Path 595" d="M16862,3054.152a4.542,4.542,0,0,1,.209-1.131c.1-.822.295-1.951.514-3.388.5-2.979,1.223-7.089,2.154-12.225,1.646-10.375,3.895-24.755,6.16-40.677s4.105-30.4,5.447-40.782c.613-5.239,1.027-9.452,1.441-12.428.207-1.44.295-2.568.4-3.39.1-.72.1-1.13.221-1.13a7.839,7.839,0,0,1-.117,1.13c0,.924-.1,1.95-.209,3.39-.295,2.977-.709,7.189-1.225,12.428-1.131,10.479-2.977,24.961-5.232,40.883s-4.529,30.3-6.371,40.68c-.93,5.136-1.744,9.347-2.365,12.222-.3,1.335-.523,2.465-.715,3.287C16862.1,3053.845,16862,3054.152,16862,3054.152Z" transform="translate(-2606.589 -2469.888)" fill="#5da7d5"/>
    <path id="Path_596" data-name="Path 596" d="M21071,6400l2.141,9.248s15.1,19.621,19.824,18.7c2.984-.618-.713-5.756-6.475-20.651l-1.229-6.167Z" transform="translate(-6383.228 -5575.366)" fill="#38e6f1"/>
    <path id="Path_597" data-name="Path 597" d="M20204.129,6335.637l-.1-12.326,23.105-.31.2,18.079-1.445.1c-6.268.414-32.34,1.747-36.553.518C20184.5,6340.26,20204.129,6335.637,20204.129,6335.637Z" transform="translate(-5591.444 -5506.277)" fill="#38e6f1"/>
    <path id="Path_598" data-name="Path 598" d="M20187,4064l10.777,239.347,35.854.819-5.957-200.412,40.482,201.952h34.094L20256.635,4064Z" transform="translate(-5590.033 -3479.323)" fill="#417ba0"/>
    <path id="Path_599" data-name="Path 599" d="M20959,6371.541l.824,3.491,35.135.514-.533-5.546Z" transform="translate(-6282.736 -5548.444)" fill="#5da7d5"/>
    <path id="Path_600" data-name="Path 600" d="M20281.992,6355.754l38.016.617-.3-6.37-37.719.206Z" transform="translate(-5675.267 -5530.499)" fill="#5da7d5"/>
    <path id="Path_601" data-name="Path 601" d="M20227.529,3750.886h0a12.87,12.87,0,0,1-18.281,3.187L20151,3708.564l10.26-17.564,62.977,42.116A12.918,12.918,0,0,1,20227.529,3750.886Z" transform="translate(-5557.734 -3144.64)" fill="#5da7d5"/>
    <path id="Path_602" data-name="Path 602" d="M20363.746,3496.946c.107-10.784-11.424-31.945-11.424-31.945l-20.631,13.047,3.277,8.732-46.2,19-12.65.617-8.115,11.607,10.375,9.45,27.107-7.5C20322.654,3517.081,20363.541,3508.864,20363.746,3496.946Z" transform="translate(-5662.717 -2941.855)" fill="#efceb2"/>
  </g>
</svg>
