<svg xmlns="http://www.w3.org/2000/svg" width="352.261" height="234.338" viewBox="0 0 352.261 234.338">
  <g id="Group_67" data-name="Group 67" transform="translate(-304.37 -290.289)">
    <g id="Group_36" data-name="Group 36" transform="translate(480.667 392.443) rotate(-17)" opacity="0.7">
      <path id="Path_836" data-name="Path 836" d="M0,0H129.934V126.381H0Z" transform="translate(5.874 5.937)" fill="#2e001e"/>
      <path id="Path_837" data-name="Path 837" d="M0,0V138.223H141.745V0ZM5.906,5.914H135.839v126.4H5.874Z" transform="translate(0 0)" fill="#ff2bc2"/>
      <path id="Path_838" data-name="Path 838" d="M76.239,25.247a8.069,8.069,0,0,0-3.427-.6c-7.435,0-12.4,5.733-12.4,15.239,0,10.87,5.082,15.239,11.694,15.239a11.027,11.027,0,0,0,4.078-.651V25.247ZM49.762,40.369c0-13.764,8.855-24.517,23.388-24.517a24.556,24.556,0,0,1,3.067.126V.621a.6.6,0,0,1,.6-.6h9.506c.471,0,.588.18.588.478V54.478a41.613,41.613,0,0,0,.3,5.788c0,.416,0,.478-.353.651A35.239,35.239,0,0,1,71.73,64.344c-12.815,0-21.96-7.913-21.96-23.976ZM29.621,30.8,46.177,62.846c.3.471.118.941-.353.941H35.55A1.153,1.153,0,0,1,34.311,63Q28.641,51.309,22.735,38.729h-.118c-3.545,7.913-7.443,16.541-11.223,24.313a1.137,1.137,0,0,1-1.067.651H.524c-.588,0-.643-.478-.353-.831l16.18-31.121L.7.887A.525.525,0,0,1,1.12,0H11.277c.588,0,.886.118,1.059.651C16.061,8.5,19.841,16.244,23.386,24.181H23.5C26.923,16.385,30.7,8.5,34.311.793c.29-.478.471-.784,1.059-.784h9.513c.471,0,.643.353.353.886L29.645,30.839Z" transform="translate(26.699 32.837)" fill="#ff2bc2"/>
    </g>
    <g id="Group_37" data-name="Group 37" transform="translate(304.37 290.289)" opacity="0.7">
      <path id="a" d="M238,244.46,282.4,331.367,207.77,244.46Z" transform="translate(-207.77 -196.297)" fill="#ea6c00"/>
      <path id="b" d="M347.347,244.46,302.94,331.367l74.633-86.907Z" transform="translate(-228.299 -196.297)" fill="#ea6c00"/>
      <path id="c" d="M246.31,244.46h88.805l-44.4,86.907Z" transform="translate(-216.083 -196.297)" fill="#fdad00"/>
      <path id="d" d="M290.712,183.05,248.643,187.5l-2.353,43.716Z" transform="translate(-216.079 -183.05)" fill="#fdd231"/>
      <path id="e" d="M302.93,183.05l42.062,4.447,2.353,43.716Z" transform="translate(-228.297 -183.05)" fill="#fdd231"/>
      <path id="f" d="M389.144,232.436,356.58,188.72l2.353,43.716Z" transform="translate(-239.87 -184.273)" fill="#fdad00"/>
      <path id="g" d="M207.77,232.436l32.564-43.716-2.353,43.716Z" transform="translate(-207.77 -184.273)" fill="#fdad00"/>
      <path id="h" d="M290.717,183.05,246.31,231.213h88.805Z" transform="translate(-216.083 -183.05)" fill="#feeeb7"/>
    </g>
  </g>
</svg>
