<svg xmlns="http://www.w3.org/2000/svg" width="191.439" height="248.037" viewBox="0 0 191.439 248.037">
  <g id="Layer_x0020_1" transform="translate(-319.21 -334.5)">
    <g id="_2233489491040" transform="translate(319.21 334.5)">
      <path id="Path_7332" data-name="Path 7332" d="M455.856,524.55H449.4a2.978,2.978,0,0,0-2.97,2.97v17.824a2.967,2.967,0,0,1-2.97,2.97H342.921a2.969,2.969,0,0,1-2.97-2.97V527.52a2.976,2.976,0,0,0-2.97-2.97h-5.889a11.881,11.881,0,0,0-11.881,11.881V690.9a11.877,11.877,0,0,0,11.881,11.881h63.893a67.962,67.962,0,0,1,72.757-95.539V536.431a11.886,11.886,0,0,0-11.883-11.881Zm-69.85,97.3H357.828a7.427,7.427,0,1,1,0-14.854h28.178a7.427,7.427,0,1,1,0,14.854Zm43.115-29.707H357.828a7.427,7.427,0,1,1,0-14.854h71.293a7.427,7.427,0,1,1,0,14.854Z" transform="translate(-319.21 -480.101)" fill="#fff"/>
      <path id="Path_7333" data-name="Path 7333" d="M548.68,385v-8.913c0-10.487-6.808-13.415-16.219-16.6a10.874,10.874,0,0,1-7.55-10.225A14.543,14.543,0,0,0,510.373,334.5h-.62c-7.872,0-14.851,6.256-14.55,14.117a11.026,11.026,0,0,1-7.51,10.861c-9.442,3.185-16.3,6.114-16.3,16.612V385a2.973,2.973,0,0,0,2.97,2.97h71.347a2.971,2.971,0,0,0,2.97-2.97Zm25.086,90.59a53.472,53.472,0,1,0,53.471,53.472A53.473,53.473,0,0,0,573.766,475.594Zm7.426,56.442a7.428,7.428,0,0,1-7.426,7.428H544.058a7.428,7.428,0,0,1,0-14.856h22.279V496.386a7.427,7.427,0,0,1,14.854,0v35.648Z" transform="translate(-435.798 -334.5)" fill="#fff"/>
    </g>
  </g>
</svg>
