<svg xmlns="http://www.w3.org/2000/svg" width="295.666" height="134.663" viewBox="0 0 295.666 134.663">
  <g id="Group_67" data-name="Group 67" transform="translate(-1291.167 -856.337)">
    <g id="Group_54" data-name="Group 54" transform="translate(1429.501 925.669)">
      <path id="Path_1027" data-name="Path 1027" d="M398.9,295.831a32.666,32.666,0,1,1,32.666-32.666A32.666,32.666,0,0,1,398.9,295.831Zm0-63.776a31.11,31.11,0,1,0,31.11,31.11,31.11,31.11,0,0,0-31.11-31.11Z" transform="translate(-366.235 -230.5)" fill="#c7fdff"/>
      <path id="Path_1031" data-name="Path 1031" d="M422.234,259.442l3.889-.778s-3.267,3.655-3.889,3.889h0a15.65,15.65,0,0,0,0,2.333c-7.466,32.044-35,17.888-35,17.888,10.033.233,10.889-3.889,10.889-3.889-5.833-.856-7-4.667-7-4.667a2.4,2.4,0,0,0,3.111-.778,7.064,7.064,0,0,1-5.444-7.778,8.088,8.088,0,0,0,3.811,1.478c-.7-.856-6.611-7.933-3.033-11.589,0,0,4.355,7.778,15.788,8.478l.778-.156a6.105,6.105,0,0,1-.156-1.711A8.166,8.166,0,0,1,414.145,254c5.444,0,6.611,3.111,6.611,3.111l3.889-2.333C424.567,254.776,424.178,258.665,422.234,259.442Z" transform="translate(-370.902 -235.722)" fill="#38e6f1"/>
    </g>
    <g id="Group_51" data-name="Group 51" transform="translate(1369.946 856.337)">
      <path id="Path_1028" data-name="Path 1028" d="M580.9,231.831a32.666,32.666,0,1,1,32.666-32.666A32.666,32.666,0,0,1,580.9,231.831Zm0-63.776a31.11,31.11,0,1,0,31.11,31.11A31.11,31.11,0,0,0,580.9,168.056Z" transform="translate(-548.235 -166.5)" fill="#c7fdff"/>
      <path id="Path_1043" data-name="Path 1043" d="M593.7,186.784A8.237,8.237,0,0,1,601.908,195v16.422a8.237,8.237,0,0,1-8.212,8.212H577.274a8.237,8.237,0,0,1-8.212-8.212V195a8.237,8.237,0,0,1,8.212-8.212H593.7m0-3.284H577.274a11.53,11.53,0,0,0-11.5,11.5v16.422a11.53,11.53,0,0,0,11.5,11.5H593.7a11.53,11.53,0,0,0,11.5-11.5V195a11.53,11.53,0,0,0-11.5-11.5Z" transform="translate(-552.134 -170.278)" fill="#38e6f1"/>
      <path id="Path_1044" data-name="Path 1044" d="M604.14,196.876a2.458,2.458,0,1,1,.01,0Z" transform="translate(-560.115 -172.158)" fill="#38e6f1"/>
      <path id="Path_1045" data-name="Path 1045" d="M588.3,199.453a6.569,6.569,0,1,1-6.569,6.569,6.569,6.569,0,0,1,6.569-6.569m0-3.284a9.854,9.854,0,1,0,9.853,9.854,9.854,9.854,0,0,0-9.853-9.854Z" transform="translate(-554.95 -173.094)" fill="#38e6f1"/>
    </g>
    <g id="Group_52" data-name="Group 52" transform="translate(1521.502 902.003)">
      <path id="Path_1029" data-name="Path 1029" d="M774.9,297.831a32.666,32.666,0,1,1,32.666-32.666A32.666,32.666,0,0,1,774.9,297.831Zm0-63.776a31.11,31.11,0,1,0,31.11,31.11A31.11,31.11,0,0,0,774.9,234.056Z" transform="translate(-742.235 -232.5)" fill="#c7fdff"/>
      <path id="Path_1058" data-name="Path 1058" d="M797.247,255.5,769.7,247.02a2.817,2.817,0,0,0-3.612,1.7l-8.5,27.613a3.039,3.039,0,0,0,1.95,3.7l27.543,8.474a2.885,2.885,0,0,0,3.519-2.014l8.5-27.613a2.648,2.648,0,0,0-1.849-3.383Zm-28.605,21.322-4.729-1.455,4.524-14.7,4.729,1.455Zm3.011-17.618-.034-.01a2.688,2.688,0,1,1,.034.01Zm14.274,22.935-4.729-1.455,2.474-8.04c.593-1.926.309-3.454-1.4-3.98a2.705,2.705,0,0,0-2.962,1,3.335,3.335,0,0,0-.521,1.111l-2.577,8.375-4.729-1.455,4.524-14.7,4.729,1.455-.63,2.046a5.01,5.01,0,0,1,5-1.078c3.1.955,4.823,3.724,3.466,8.136Z" transform="translate(-745.622 -235.69)" fill="#38e6f1"/>
    </g>
    <g id="Group_53" data-name="Group 53" transform="translate(1291.167 905.444)">
      <path id="Path_1026" data-name="Path 1026" d="M228.9,430.831a32.666,32.666,0,1,1,32.666-32.666A32.666,32.666,0,0,1,228.9,430.831Zm0-63.776a31.11,31.11,0,1,0,31.11,31.11A31.11,31.11,0,0,0,228.9,367.056Z" transform="translate(-196.235 -365.5)" fill="#c7fdff"/>
      <path id="Path_1059" data-name="Path 1059" d="M253.487,401.564a21.354,21.354,0,1,0-24.691,21.1V407.739h-5.423v-6.175H228.8v-4.706c0-5.351,3.189-8.309,8.066-8.309a32.816,32.816,0,0,1,4.781.418v5.256h-2.694c-2.651,0-3.481,1.645-3.481,3.337v4.006h5.922l-.946,6.175h-4.976v14.922a21.36,21.36,0,0,0,18.019-21.1Z" transform="translate(-199.467 -368.77)" fill="#38e6f1" fill-rule="evenodd"/>
    </g>
  </g>
</svg>
