<svg xmlns="http://www.w3.org/2000/svg" width="197.068" height="122.636" viewBox="0 0 197.068 122.636">
  <g id="Group_46" data-name="Group 46" transform="translate(-164.14 -87.83)">
    <path id="Path_934" data-name="Path 934" d="M164.14,87.83V210.466H361.208V87.83Z" fill="#1a597e"/>
    <rect id="Rectangle_151" data-name="Rectangle 151" width="192.905" height="9.367" transform="translate(166.223 89.126)" fill="#f6f7f9"/>
    <g id="Group_41" data-name="Group 41" transform="translate(166.223 89.126)" opacity="0.42">
      <rect id="Rectangle_152" data-name="Rectangle 152" width="192.905" height="9.367" transform="translate(0 0)" fill="#38e6f1"/>
    </g>
    <rect id="Rectangle_153" data-name="Rectangle 153" width="192.905" height="110.678" transform="translate(166.223 98.492)" fill="#c7fdff"/>
    <circle id="Ellipse_107" data-name="Ellipse 107" cx="2.083" cy="2.083" r="2.083" transform="translate(168.766 91.669)" fill="#38e6f1"/>
    <circle id="Ellipse_108" data-name="Ellipse 108" cx="2.083" cy="2.083" r="2.083" transform="translate(174.315 91.669)" fill="#38e6f1"/>
    <circle id="Ellipse_109" data-name="Ellipse 109" cx="2.083" cy="2.083" r="2.083" transform="translate(179.867 91.669)" fill="#38e6f1"/>
    <g id="Group_42" data-name="Group 42" transform="translate(172.929 112.256)">
      <rect id="Rectangle_154" data-name="Rectangle 154" width="99.228" height="7.169" transform="translate(0 0)" fill="#38e6f1"/>
    </g>
    <g id="Group_43" data-name="Group 43" transform="translate(297.6 112.256)">
      <rect id="Rectangle_155" data-name="Rectangle 155" width="52.042" height="7.169" transform="translate(0 0)" fill="#38e6f1"/>
    </g>
    <g id="Group_44" data-name="Group 44" transform="translate(192.242 147.182)">
      <rect id="Rectangle_156" data-name="Rectangle 156" width="6.938" height="22.899" transform="translate(0 32.846)" fill="#38e6f1"/>
      <rect id="Rectangle_157" data-name="Rectangle 157" width="6.938" height="39.321" transform="translate(13.415 16.421)" fill="#38e6f1"/>
      <rect id="Rectangle_158" data-name="Rectangle 158" width="6.938" height="55.742" transform="translate(26.831 0)" fill="#38e6f1"/>
      <rect id="Rectangle_159" data-name="Rectangle 159" width="6.938" height="50.424" transform="translate(40.246 5.32)" fill="#38e6f1"/>
      <rect id="Rectangle_160" data-name="Rectangle 160" width="6.938" height="34.694" transform="translate(53.662 21.048)" fill="#38e6f1"/>
    </g>
    <g id="Group_45" data-name="Group 45" transform="translate(297.486 135.155)">
      <rect id="Rectangle_161" data-name="Rectangle 161" width="52.042" height="63.954" fill="#38e6f1"/>
    </g>
    <rect id="Rectangle_165" data-name="Rectangle 165" width="10.641" height="10.641" transform="translate(310.558 161.784)" fill="#e8eaf1"/>
    <rect id="Rectangle_166" data-name="Rectangle 166" width="37.775" height="2.128" transform="translate(315.878 178.809)" fill="#89faff"/>
    <rect id="Rectangle_167" data-name="Rectangle 167" width="37.775" height="2.128" transform="translate(315.878 183.331)" fill="#89faff"/>
    <rect id="Rectangle_168" data-name="Rectangle 168" width="37.775" height="2.128" transform="translate(315.878 187.854)" fill="#89faff"/>
    <rect id="Rectangle_169" data-name="Rectangle 169" width="37.775" height="2.128" transform="translate(315.878 192.376)" fill="#89faff"/>
    <rect id="Rectangle_170" data-name="Rectangle 170" width="37.775" height="2.128" transform="translate(315.878 196.899)" fill="#89faff"/>
    <rect id="Rectangle_171" data-name="Rectangle 171" width="37.775" height="2.128" transform="translate(315.878 201.421)" fill="#89faff"/>
    <rect id="Rectangle_172" data-name="Rectangle 172" width="37.775" height="2.128" transform="translate(315.878 205.943)" fill="#89faff"/>
    <path id="Path_1002" data-name="Path 1002" d="M663.74,496.218s-1.157-1.157-4.48-1.3a9.572,9.572,0,0,1-4.77-1.157" transform="translate(-386.402 -319.383)" opacity="0.1"/>
  </g>
</svg>
