<svg xmlns="http://www.w3.org/2000/svg" width="86.88" height="174.239" viewBox="0 0 86.88 174.239">
  <g id="Group_38" data-name="Group 38" transform="translate(0 0)">
    <path id="Path_845" data-name="Path 845" d="M242.88,120.881h-.957V94.655a15.179,15.179,0,0,0-15.179-15.179H171.179A15.179,15.179,0,0,0,156,94.655v143.88a15.179,15.179,0,0,0,15.179,15.179h55.564a15.179,15.179,0,0,0,15.179-15.179V139.55h.957Z" transform="translate(-156 -79.476)" fill="#1a597e"/>
    <path id="Path_846" data-name="Path 846" d="M240.807,96.107h-7.253a5.386,5.386,0,0,1-4.986,7.42H196.736a5.386,5.386,0,0,1-4.986-7.42h-6.774a11.336,11.336,0,0,0-11.336,11.336V251.112a11.336,11.336,0,0,0,11.336,11.336h55.832a11.336,11.336,0,0,0,11.336-11.336V107.443a11.336,11.336,0,0,0-11.336-11.336Z" transform="translate(-169.452 -92.158)" fill="#fff"/>
    <path id="Path_847" data-name="Path 847" d="M257.547,219.111h-3.334a.442.442,0,0,0-.442.442v1.463a.442.442,0,0,0,.442.442h.552v2.192h2.229v-2.192h.552a.442.442,0,0,0,.442-.442v-1.463A.442.442,0,0,0,257.547,219.111Z" transform="translate(-230.556 -185.955)" fill="#89faff"/>
    <path id="Path_848" data-name="Path 848" d="M251.031,239.686a17.138,17.138,0,0,1-2.982-10.161.361.361,0,0,0-.282-.361v-.632h-3.521v.623H244.2a.361.361,0,0,0-.361.362c0,.009,0,.018,0,.026a15.641,15.641,0,0,1-2.81,10.4,1,1,0,0,0-.18.6l.385,11.908a1.031,1.031,0,0,0,1.022.995h7.963a1.031,1.031,0,0,0,1.023-1.012l.148-11.562A2.087,2.087,0,0,0,251.031,239.686Z" transform="translate(-220.701 -193.139)" fill="#89faff"/>
    <path id="Path_849" data-name="Path 849" d="M253.88,292.166h-6.931a.712.712,0,0,0-.7.82l1.047,6.808h6.014l1.272-6.785a.712.712,0,0,0-.7-.843Z" transform="translate(-224.811 -241.664)" fill="#38e6f1"/>
    <path id="Path_850" data-name="Path 850" d="M413.831,369.345H410.5a.442.442,0,0,0-.442.442v1.463a.442.442,0,0,0,.442.442h.552v2.192h2.229v-2.192h.552a.442.442,0,0,0,.442-.442v-1.463A.442.442,0,0,0,413.831,369.345Z" transform="translate(-349.732 -300.517)" fill="#89faff"/>
    <path id="Path_851" data-name="Path 851" d="M407.315,389.921a17.138,17.138,0,0,1-2.982-10.161.361.361,0,0,0-.282-.361v-.632h-3.521v.623h-.048a.361.361,0,0,0-.361.362q0,.013,0,.026a15.641,15.641,0,0,1-2.81,10.4,1,1,0,0,0-.18.6l.385,11.908a1.031,1.031,0,0,0,1.022.995H406.5a1.031,1.031,0,0,0,1.023-1.013l.148-11.562A2.087,2.087,0,0,0,407.315,389.921Z" transform="translate(-339.877 -307.702)" fill="#89faff"/>
    <path id="Path_852" data-name="Path 852" d="M410.164,442.4h-6.932a.712.712,0,0,0-.7.82l1.047,6.808h6.014l1.272-6.785a.712.712,0,0,0-.7-.843Z" transform="translate(-343.986 -356.227)" fill="#38e6f1"/>
    <path id="Path_853" data-name="Path 853" d="M244.184,581.733H242.6a.21.21,0,0,0-.21.21v.694a.21.21,0,0,0,.21.21h.262v1.04h1.057v-1.04h.262a.21.21,0,0,0,.21-.21v-.694a.21.21,0,0,0-.21-.21Z" transform="translate(-221.879 -462.475)" fill="#89faff"/>
    <path id="Path_854" data-name="Path 854" d="M241.093,591.492a8.13,8.13,0,0,1-1.414-4.82.172.172,0,0,0-.134-.171v-.3h-1.67v.3h-.023a.171.171,0,0,0-.171.172s0,.008,0,.013a7.419,7.419,0,0,1-1.333,4.934.473.473,0,0,0-.085.286l.183,5.649a.489.489,0,0,0,.485.472h3.777a.489.489,0,0,0,.485-.48l.07-5.484A.989.989,0,0,0,241.093,591.492Z" transform="translate(-217.204 -465.882)" fill="#89faff"/>
    <rect id="Rectangle_141" data-name="Rectangle 141" width="3.604" height="1.802" transform="translate(19.74 127.686)" fill="#38e6f1"/>
    <path id="Path_855" data-name="Path 855" d="M275.183,581.733H273.6a.21.21,0,0,0-.21.21v.694a.21.21,0,0,0,.21.21h.262v1.04h1.057v-1.04h.262a.21.21,0,0,0,.21-.21v-.694a.21.21,0,0,0-.21-.21Z" transform="translate(-245.518 -462.475)" fill="#89faff"/>
    <path id="Path_856" data-name="Path 856" d="M272.093,591.492a8.13,8.13,0,0,1-1.414-4.82.171.171,0,0,0-.134-.171v-.3h-1.67v.3h-.023a.171.171,0,0,0-.171.172s0,.008,0,.013a7.419,7.419,0,0,1-1.333,4.934.472.472,0,0,0-.085.286l.183,5.649a.489.489,0,0,0,.485.472h3.777a.489.489,0,0,0,.485-.48l.07-5.484A.989.989,0,0,0,272.093,591.492Z" transform="translate(-240.844 -465.882)" fill="#89faff"/>
    <rect id="Rectangle_142" data-name="Rectangle 142" width="3.604" height="1.802" transform="translate(27.101 127.686)" fill="#38e6f1"/>
    <path id="Path_857" data-name="Path 857" d="M306.183,581.733H304.6a.21.21,0,0,0-.21.21v.694a.21.21,0,0,0,.21.21h.262v1.04h1.057v-1.04h.262a.21.21,0,0,0,.21-.21v-.694a.21.21,0,0,0-.21-.21Z" transform="translate(-269.158 -462.475)" fill="#89faff"/>
    <path id="Path_858" data-name="Path 858" d="M303.093,591.492a8.129,8.129,0,0,1-1.414-4.82.171.171,0,0,0-.134-.171v-.3h-1.67v.3h-.023a.171.171,0,0,0-.171.172s0,.008,0,.013a7.419,7.419,0,0,1-1.333,4.934.472.472,0,0,0-.085.286l.183,5.649a.489.489,0,0,0,.485.472h3.777a.489.489,0,0,0,.485-.48l.07-5.484A.989.989,0,0,0,303.093,591.492Z" transform="translate(-264.483 -465.882)" fill="#89faff"/>
    <rect id="Rectangle_143" data-name="Rectangle 143" width="3.604" height="1.802" transform="translate(34.462 127.686)" fill="#38e6f1"/>
    <path id="Path_859" data-name="Path 859" d="M389.442,523.613h-3.333a.442.442,0,0,0-.442.442v1.463a.442.442,0,0,0,.442.442h.552v2.192h2.229V525.96h.552a.442.442,0,0,0,.442-.442v-1.463A.442.442,0,0,0,389.442,523.613Z" transform="translate(-331.134 -418.155)" fill="#89faff"/>
    <path id="Path_860" data-name="Path 860" d="M382.926,544.189a17.139,17.139,0,0,1-2.982-10.161.361.361,0,0,0-.282-.361v-.632h-3.521v.623h-.048a.361.361,0,0,0-.361.362c0,.009,0,.018,0,.026a15.64,15.64,0,0,1-2.81,10.4,1,1,0,0,0-.18.6l.385,11.908a1.031,1.031,0,0,0,1.022.995h7.963a1.031,1.031,0,0,0,1.023-1.012l.148-11.562a2.086,2.086,0,0,0-.359-1.191Z" transform="translate(-321.279 -425.34)" fill="#89faff"/>
    <path id="Path_861" data-name="Path 861" d="M385.775,596.668h-6.931a.712.712,0,0,0-.7.82l1.047,6.808H385.2l1.272-6.785a.712.712,0,0,0-.7-.843Z" transform="translate(-325.388 -473.864)" fill="#38e6f1"/>
    <path id="Path_862" data-name="Path 862" d="M345.415,255.362H325.544c1.389-7.511,1.07-16.581,0-26.335h19.871C344.374,238.781,344.063,247.851,345.415,255.362Z" transform="translate(-285.287 -193.517)" fill="#89faff"/>
    <circle id="Ellipse_91" data-name="Ellipse 91" cx="4.788" cy="4.788" r="4.788" transform="translate(45.524 43.171)" fill="#38e6f1"/>
    <path id="Path_863" data-name="Path 863" d="M268.785,402.572H248.914c1.389-7.511,1.07-16.581,0-26.335h19.871C267.744,385.991,267.433,395.061,268.785,402.572Z" transform="translate(-226.852 -305.773)" fill="#89faff"/>
    <circle id="Ellipse_92" data-name="Ellipse 92" cx="4.788" cy="4.788" r="4.788" transform="translate(27.329 78.125)" fill="#38e6f1"/>
    <path id="Path_864" data-name="Path 864" d="M392.8,262.42H372.933c1.389-7.511,1.07-16.581,0-26.335H392.8C391.763,245.839,391.452,254.909,392.8,262.42Z" transform="translate(-321.424 -198.899)" fill="#e6e6e6"/>
    <circle id="Ellipse_93" data-name="Ellipse 93" cx="4.788" cy="4.788" r="4.788" transform="translate(56.777 44.847)" fill="#fff"/>
    <path id="Path_865" data-name="Path 865" d="M392.8,257.379H372.933c1.389-7.511,1.07-16.581,0-26.335H392.8C391.763,240.8,391.452,249.868,392.8,257.379Z" transform="translate(-321.424 -195.055)" fill="#89faff"/>
    <circle id="Ellipse_94" data-name="Ellipse 94" cx="4.788" cy="4.788" r="4.788" transform="translate(56.777 43.65)" fill="#fff"/>
    <path id="Path_866" data-name="Path 866" d="M392.8,262.42H372.933c1.389-7.511,1.07-16.581,0-26.335H392.8C391.763,245.839,391.452,254.909,392.8,262.42Z" transform="translate(-321.424 -198.899)" fill="#89faff"/>
    <circle id="Ellipse_95" data-name="Ellipse 95" cx="4.788" cy="4.788" r="4.788" transform="translate(56.777 44.847)" fill="#38e6f1"/>
    <rect id="Rectangle_144" data-name="Rectangle 144" width="65.12" height="7.182" transform="translate(10.81 60.409)" fill="#89faff"/>
    <rect id="Rectangle_145" data-name="Rectangle 145" width="65.12" height="7.182" transform="translate(10.81 96.081)" fill="#89faff"/>
    <rect id="Rectangle_146" data-name="Rectangle 146" width="65.12" height="7.182" transform="translate(10.81 131.754)" fill="#89faff"/>
  </g>
</svg>
