<svg xmlns="http://www.w3.org/2000/svg" width="134.036" height="134.066" viewBox="0 0 134.036 134.066">
  <path id="Icon_awesome-whmcs" data-name="Icon awesome-whmcs" d="M134.036,40.845V34.473l-8.527-2.633-.658-3.112,6.014-6.193-3.112-5.8-8.676,2.244-2.154-2.244,2.244-8.437-5.714-3.471-6.373,6.283-3.2-.957-2.094-7.9H95.022l-1.855,7.9-3.62.957L83.653,4.823l-5.8,3.291L80.272,16.4l-2.423,2.513-8.527-2.244-3.291,5.714,6.193,6.283-.868,3.112-8.527,2.334-.09,6.492,8.617,2.244.718,3.62-6.014,5.954,3.112,5.535,8.856-2.244,2.154,2.573-2.423,8.048,5.954,3.471,5.8-6.1,3.471.868,2,8.527,6.762.09,2-8.617,3.471-1.047,6.193,6.462,6.1-3.62-2.633-8.377,2.334-2.423,8.617,2.633,3.082-6.014-6.253-5.625.658-3.62,8.706-2.094ZM98.373,54.368a16.994,16.994,0,1,1,16.994-16.994A17,17,0,0,1,98.373,54.368ZM120,59.275l14.032,4.338V75.551L117.551,79.56l-1.227,6.792,11.638,10.561-5.744,11.339-16.156-5-4.368,4.548,5,15.707L95.231,130.3,83.593,118.185,77.1,120.16l-3.77,16.156-12.686-.15-3.77-16.036-6.492-1.675-10.89,11.489L28.3,123.451l4.548-15.109-4.1-4.817-16.6,4.219L6.253,97.332l11.339-11.19-1.436-6.821L0,75.1.15,62.865l16.007-4.4,1.705-5.894L6.223,40.785l6.193-10.711,16.036,4.219L33,29.6,28.453,14.038l10.89-6.193,11.01,11.788,6.792-1.825L60.615,2.25H73.3l3.471,13.733L70.01,14.218l-1.885-.509-.987,1.705-3.291,5.714L62.859,22.8l1.376,1.376,5.146,5.206-.09.3L62.171,31.63l-1.855.509-.03,1.915-.06,3.86A31.652,31.652,0,1,0,97.8,75.731l3.949.06,2.064.03.479-2,1.675-7.181.568-.18,5.116,5.326,1.406,1.466L114.8,72.23l6.1-3.62,1.735-1.047-.6-1.945L120,59.275Z" transform="translate(0 -2.25)" fill="#fff"/>
</svg>
